<?xml version="1.0" encoding="UTF-8"?>
<!DOCTYPE svg PUBLIC "-//W3C//DTD SVG 1.1//EN" "http://www.w3.org/Graphics/SVG/1.1/DTD/svg11.dtd">
<svg xmlns="http://www.w3.org/2000/svg" version="1.1" width="1080px" height="1080px" style="shape-rendering:geometricPrecision; text-rendering:geometricPrecision; image-rendering:optimizeQuality; fill-rule:evenodd; clip-rule:evenodd" xmlns:xlink="http://www.w3.org/1999/xlink">
<g><path style="opacity:0.995" fill="#000000" d="M 100.5,-0.5 C 105.833,-0.5 111.167,-0.5 116.5,-0.5C 139.65,1.83121 160.317,10.3312 178.5,25C 298.667,145.167 418.833,265.333 539,385.5C 659.167,265.333 779.333,145.167 899.5,25C 917.976,10.1225 938.976,1.62249 962.5,-0.5C 967.5,-0.5 972.5,-0.5 977.5,-0.5C 1015.69,3.50922 1044.85,21.8426 1065,54.5C 1073,69.3288 1077.83,84.9955 1079.5,101.5C 1079.5,106.5 1079.5,111.5 1079.5,116.5C 1077.38,140.024 1068.88,161.024 1054,179.5C 933.833,299.667 813.667,419.833 693.5,540C 813.667,660.167 933.833,780.333 1054,900.5C 1068.67,918.683 1077.17,939.35 1079.5,962.5C 1079.5,967.833 1079.5,973.167 1079.5,978.5C 1071.76,1033.57 1040.76,1067.24 986.5,1079.5C 975.167,1079.5 963.833,1079.5 952.5,1079.5C 932.868,1075.69 915.201,1067.52 899.5,1055C 779.333,934.833 659.167,814.667 539,694.5C 418.833,814.667 298.667,934.833 178.5,1055C 162.799,1067.52 145.132,1075.69 125.5,1079.5C 114.167,1079.5 102.833,1079.5 91.5,1079.5C 41.1667,1068.5 10.5,1037.83 -0.5,987.5C -0.5,976.167 -0.5,964.833 -0.5,953.5C 3.31459,933.868 11.4813,916.201 24,900.5C 144.167,780.333 264.333,660.167 384.5,540C 264.333,419.833 144.167,299.667 24,179.5C 11.4813,163.799 3.31459,146.132 -0.5,126.5C -0.5,115.167 -0.5,103.833 -0.5,92.5C 11.762,38.2374 45.4287,7.23743 100.5,-0.5 Z"/></g>
</svg>
