<?xml version="1.0" encoding="UTF-8"?>
<!DOCTYPE svg PUBLIC "-//W3C//DTD SVG 1.1//EN" "http://www.w3.org/Graphics/SVG/1.1/DTD/svg11.dtd">
<svg xmlns="http://www.w3.org/2000/svg" version="1.1" width="1080px" height="1080px" style="shape-rendering:geometricPrecision; text-rendering:geometricPrecision; image-rendering:optimizeQuality; fill-rule:evenodd; clip-rule:evenodd" xmlns:xlink="http://www.w3.org/1999/xlink">
<g><path style="opacity:0.998" fill="#000000" d="M 92.5,-0.5 C 390.5,-0.5 688.5,-0.5 986.5,-0.5C 1037.83,10.1667 1068.83,41.1667 1079.5,92.5C 1079.5,390.5 1079.5,688.5 1079.5,986.5C 1068.83,1037.83 1037.83,1068.83 986.5,1079.5C 688.5,1079.5 390.5,1079.5 92.5,1079.5C 41.1667,1068.83 10.1667,1037.83 -0.5,986.5C -0.5,688.5 -0.5,390.5 -0.5,92.5C 10.1667,41.1667 41.1667,10.1667 92.5,-0.5 Z M 217.5,217.5 C 432.167,217.5 646.833,217.5 861.5,217.5C 861.5,432.167 861.5,646.833 861.5,861.5C 646.833,861.5 432.167,861.5 217.5,861.5C 217.5,646.833 217.5,432.167 217.5,217.5 Z"/></g>
</svg>
