<?xml version="1.0" encoding="UTF-8"?>
<!DOCTYPE svg PUBLIC "-//W3C//DTD SVG 1.1//EN" "http://www.w3.org/Graphics/SVG/1.1/DTD/svg11.dtd">
<svg xmlns="http://www.w3.org/2000/svg" version="1.1" width="1080px" height="1080px" style="shape-rendering:geometricPrecision; text-rendering:geometricPrecision; image-rendering:optimizeQuality; fill-rule:evenodd; clip-rule:evenodd" xmlns:xlink="http://www.w3.org/1999/xlink">
<g><path style="opacity:0.997" fill="#000000" d="M 1079.5,524.5 C 1079.5,534.5 1079.5,544.5 1079.5,554.5C 1072,595.176 1049.33,624.009 1011.5,641C 1004.67,643.61 997.671,645.61 990.5,647C 840.191,648.161 689.858,648.661 539.5,648.5C 389.142,648.661 238.809,648.161 88.5,647C 51.3687,638.867 24.5354,617.7 8,583.5C 4.36425,573.936 1.53092,564.27 -0.5,554.5C -0.5,544.5 -0.5,534.5 -0.5,524.5C 6.99944,483.824 29.6661,454.991 67.5,438C 74.3293,435.39 81.3293,433.39 88.5,432C 238.809,430.839 389.142,430.339 539.5,430.5C 689.858,430.339 840.191,430.839 990.5,432C 1027.63,440.133 1054.46,461.3 1071,495.5C 1074.64,505.064 1077.47,514.73 1079.5,524.5 Z"/></g>
</svg>
