<?xml version="1.0" encoding="UTF-8"?>
<!DOCTYPE svg PUBLIC "-//W3C//DTD SVG 1.1//EN" "http://www.w3.org/Graphics/SVG/1.1/DTD/svg11.dtd">
<svg xmlns="http://www.w3.org/2000/svg" version="1.1" width="2048px" height="2048px" style="shape-rendering:geometricPrecision; text-rendering:geometricPrecision; image-rendering:optimizeQuality; fill-rule:evenodd; clip-rule:evenodd" xmlns:xlink="http://www.w3.org/1999/xlink">
<g><path style="opacity:0.995" fill="#fe0000" d="M 1906.5,97.5 C 1920.5,97.3334 1934.5,97.5001 1948.5,98C 1949.66,111.425 1949.82,124.925 1949,138.5C 1946.91,146.67 1943.25,154.004 1938,160.5C 1929.97,168.864 1921.64,176.864 1913,184.5C 1914.27,220.147 1914.6,255.814 1914,291.5C 1914.53,314.26 1906.03,332.76 1888.5,347C 1861.91,366.245 1834.24,383.912 1805.5,400C 1773.39,424.109 1740.72,447.443 1707.5,470C 1687.03,491.472 1666.2,512.638 1645,533.5C 1610.98,572.508 1579.65,613.508 1551,656.5C 1542,667.5 1533,678.5 1524,689.5C 1507.39,713.114 1490.39,736.447 1473,759.5C 1431.24,805.248 1391.74,852.748 1354.5,902C 1359.93,907.431 1365.93,912.098 1372.5,916C 1389.77,924.965 1406.77,934.298 1423.5,944C 1429.58,949.405 1434.91,955.405 1439.5,962C 1474.53,991.02 1508.36,1021.52 1541,1053.5C 1550.33,1067.5 1559.67,1081.5 1569,1095.5C 1596.49,1129.99 1622.82,1165.32 1648,1201.5C 1656.67,1210.17 1665.33,1218.83 1674,1227.5C 1678.83,1233.83 1683.16,1240.49 1687,1247.5C 1694.39,1253.88 1702.55,1259.05 1711.5,1263C 1720.68,1269.42 1729.68,1276.09 1738.5,1283C 1750.99,1293.49 1762.82,1304.66 1774,1316.5C 1787.03,1329.87 1799.7,1343.53 1812,1357.5C 1828.1,1381.28 1846.1,1403.61 1866,1424.5C 1878.57,1440.3 1888.57,1457.63 1896,1476.5C 1900.54,1495.14 1906.88,1513.14 1915,1530.5C 1917.96,1540.35 1920.3,1550.35 1922,1560.5C 1922.9,1578.87 1922.57,1597.2 1921,1615.5C 1920.41,1619.28 1919.41,1622.94 1918,1626.5C 1913.57,1633.26 1909.57,1640.26 1906,1647.5C 1903.74,1657.72 1901.24,1667.89 1898.5,1678C 1902.81,1682.98 1906.31,1688.48 1909,1694.5C 1909.67,1707.5 1909.67,1720.5 1909,1733.5C 1907.79,1738.21 1904.96,1741.54 1900.5,1743.5C 1899.68,1750.49 1896.02,1755.32 1889.5,1758C 1875.83,1758.67 1862.17,1758.67 1848.5,1758C 1841.36,1755.86 1837.53,1751.02 1837,1743.5C 1836.71,1735.8 1836.04,1728.13 1835,1720.5C 1828.77,1711.26 1822.94,1701.76 1817.5,1692C 1808.85,1691.34 1800.85,1688.67 1793.5,1684C 1776.92,1680.03 1761.59,1673.37 1747.5,1664C 1728.87,1649.04 1711.87,1632.37 1696.5,1614C 1686.65,1606.57 1676.98,1598.91 1667.5,1591C 1647.39,1580.9 1630.23,1567.07 1616,1549.5C 1610.58,1540.33 1604.92,1531.33 1599,1522.5C 1582.05,1498.55 1564.72,1474.89 1547,1451.5C 1541.1,1444.93 1534.6,1439.09 1527.5,1434C 1515.5,1421.33 1503.5,1408.67 1491.5,1396C 1482.83,1388.67 1474.17,1381.33 1465.5,1374C 1447.77,1354.27 1428.77,1335.93 1408.5,1319C 1399.56,1313.73 1390.9,1308.06 1382.5,1302C 1345.83,1268.67 1309.17,1235.33 1272.5,1202C 1262.67,1192.17 1252.83,1182.33 1243,1172.5C 1214.39,1132.54 1182.06,1095.54 1146,1061.5C 1139.28,1054.38 1133.28,1046.71 1128,1038.5C 1108.72,1066.11 1089.05,1093.45 1069,1120.5C 1056.91,1139.01 1044.58,1157.34 1032,1175.5C 1001.75,1227 970.754,1278 939,1328.5C 922.914,1346.94 909.581,1367.27 899,1389.5C 877.667,1423.5 856.333,1457.5 835,1491.5C 825.333,1504.5 815.667,1517.5 806,1530.5C 776.952,1566.55 748.286,1602.88 720,1639.5C 686.095,1680.74 648.262,1717.91 606.5,1751C 574.844,1774.17 541.51,1794.84 506.5,1813C 477.748,1826.68 447.415,1833.35 415.5,1833C 410.154,1837.54 407.987,1843.37 409,1850.5C 405.327,1857.49 399.494,1861.32 391.5,1862C 383.995,1868.49 378.495,1876.33 375,1885.5C 372.795,1888.04 370.295,1890.21 367.5,1892C 352.099,1892.95 336.765,1892.62 321.5,1891C 318.567,1888.74 316.4,1885.9 315,1882.5C 314.333,1868.5 314.333,1854.5 315,1840.5C 316.253,1835.74 318.086,1831.24 320.5,1827C 318.862,1823.56 317.362,1820.06 316,1816.5C 313.333,1805.17 310.667,1793.83 308,1782.5C 306.963,1747.79 307.63,1713.13 310,1678.5C 311.922,1667.07 315.256,1656.07 320,1645.5C 335.203,1616.75 348.536,1587.09 360,1556.5C 374.544,1525.06 391.878,1495.39 412,1467.5C 423.499,1447.83 435.499,1428.5 448,1409.5C 469.961,1383.87 492.295,1358.54 515,1333.5C 540,1303.17 565,1272.83 590,1242.5C 605.903,1227.31 619.903,1210.65 632,1192.5C 656.428,1162.65 681.095,1132.98 706,1103.5C 712.969,1097.53 719.636,1091.2 726,1084.5C 731.839,1075.49 737.172,1066.16 742,1056.5C 758.54,1034.29 778.04,1015.13 800.5,999C 812.076,987.428 822.909,975.262 833,962.5C 842.637,953.864 851.97,944.864 861,935.5C 871.638,919.86 885.138,907.36 901.5,898C 892.005,893.422 883.005,888.089 874.5,882C 865.5,873 856.5,864 847.5,855C 821.869,834.842 794.535,817.175 765.5,802C 741.979,784.821 717.645,768.821 692.5,754C 679.5,742.333 667.167,730 655.5,717C 646.013,709.424 636.346,702.091 626.5,695C 611.77,680.939 597.77,666.273 584.5,651C 565.451,640.976 545.784,632.31 525.5,625C 522.661,623.08 519.661,621.413 516.5,620C 506.167,611 495.833,602 485.5,593C 469.842,584.84 454.509,576.173 439.5,567C 416.369,548.603 392.703,530.936 368.5,514C 345.664,500.414 322.664,487.081 299.5,474C 282.62,467.485 266.287,459.818 250.5,451C 230.109,436.277 209.442,421.943 188.5,408C 172.65,395.816 158.483,381.982 146,366.5C 139.828,353.147 135.828,339.147 134,324.5C 133.333,309.167 133.333,293.833 134,278.5C 135.394,258.052 143.06,240.386 157,225.5C 166.223,215.406 176.556,206.739 188,199.5C 188.207,195.911 188.707,192.411 189.5,189C 203.833,188.333 218.167,188.333 232.5,189C 240.633,190.158 248.467,192.324 256,195.5C 266.394,193.253 276.894,191.753 287.5,191C 311.5,190.333 335.5,190.333 359.5,191C 397.407,196.295 430.74,211.295 459.5,236C 492.532,267.367 525.866,298.367 559.5,329C 594.912,365.355 629.745,402.189 664,439.5C 692.064,469.909 722.231,497.742 754.5,523C 766.844,530.504 778.844,538.504 790.5,547C 823.359,580.908 860.359,609.241 901.5,632C 915.967,643.733 930.967,654.733 946.5,665C 976.355,691.098 1006.02,717.432 1035.5,744C 1048.97,754.901 1062.97,765.067 1077.5,774.5C 1095.57,739.283 1117.73,706.95 1144,677.5C 1175.2,645.302 1206.03,612.802 1236.5,580C 1277.11,541.887 1320.11,506.887 1365.5,475C 1403.99,456.262 1439.66,433.262 1472.5,406C 1486.17,397 1499.83,388 1513.5,379C 1524.83,369.667 1536.17,360.333 1547.5,351C 1559.17,337.333 1570.83,323.667 1582.5,310C 1604.26,291.572 1626.59,273.905 1649.5,257C 1666.47,239.692 1683.81,222.692 1701.5,206C 1722.95,189.887 1744.95,174.554 1767.5,160C 1783.04,152.061 1798.71,144.395 1814.5,137C 1818.12,135.844 1821.79,134.844 1825.5,134C 1835.5,133.667 1845.5,133.333 1855.5,133C 1865.5,124.333 1875.5,115.667 1885.5,107C 1892.2,102.943 1899.2,99.7764 1906.5,97.5 Z"/></g>
</svg>
