<?xml version="1.0" encoding="UTF-8"?>
<!DOCTYPE svg PUBLIC "-//W3C//DTD SVG 1.1//EN" "http://www.w3.org/Graphics/SVG/1.1/DTD/svg11.dtd">
<svg xmlns="http://www.w3.org/2000/svg" version="1.1" width="2048px" height="2048px" style="shape-rendering:geometricPrecision; text-rendering:geometricPrecision; image-rendering:optimizeQuality; fill-rule:evenodd; clip-rule:evenodd" xmlns:xlink="http://www.w3.org/1999/xlink">
<g><path style="opacity:0.965" fill="#000000" d="M 1852.5,99.5 C 1864.78,99.5999 1872.61,105.6 1876,117.5C 1876.67,124.5 1876.67,131.5 1876,138.5C 1873.8,158.229 1871.13,177.896 1868,197.5C 1852.98,270.897 1837.65,344.23 1822,417.5C 1808.43,492.913 1794.43,568.246 1780,643.5C 1776.78,658.055 1772.78,672.388 1768,686.5C 1760.92,696.081 1752.08,697.915 1741.5,692C 1739.88,689.92 1738.38,687.754 1737,685.5C 1736.33,680.833 1736.33,676.167 1737,671.5C 1742.11,655.379 1746.45,639.045 1750,622.5C 1762.56,553.483 1775.23,484.483 1788,415.5C 1802.35,346.105 1817.02,276.772 1832,207.5C 1835.43,188.234 1838.43,168.9 1841,149.5C 1841.82,146.773 1841.65,144.106 1840.5,141.5C 1813.06,153.552 1785.4,165.052 1757.5,176C 1719.88,194.666 1683.55,215.333 1648.5,238C 1609.83,263.333 1571.17,288.667 1532.5,314C 1499.64,334.266 1465.98,353.266 1431.5,371C 1424.32,374.06 1416.99,376.727 1409.5,379C 1402.43,379.839 1395.43,379.506 1388.5,378C 1386.78,372.476 1387.62,367.31 1391,362.5C 1398.96,354.197 1407.8,347.03 1417.5,341C 1482.68,305.258 1545.68,266.258 1606.5,224C 1648.86,195.81 1692.86,170.143 1738.5,147C 1776.81,131.626 1814.81,115.793 1852.5,99.5 Z"/></g>
<g><path style="opacity:0.965" fill="#000000" d="M 153.5,106.5 C 159.509,106.334 165.509,106.501 171.5,107C 179.167,112.667 186.833,118.333 194.5,124C 204.394,130.114 214.728,135.448 225.5,140C 295.497,169.33 366.163,196.997 437.5,223C 478.843,239.008 519.176,257.341 558.5,278C 581.699,291.859 603.199,308.026 623,326.5C 629.08,344.741 622.58,353.574 603.5,353C 601.5,352 599.5,351 597.5,350C 582.982,336.142 567.315,323.809 550.5,313C 509.971,291.16 468.305,271.826 425.5,255C 341.195,224.276 258.528,191.443 177.5,156.5C 181.041,177.704 185.541,198.704 191,219.5C 207.464,275.893 224.131,332.226 241,388.5C 257.701,451.637 272.034,515.303 284,579.5C 285.865,593.204 285.865,606.87 284,620.5C 278.805,627.668 272.805,628.335 266,622.5C 260.579,612.317 256.245,601.651 253,590.5C 240.609,530.544 226.942,470.877 212,411.5C 192.045,345.014 172.712,278.347 154,211.5C 147.25,185.918 143.416,159.918 142.5,133.5C 142.397,127.089 142.897,120.756 144,114.5C 146.362,110.755 149.528,108.089 153.5,106.5 Z"/></g>
<g><path style="opacity:0.993" fill="#000000" d="M 1514.5,515.5 C 1531.17,515.333 1547.84,515.5 1564.5,516C 1569.38,517.072 1574.05,518.739 1578.5,521C 1581.23,523.626 1583.06,526.793 1584,530.5C 1587.27,571.201 1590.94,611.868 1595,652.5C 1596.02,674.832 1597.02,697.165 1598,719.5C 1601.09,745.488 1604.09,771.488 1607,797.5C 1607.85,821.162 1608.51,844.828 1609,868.5C 1610.81,883.858 1612.81,899.191 1615,914.5C 1615.96,934.171 1616.96,953.837 1618,973.5C 1625.88,1019.15 1629.88,1065.15 1630,1111.5C 1633.46,1135.41 1636.12,1159.41 1638,1183.5C 1640.78,1199.82 1643.44,1216.15 1646,1232.5C 1646.67,1254.83 1646.67,1277.17 1646,1299.5C 1642.91,1306.25 1638.08,1311.42 1631.5,1315C 1612.5,1315.67 1593.5,1315.67 1574.5,1315C 1519.04,1300.26 1462.71,1290.59 1405.5,1286C 1340.63,1279.91 1275.63,1277.91 1210.5,1280C 1109.83,1284.25 1009.16,1288.59 908.5,1293C 850.663,1297.82 792.997,1304.15 735.5,1312C 706.537,1314.3 677.537,1315.96 648.5,1317C 635.926,1318.56 623.592,1321.23 611.5,1325C 594.167,1325.67 576.833,1325.67 559.5,1325C 551.755,1322.26 546.255,1317.09 543,1309.5C 540.256,1256.43 536.589,1203.43 532,1150.5C 527.925,1073.52 524.258,996.52 521,919.5C 517.758,884.544 515.092,849.544 513,814.5C 506.698,780.446 503.031,746.113 502,711.5C 499.77,695.683 496.77,680.017 493,664.5C 492.5,652.838 492.333,641.171 492.5,629.5C 480.799,629.1 470.299,625.434 461,618.5C 460.333,601.833 460.333,585.167 461,568.5C 470.001,560.827 480.501,556.661 492.5,556C 516.122,554.078 539.789,553.244 563.5,553.5C 608.166,554.039 652.833,554.539 697.5,555C 770.149,558.999 842.816,562.666 915.5,566C 987.924,569.013 1060.26,567.68 1132.5,562C 1152.54,558.926 1172.54,555.592 1192.5,552C 1214.81,550.323 1237.14,548.989 1259.5,548C 1274.07,545.017 1288.73,542.684 1303.5,541C 1327.83,539.467 1352.16,538.134 1376.5,537C 1422.47,528.614 1468.47,521.448 1514.5,515.5 Z"/></g>
<g><path style="opacity:0.999" fill="#3f403f" d="M 1504.5,600.5 C 1505.92,599.549 1507.59,599.216 1509.5,599.5C 1509.5,602.5 1509.5,605.5 1509.5,608.5C 1508.53,606.052 1508.19,603.385 1508.5,600.5C 1507.17,600.5 1505.83,600.5 1504.5,600.5 Z"/></g>
<g><path style="opacity:1" fill="#7b7b7b" d="M 1504.5,600.5 C 1505.83,600.5 1507.17,600.5 1508.5,600.5C 1508.19,603.385 1508.53,606.052 1509.5,608.5C 1516.28,662.25 1520.45,716.25 1522,770.5C 1525,796.835 1528,823.168 1531,849.5C 1529.79,888.441 1532.46,927.108 1539,965.5C 1539.92,985.174 1540.92,1004.84 1542,1024.5C 1549.88,1070.15 1553.88,1116.15 1554,1162.5C 1557.08,1182.74 1559.25,1203.08 1560.5,1223.5C 1442.52,1205.35 1323.85,1198.52 1204.5,1203C 1088.47,1206.87 972.47,1211.53 856.5,1217C 795.346,1222.29 734.346,1228.95 673.5,1237C 662.186,1237.97 650.852,1238.47 639.5,1238.5C 632.5,1238.5 625.5,1238.5 618.5,1238.5C 618.817,1234.3 618.483,1230.3 617.5,1226.5C 615.036,1183.84 611.87,1141.17 608,1098.5C 603.925,1021.52 600.258,944.52 597,867.5C 593.714,832.881 591.048,798.214 589,763.5C 586.427,745.153 583.76,726.819 581,708.5C 579.801,692.514 578.801,676.514 578,660.5C 576.819,650.435 575.319,640.435 573.5,630.5C 606.51,630.319 639.51,630.819 672.5,632C 747.111,636.822 821.778,640.488 896.5,643C 964.837,644.678 1033.17,644.678 1101.5,643C 1149.34,642.736 1196.68,637.736 1243.5,628C 1265.81,626.334 1288.15,625.001 1310.5,624C 1325.07,621.02 1339.73,618.687 1354.5,617C 1379.16,615.489 1403.83,614.156 1428.5,613C 1453.68,607.858 1479.02,603.691 1504.5,600.5 Z"/></g>
<g><path style="opacity:1" fill="#3f403f" d="M 617.5,1226.5 C 618.483,1230.3 618.817,1234.3 618.5,1238.5C 625.5,1238.5 632.5,1238.5 639.5,1238.5C 632.352,1239.49 625.019,1239.82 617.5,1239.5C 617.5,1235.17 617.5,1230.83 617.5,1226.5 Z"/></g>
<g><path style="opacity:0.966" fill="#000000" d="M 1843.5,1247.5 C 1859.65,1246.15 1866.15,1253.49 1863,1269.5C 1860.37,1275.75 1858.04,1282.08 1856,1288.5C 1852.76,1325.21 1847.09,1361.55 1839,1397.5C 1830.65,1430.92 1821.98,1464.25 1813,1497.5C 1801.37,1549.27 1793.37,1601.61 1789,1654.5C 1786.56,1703.81 1784.56,1753.15 1783,1802.5C 1782.44,1812.21 1781.44,1821.88 1780,1831.5C 1776.75,1839.4 1770.92,1844.57 1762.5,1847C 1759.5,1847.67 1756.5,1847.67 1753.5,1847C 1745.65,1843.15 1738.32,1838.49 1731.5,1833C 1633.23,1758.69 1536.23,1682.69 1440.5,1605C 1429.67,1595.5 1419.5,1585.33 1410,1574.5C 1407,1569.17 1404,1563.83 1401,1558.5C 1400.33,1556.17 1400.33,1553.83 1401,1551.5C 1409.47,1550.64 1417.64,1552.14 1425.5,1556C 1438.7,1563.21 1451.37,1571.21 1463.5,1580C 1526.45,1629.29 1589.12,1678.95 1651.5,1729C 1683.83,1753.5 1716.17,1778 1748.5,1802.5C 1749.32,1799.89 1749.82,1797.23 1750,1794.5C 1751.37,1745.47 1753.37,1696.47 1756,1647.5C 1760.32,1594.27 1768.32,1541.6 1780,1489.5C 1789.31,1454.92 1798.31,1420.26 1807,1385.5C 1814.9,1348.84 1820.57,1311.84 1824,1274.5C 1827.12,1262.88 1833.62,1253.88 1843.5,1247.5 Z"/></g>
<g><path style="opacity:0.965" fill="#000000" d="M 392.5,1291.5 C 395.365,1291.05 397.865,1291.72 400,1293.5C 403.762,1309.02 404.428,1324.69 402,1340.5C 369.083,1496.67 343.083,1654 324,1812.5C 321.602,1825.42 318.602,1838.09 315,1850.5C 331.771,1844.37 348.271,1837.53 364.5,1830C 463.427,1782.57 557.427,1727.57 646.5,1665C 676.788,1641.85 708.122,1620.19 740.5,1600C 746.333,1596.94 752.333,1594.28 758.5,1592C 771.371,1587.19 781.205,1590.69 788,1602.5C 791.783,1619.39 784.95,1626.89 767.5,1625C 761.009,1628.08 754.675,1631.41 748.5,1635C 702.182,1667.83 655.515,1700.16 608.5,1732C 524.916,1787.46 436.916,1835.46 344.5,1876C 325.983,1884.13 306.649,1887.8 286.5,1887C 275.182,1881.2 270.682,1872.03 273,1859.5C 281.053,1844.01 286.72,1827.67 290,1810.5C 305.568,1684.19 325.234,1558.53 349,1433.5C 355.234,1400.33 362.234,1367.33 370,1334.5C 374.379,1318.4 381.879,1304.07 392.5,1291.5 Z"/></g>
</svg>
