<?xml version="1.0" encoding="UTF-8"?>
<!DOCTYPE svg PUBLIC "-//W3C//DTD SVG 1.1//EN" "http://www.w3.org/Graphics/SVG/1.1/DTD/svg11.dtd">
<svg xmlns="http://www.w3.org/2000/svg" version="1.1" width="2048px" height="2048px" style="shape-rendering:geometricPrecision; text-rendering:geometricPrecision; image-rendering:optimizeQuality; fill-rule:evenodd; clip-rule:evenodd" xmlns:xlink="http://www.w3.org/1999/xlink">
<g><path style="opacity:0.978" fill="#000000" d="M 1695.5,353.5 C 1705.08,353.182 1714.58,353.515 1724,354.5C 1724.67,355.833 1725.33,357.167 1726,358.5C 1726.67,367.5 1726.67,376.5 1726,385.5C 1719.89,400.398 1712.22,414.398 1703,427.5C 1679,461.5 1655,495.5 1631,529.5C 1619.57,544.681 1607.91,559.681 1596,574.5C 1565.96,606.868 1536.3,639.534 1507,672.5C 1489,697.833 1471,723.167 1453,748.5C 1427.95,780.571 1401.95,811.905 1375,842.5C 1371.47,846.369 1367.63,849.869 1363.5,853C 1353.4,853.949 1343.4,853.615 1333.5,852C 1329.08,849.002 1326.92,844.835 1327,839.5C 1326.33,831.5 1326.33,823.5 1327,815.5C 1327.29,813.048 1327.96,810.715 1329,808.5C 1355.8,778.711 1381.46,748.044 1406,716.5C 1425,689.833 1444,663.167 1463,636.5C 1486.96,609.534 1511.3,582.867 1536,556.5C 1546.24,545.02 1556.24,533.353 1566,521.5C 1599.82,475.185 1633.16,428.519 1666,381.5C 1674.79,370.869 1684.63,361.535 1695.5,353.5 Z"/></g>
<g><path style="opacity:0.978" fill="#000000" d="M 1198.5,642.5 C 1206.17,642.334 1213.84,642.5 1221.5,643C 1224.3,644.793 1226.8,646.96 1229,649.5C 1235.15,662.1 1238.15,675.433 1238,689.5C 1240.4,734.761 1238.06,779.761 1231,824.5C 1224.56,854.023 1218.9,883.689 1214,913.5C 1210.63,943.878 1207.79,974.212 1205.5,1004.5C 1215.45,1000.19 1225.11,995.361 1234.5,990C 1261.51,974.16 1288.84,958.827 1316.5,944C 1381.29,911.604 1445.96,879.271 1510.5,847C 1546.35,825.915 1581.35,803.581 1615.5,780C 1631,770.529 1647,761.863 1663.5,754C 1671.39,751.07 1679.56,749.904 1688,750.5C 1692.83,750.667 1697.67,750.833 1702.5,751C 1708.2,753.365 1711.7,757.531 1713,763.5C 1713.88,772.562 1713.55,781.562 1712,790.5C 1710.54,792.96 1708.71,795.127 1706.5,797C 1700.81,798.874 1695.14,800.874 1689.5,803C 1654.32,821.747 1620.65,842.747 1588.5,866C 1572.33,875.919 1556,885.585 1539.5,895C 1481.93,923.954 1424.26,952.621 1366.5,981C 1332.35,998.906 1298.68,1017.57 1265.5,1037C 1248.64,1046.6 1230.97,1054.27 1212.5,1060C 1195.34,1063.39 1178,1064.39 1160.5,1063C 1154.33,1059.5 1149.5,1054.67 1146,1048.5C 1145.33,1038.83 1145.33,1029.17 1146,1019.5C 1149.16,1007.2 1152.16,994.87 1155,982.5C 1159,947.166 1163,911.832 1167,876.5C 1170.9,855.078 1175.24,833.745 1180,812.5C 1188,772.522 1190.83,732.189 1188.5,691.5C 1188.46,680.803 1188.96,670.136 1190,659.5C 1190.73,652.715 1193.56,647.048 1198.5,642.5 Z"/></g>
<g><path style="opacity:0.978" fill="#000000" d="M 1143.5,1414.5 C 1140.57,1413.57 1138.57,1411.57 1137.5,1408.5C 1135.89,1404.39 1132.89,1401.89 1128.5,1401C 1121.78,1400.29 1115.12,1400.62 1108.5,1402C 1107.14,1402.93 1105.81,1403.77 1104.5,1404.5C 1102.25,1404.94 1100.09,1405.6 1098,1406.5C 1097.54,1405.91 1097.37,1405.24 1097.5,1404.5C 1097.28,1395.14 1097.61,1385.81 1098.5,1376.5C 1098.11,1371.95 1096.95,1367.62 1095,1363.5C 1063.66,1367.56 1032.16,1370.23 1000.5,1371.5C 995.138,1371.47 989.805,1371.81 984.5,1372.5C 953.605,1375.03 922.939,1378.36 892.5,1382.5C 890.5,1382.5 888.5,1382.5 886.5,1382.5C 885.508,1382.33 884.842,1382.66 884.5,1383.5C 883.167,1383.5 881.833,1383.5 880.5,1383.5C 849.07,1386.87 817.736,1391.04 786.5,1396C 779.174,1396.5 771.841,1396.67 764.5,1396.5C 763.379,1394.91 763.546,1393.24 765,1391.5C 768.81,1387.7 771.81,1383.36 774,1378.5C 774.667,1373.83 774.667,1369.17 774,1364.5C 773.208,1362.41 772.041,1360.58 770.5,1359C 767.104,1356.88 763.77,1355.05 760.5,1353.5C 759.855,1350.45 760.855,1348.29 763.5,1347C 852.721,1333.35 942.388,1324.01 1032.5,1319C 1051.54,1317.33 1070.54,1315.33 1089.5,1313C 1101.17,1312.33 1112.83,1312.33 1124.5,1313C 1130.25,1315.75 1135.08,1319.59 1139,1324.5C 1142.67,1332.51 1145.34,1340.84 1147,1349.5C 1149.07,1370.86 1148.73,1392.2 1146,1413.5C 1145.33,1414.25 1144.5,1414.59 1143.5,1414.5 Z"/></g>
<g><path style="opacity:0.978" fill="#000000" d="M 752.5,1354.5 C 752.67,1355.82 752.337,1356.99 751.5,1358C 726.469,1372.69 702.802,1389.36 680.5,1408C 678.866,1408.49 677.199,1408.66 675.5,1408.5C 666.833,1408.5 658.167,1408.5 649.5,1408.5C 649.429,1404.24 650.929,1400.24 654,1396.5C 654.496,1391.79 654.162,1387.13 653,1382.5C 646.349,1371.3 637.516,1369.47 626.5,1377C 612.697,1385.97 599.03,1395.14 585.5,1404.5C 584.817,1404.14 584.15,1403.8 583.5,1403.5C 573.206,1401.81 562.873,1400.31 552.5,1399C 543.489,1398.5 534.489,1398.67 525.5,1399.5C 522.732,1397.91 520.065,1396.08 517.5,1394C 513.195,1392.08 508.862,1392.08 504.5,1394C 500.236,1398.13 495.236,1400.63 489.5,1401.5C 477.154,1401.65 464.82,1401.32 452.5,1400.5C 435.516,1401.87 418.516,1403.04 401.5,1404C 376.109,1407.91 351.775,1415.24 328.5,1426C 319.506,1426.5 310.506,1426.67 301.5,1426.5C 300.411,1470.2 298.578,1513.86 296,1557.5C 293.201,1605.21 297.701,1652.21 309.5,1698.5C 355.945,1689.15 402.612,1680.98 449.5,1674C 533.133,1664.44 616.8,1655.27 700.5,1646.5C 701.633,1659.74 708.633,1664.57 721.5,1661C 728.96,1657.55 735.294,1652.55 740.5,1646C 742.441,1644.1 744.774,1643.26 747.5,1643.5C 793.186,1642.2 838.853,1640.53 884.5,1638.5C 886.308,1638.49 887.975,1638.99 889.5,1640C 895.389,1648.69 903.389,1651.02 913.5,1647C 920.214,1645.61 925.214,1641.95 928.5,1636C 929.094,1635.54 929.761,1635.37 930.5,1635.5C 952.027,1635.12 973.027,1631.62 993.5,1625C 1023.34,1621.13 1053.17,1620.63 1083,1623.5C 1084.24,1620.36 1084.91,1617.03 1085,1613.5C 1086,1599.84 1086.83,1586.17 1087.5,1572.5C 1087.86,1570.63 1088.86,1569.13 1090.5,1568C 1104.67,1560.42 1118.33,1552.09 1131.5,1543C 1133.07,1542.24 1134.4,1542.4 1135.5,1543.5C 1133.75,1578.23 1131.25,1612.89 1128,1647.5C 1126.71,1655.47 1122.87,1661.97 1116.5,1667C 1114.91,1667.86 1113.25,1668.53 1111.5,1669C 1090.61,1669.74 1069.77,1668.9 1049,1666.5C 1039.18,1667.49 1029.35,1668.32 1019.5,1669C 998.958,1675.24 977.958,1678.91 956.5,1680C 897.92,1684.57 839.253,1687.23 780.5,1688C 753.13,1689.08 725.797,1690.75 698.5,1693C 621.867,1701.96 545.2,1710.63 468.5,1719C 413.602,1727.37 358.936,1737.04 304.5,1748C 294.38,1748.99 284.38,1748.33 274.5,1746C 270.612,1743.78 267.779,1740.61 266,1736.5C 265.588,1729.48 264.921,1722.48 264,1715.5C 253.96,1674.11 249.127,1632.11 249.5,1589.5C 252.532,1520.19 255.032,1450.85 257,1381.5C 257.775,1372.74 259.108,1364.08 261,1355.5C 263.556,1347.05 269.222,1343.72 278,1345.5C 285.749,1343.88 291.416,1346.54 295,1353.5C 297.177,1361.05 298.844,1368.72 300,1376.5C 324.097,1364.25 349.597,1356.41 376.5,1353C 393.54,1352.14 410.54,1350.81 427.5,1349C 477.479,1348.26 527.479,1347.92 577.5,1348C 605.574,1353.4 633.907,1356.24 662.5,1356.5C 687.89,1355.16 713.224,1353.16 738.5,1350.5C 742.833,1350.67 747.167,1350.83 751.5,1351C 752.337,1352.01 752.67,1353.18 752.5,1354.5 Z"/></g>
<g><path style="opacity:0.932" fill="#898989" d="M 760.5,1353.5 C 763.77,1355.05 767.104,1356.88 770.5,1359C 772.041,1360.58 773.208,1362.41 774,1364.5C 774.667,1369.17 774.667,1373.83 774,1378.5C 771.81,1383.36 768.81,1387.7 765,1391.5C 763.546,1393.24 763.379,1394.91 764.5,1396.5C 756.924,1406.92 748.757,1416.92 740,1426.5C 738.299,1431.73 736.966,1437.07 736,1442.5C 727.644,1454.34 719.144,1466.01 710.5,1477.5C 740.875,1454.63 772.208,1433.13 804.5,1413C 816.435,1406.2 828.768,1400.2 841.5,1395C 851.051,1390.79 861.051,1388.79 871.5,1389C 874.692,1387.27 877.692,1385.44 880.5,1383.5C 881.833,1383.5 883.167,1383.5 884.5,1383.5C 885.492,1383.67 886.158,1383.34 886.5,1382.5C 888.5,1382.5 890.5,1382.5 892.5,1382.5C 904.111,1384.64 908.944,1391.64 907,1403.5C 891.035,1435.79 872.202,1466.29 850.5,1495C 850.833,1495.17 851.167,1495.33 851.5,1495.5C 885.689,1461.14 920.689,1427.64 956.5,1395C 966.021,1387.64 975.355,1380.14 984.5,1372.5C 989.805,1371.81 995.138,1371.47 1000.5,1371.5C 1007.6,1376.75 1010.6,1383.91 1009.5,1393C 1009.19,1399.13 1007.19,1404.63 1003.5,1409.5C 1003.83,1409.83 1004.17,1410.17 1004.5,1410.5C 1012.35,1405.91 1020.69,1402.41 1029.5,1400C 1039.47,1397.57 1046.3,1401.07 1050,1410.5C 1051.97,1417.63 1051.97,1424.63 1050,1431.5C 1064.77,1420.54 1080.61,1411.54 1097.5,1404.5C 1097.37,1405.24 1097.54,1405.91 1098,1406.5C 1100.09,1405.6 1102.25,1404.94 1104.5,1404.5C 1112.75,1402.71 1121.08,1402.21 1129.5,1403C 1132.07,1405.08 1134.73,1406.91 1137.5,1408.5C 1138.57,1411.57 1140.57,1413.57 1143.5,1414.5C 1144.17,1424.82 1142.17,1434.49 1137.5,1443.5C 1136.5,1443.41 1135.67,1443.75 1135,1444.5C 1123.77,1467.29 1110.77,1488.96 1096,1509.5C 1094.45,1512.31 1093.62,1515.31 1093.5,1518.5C 1091.93,1518.94 1090.76,1519.94 1090,1521.5C 1085.16,1528.53 1080.32,1535.53 1075.5,1542.5C 1081.47,1539.18 1087.47,1535.85 1093.5,1532.5C 1094.25,1533.57 1095.25,1533.74 1096.5,1533C 1110.78,1523.95 1124.95,1514.78 1139,1505.5C 1139.48,1504.55 1139.65,1503.55 1139.5,1502.5C 1142.96,1500.86 1146.3,1499.03 1149.5,1497C 1154.5,1496.33 1159.5,1496.33 1164.5,1497C 1169.87,1498.89 1172.2,1502.73 1171.5,1508.5C 1170.86,1514.97 1168.2,1520.47 1163.5,1525C 1154.03,1530.97 1144.7,1537.13 1135.5,1543.5C 1134.4,1542.4 1133.07,1542.24 1131.5,1543C 1118.33,1552.09 1104.67,1560.42 1090.5,1568C 1088.86,1569.13 1087.86,1570.63 1087.5,1572.5C 1068.45,1583.69 1049.45,1594.85 1030.5,1606C 1024.5,1606.67 1018.5,1606.67 1012.5,1606C 1008,1604.83 1005.17,1602 1004,1597.5C 1003.33,1593.5 1003.33,1589.5 1004,1585.5C 1028.8,1551.96 1053.47,1518.3 1078,1484.5C 1087.43,1470.23 1096.26,1455.56 1104.5,1440.5C 1106.86,1438.83 1108.52,1436.5 1109.5,1433.5C 1108.64,1432.42 1107.64,1432.25 1106.5,1433C 1105.93,1433.99 1105.27,1434.83 1104.5,1435.5C 1066.42,1457.39 1030.92,1483.05 998,1512.5C 971.68,1547.14 946.18,1582.31 921.5,1618C 929.372,1621.24 932.372,1627.08 930.5,1635.5C 929.761,1635.37 929.094,1635.54 928.5,1636C 925.214,1641.95 920.214,1645.61 913.5,1647C 903.389,1651.02 895.389,1648.69 889.5,1640C 887.975,1638.99 886.308,1638.49 884.5,1638.5C 882.883,1631.35 883.383,1624.35 886,1617.5C 892.466,1606.89 898.633,1596.22 904.5,1585.5C 893.308,1591.95 881.974,1598.12 870.5,1604C 862.652,1605.4 855.319,1604.07 848.5,1600C 842.882,1595.07 841.049,1588.9 843,1581.5C 853.199,1565.96 864.199,1550.96 876,1536.5C 876.688,1535.67 876.521,1535 875.5,1534.5C 847.32,1556.19 819.32,1578.02 791.5,1600C 776.938,1614.73 762.272,1629.23 747.5,1643.5C 744.774,1643.26 742.441,1644.1 740.5,1646C 735.294,1652.55 728.96,1657.55 721.5,1661C 708.633,1664.57 701.633,1659.74 700.5,1646.5C 700.298,1644.01 700.798,1641.68 702,1639.5C 738.156,1585.33 774.656,1531.5 811.5,1478C 810.833,1477.33 810.167,1477.33 809.5,1478C 744.544,1537.14 674.544,1589.47 599.5,1635C 581.098,1644.53 562.431,1653.53 543.5,1662C 535.327,1663.4 527.16,1663.57 519,1662.5C 515.945,1660.45 513.611,1657.78 512,1654.5C 511.611,1649.9 511.445,1645.56 511.5,1641.5C 503.145,1646.02 494.479,1649.85 485.5,1653C 479.5,1653.67 473.5,1653.67 467.5,1653C 464.438,1651.94 461.938,1650.11 460,1647.5C 458.839,1642.58 458.173,1637.58 458,1632.5C 446.438,1642.03 434.604,1651.2 422.5,1660C 403.023,1662.19 396.523,1654.02 403,1635.5C 435.616,1593.9 468.45,1552.57 501.5,1511.5C 500.448,1511.35 499.448,1511.52 498.5,1512C 466.46,1537.71 434.126,1563.04 401.5,1588C 394.816,1591.14 387.816,1592.14 380.5,1591C 373.319,1588.31 370.319,1583.15 371.5,1575.5C 362.247,1577.29 352.914,1577.79 343.5,1577C 330.44,1573.11 325.773,1564.61 329.5,1551.5C 325.679,1548.04 324.013,1543.71 324.5,1538.5C 324.507,1535.41 325.007,1532.41 326,1529.5C 336.598,1513.9 345.931,1497.57 354,1480.5C 360.532,1465.24 366.865,1449.9 373,1434.5C 374.8,1432.68 376.966,1431.52 379.5,1431C 383.871,1430.83 388.204,1430.33 392.5,1429.5C 396.616,1421.78 402.95,1418.28 411.5,1419C 412.931,1419.47 414.097,1420.3 415,1421.5C 417.443,1438.9 413.943,1455.07 404.5,1470C 404.833,1470.17 405.167,1470.33 405.5,1470.5C 432.913,1446.75 460.913,1423.75 489.5,1401.5C 495.236,1400.63 500.236,1398.13 504.5,1394C 508.862,1392.08 513.195,1392.08 517.5,1394C 520.065,1396.08 522.732,1397.91 525.5,1399.5C 527.514,1407.3 526.347,1414.63 522,1421.5C 504.049,1444.26 486.382,1467.26 469,1490.5C 467.906,1492.08 467.072,1493.74 466.5,1495.5C 505.218,1464.45 544.218,1433.78 583.5,1403.5C 584.15,1403.8 584.817,1404.14 585.5,1404.5C 599.03,1395.14 612.697,1385.97 626.5,1377C 637.516,1369.47 646.349,1371.3 653,1382.5C 654.162,1387.13 654.496,1391.79 654,1396.5C 650.929,1400.24 649.429,1404.24 649.5,1408.5C 642.431,1423.07 633.931,1436.73 624,1449.5C 623.333,1450.17 623.333,1450.83 624,1451.5C 641.145,1437.03 658.312,1422.7 675.5,1408.5C 677.199,1408.66 678.866,1408.49 680.5,1408C 702.802,1389.36 726.469,1372.69 751.5,1358C 752.337,1356.99 752.67,1355.82 752.5,1354.5C 755.096,1353.73 757.763,1353.4 760.5,1353.5 Z M 984.5,1372.5 C 975.355,1380.14 966.021,1387.64 956.5,1395C 920.689,1427.64 885.689,1461.14 851.5,1495.5C 851.167,1495.33 850.833,1495.17 850.5,1495C 872.202,1466.29 891.035,1435.79 907,1403.5C 908.944,1391.64 904.111,1384.64 892.5,1382.5C 922.939,1378.36 953.605,1375.03 984.5,1372.5 Z M 880.5,1383.5 C 877.692,1385.44 874.692,1387.27 871.5,1389C 861.051,1388.79 851.051,1390.79 841.5,1395C 828.768,1400.2 816.435,1406.2 804.5,1413C 772.208,1433.13 740.875,1454.63 710.5,1477.5C 719.144,1466.01 727.644,1454.34 736,1442.5C 736.966,1437.07 738.299,1431.73 740,1426.5C 748.757,1416.92 756.924,1406.92 764.5,1396.5C 771.841,1396.67 779.174,1396.5 786.5,1396C 817.736,1391.04 849.07,1386.87 880.5,1383.5 Z M 583.5,1403.5 C 544.218,1433.78 505.218,1464.45 466.5,1495.5C 467.072,1493.74 467.906,1492.08 469,1490.5C 486.382,1467.26 504.049,1444.26 522,1421.5C 526.347,1414.63 527.514,1407.3 525.5,1399.5C 534.489,1398.67 543.489,1398.5 552.5,1399C 562.873,1400.31 573.206,1401.81 583.5,1403.5 Z M 649.5,1408.5 C 658.167,1408.5 666.833,1408.5 675.5,1408.5C 658.312,1422.7 641.145,1437.03 624,1451.5C 623.333,1450.83 623.333,1450.17 624,1449.5C 633.931,1436.73 642.431,1423.07 649.5,1408.5 Z M 1003.5,1447.5 C 995.307,1461.2 986.474,1474.54 977,1487.5C 957.264,1505.26 936.764,1521.93 915.5,1537.5C 931.804,1516.25 947.637,1494.58 963,1472.5C 976.12,1463.55 989.62,1455.21 1003.5,1447.5 Z M 668.5,1456.5 C 668.167,1457.5 667.5,1458.17 666.5,1458.5C 666.5,1457.17 667.167,1456.5 668.5,1456.5 Z M 666.5,1458.5 C 635.122,1492.38 602.789,1525.55 569.5,1558C 556.338,1569.33 543.004,1580.49 529.5,1591.5C 525.946,1594.1 522.279,1596.44 518.5,1598.5C 527.217,1584.94 536.55,1571.77 546.5,1559C 576.475,1533.36 606.475,1507.7 636.5,1482C 646.394,1473.93 656.394,1466.09 666.5,1458.5 Z M 710.5,1477.5 C 710.217,1478.29 709.717,1478.96 709,1479.5C 708.472,1478.18 708.972,1477.52 710.5,1477.5 Z M 743.5,1491.5 C 746.001,1491.51 746.168,1492.18 744,1493.5C 743.536,1492.91 743.369,1492.24 743.5,1491.5 Z M 426.5,1493.5 C 427.773,1494.08 427.773,1494.74 426.5,1495.5C 425.537,1495.03 425.537,1494.36 426.5,1493.5 Z M 740.5,1495.5 C 740.167,1496.5 739.5,1497.17 738.5,1497.5C 738.5,1496.17 739.167,1495.5 740.5,1495.5 Z M 423.5,1497.5 C 415.546,1510.64 406.546,1523.14 396.5,1535C 386.618,1540.18 376.285,1543.52 365.5,1545C 366.956,1543.26 368.289,1541.42 369.5,1539.5C 387.799,1525.87 405.799,1511.87 423.5,1497.5 Z M 735.5,1499.5 C 734.415,1501.59 732.749,1502.92 730.5,1503.5C 731.585,1501.41 733.251,1500.08 735.5,1499.5 Z M 730.5,1503.5 C 729.415,1505.59 727.749,1506.92 725.5,1507.5C 726.585,1505.41 728.251,1504.08 730.5,1503.5 Z M 725.5,1507.5 C 724.415,1509.59 722.749,1510.92 720.5,1511.5C 721.353,1509.11 723.019,1507.77 725.5,1507.5 Z M 503.5,1509.5 C 503.167,1510.5 502.5,1511.17 501.5,1511.5C 501.5,1510.17 502.167,1509.5 503.5,1509.5 Z M 720.5,1511.5 C 719.421,1513.54 717.754,1514.88 715.5,1515.5C 716.539,1513.47 718.205,1512.14 720.5,1511.5 Z M 715.5,1515.5 C 714.738,1517.26 713.404,1518.26 711.5,1518.5C 712.262,1516.74 713.596,1515.74 715.5,1515.5 Z M 711.5,1518.5 C 710.415,1520.59 708.749,1521.92 706.5,1522.5C 707.585,1520.41 709.251,1519.08 711.5,1518.5 Z M 1093.5,1518.5 C 1093.5,1523.17 1093.5,1527.83 1093.5,1532.5C 1087.47,1535.85 1081.47,1539.18 1075.5,1542.5C 1080.32,1535.53 1085.16,1528.53 1090,1521.5C 1090.76,1519.94 1091.93,1518.94 1093.5,1518.5 Z M 706.5,1522.5 C 705.738,1524.26 704.404,1525.26 702.5,1525.5C 703.262,1523.74 704.596,1522.74 706.5,1522.5 Z M 701.5,1526.5 C 700.421,1528.54 698.754,1529.88 696.5,1530.5C 697.539,1528.47 699.205,1527.14 701.5,1526.5 Z M 696.5,1530.5 C 696.027,1531.91 695.027,1532.57 693.5,1532.5C 693.973,1531.09 694.973,1530.43 696.5,1530.5 Z M 904.5,1585.5 C 898.633,1596.22 892.466,1606.89 886,1617.5C 883.383,1624.35 882.883,1631.35 884.5,1638.5C 838.853,1640.53 793.186,1642.2 747.5,1643.5C 762.272,1629.23 776.938,1614.73 791.5,1600C 819.32,1578.02 847.32,1556.19 875.5,1534.5C 876.521,1535 876.688,1535.67 876,1536.5C 864.199,1550.96 853.199,1565.96 843,1581.5C 841.049,1588.9 842.882,1595.07 848.5,1600C 855.319,1604.07 862.652,1605.4 870.5,1604C 881.974,1598.12 893.308,1591.95 904.5,1585.5 Z"/></g>
<g><path style="opacity:1" fill="#767676" d="M 1137.5,1408.5 C 1134.73,1406.91 1132.07,1405.08 1129.5,1403C 1121.08,1402.21 1112.75,1402.71 1104.5,1404.5C 1105.81,1403.77 1107.14,1402.93 1108.5,1402C 1115.12,1400.62 1121.78,1400.29 1128.5,1401C 1132.89,1401.89 1135.89,1404.39 1137.5,1408.5 Z"/></g>
<g><path style="opacity:0.523" fill="#101010" d="M 1104.5,1440.5 C 1104.5,1438.83 1104.5,1437.17 1104.5,1435.5C 1105.27,1434.83 1105.93,1433.99 1106.5,1433C 1107.64,1432.25 1108.64,1432.42 1109.5,1433.5C 1108.52,1436.5 1106.86,1438.83 1104.5,1440.5 Z"/></g>
<g><path style="opacity:0.976" fill="#020202" d="M 1137.5,1443.5 C 1138.82,1443.33 1139.99,1443.66 1141,1444.5C 1141.13,1463.84 1140.63,1483.18 1139.5,1502.5C 1139.65,1503.55 1139.48,1504.55 1139,1505.5C 1124.95,1514.78 1110.78,1523.95 1096.5,1533C 1095.25,1533.74 1094.25,1533.57 1093.5,1532.5C 1093.5,1527.83 1093.5,1523.17 1093.5,1518.5C 1093.62,1515.31 1094.45,1512.31 1096,1509.5C 1110.77,1488.96 1123.77,1467.29 1135,1444.5C 1135.67,1443.75 1136.5,1443.41 1137.5,1443.5 Z"/></g>
</svg>
