<?xml version="1.0" encoding="UTF-8"?>
<!DOCTYPE svg PUBLIC "-//W3C//DTD SVG 1.1//EN" "http://www.w3.org/Graphics/SVG/1.1/DTD/svg11.dtd">
<svg xmlns="http://www.w3.org/2000/svg" version="1.1" width="1080px" height="1080px" style="shape-rendering:geometricPrecision; text-rendering:geometricPrecision; image-rendering:optimizeQuality; fill-rule:evenodd; clip-rule:evenodd" xmlns:xlink="http://www.w3.org/1999/xlink">
<g><path style="opacity:0.999" fill="#0fd92d" d="M 217.5,-0.5 C 432.167,-0.5 646.833,-0.5 861.5,-0.5C 950.766,11.0289 1015.93,56.6956 1057,136.5C 1068.92,162.4 1076.42,189.4 1079.5,217.5C 1079.5,432.167 1079.5,646.833 1079.5,861.5C 1067.97,950.766 1022.3,1015.93 942.5,1057C 916.6,1068.92 889.6,1076.42 861.5,1079.5C 646.833,1079.5 432.167,1079.5 217.5,1079.5C 128.234,1067.97 63.0669,1022.3 22,942.5C 10.0826,916.6 2.58256,889.6 -0.5,861.5C -0.5,646.833 -0.5,432.167 -0.5,217.5C 11.0289,128.234 56.6956,63.0669 136.5,22C 162.4,10.0826 189.4,2.58256 217.5,-0.5 Z"/></g>
<g><path style="opacity:1" fill="#17da33" d="M 255.5,134.5 C 443.836,134.727 632.17,135.56 820.5,137C 832.849,137.844 845.182,138.844 857.5,140C 882.223,145.057 902.723,157.224 919,176.5C 936.085,199.122 944.418,224.788 944,253.5C 944.835,444.506 944.169,635.506 942,826.5C 942.503,880.934 917.67,918.101 867.5,938C 856.331,940.879 844.998,942.879 833.5,944C 647.162,944.6 460.828,943.934 274.5,942C 257.139,941.714 239.806,940.881 222.5,939.5C 197.95,934.457 177.45,922.457 161,903.5C 155.137,895.098 149.804,886.431 145,877.5C 142.883,870.303 140.549,863.303 138,856.5C 137.406,850.825 136.74,845.158 136,839.5C 135.128,654.83 135.461,470.164 137,285.5C 137.226,262.799 138.226,240.132 140,217.5C 153.347,174.157 182.18,147.324 226.5,137C 236.338,136.368 246.005,135.535 255.5,134.5 Z"/></g>
<g><path style="opacity:1" fill="#1ddb39" d="M 822.5,141.5 C 821.883,141.611 821.383,141.944 821,142.5C 801.333,141.833 781.667,141.167 762,140.5C 760.093,140.421 758.093,140.754 756,141.5C 587.064,139.752 417.564,139.252 247.5,140C 238.35,140.856 229.35,142.023 220.5,143.5C 221.23,141.955 222.563,141.122 224.5,141C 231.125,139.955 237.792,139.289 244.5,139C 374.311,138.584 502.144,138.417 628,138.5C 673.333,139.167 718.667,139.833 764,140.5C 766.562,139.913 769.228,139.579 772,139.5C 788.931,140.16 805.765,140.827 822.5,141.5 Z"/></g>
<g><path style="opacity:1" fill="#22db3d" d="M 822.5,141.5 C 840.654,140.645 858.321,142.811 875.5,148C 877.747,149.277 879.747,150.777 881.5,152.5C 872.011,149.434 862.345,146.934 852.5,145C 833.519,143.884 814.519,143.217 795.5,143C 610.336,141.316 425.336,141.15 240.5,142.5C 240.5,142.833 240.5,143.167 240.5,143.5C 235.566,143.229 230.9,143.896 226.5,145.5C 203.903,151.312 184.736,162.645 169,179.5C 166.19,182.464 164.024,185.798 162.5,189.5C 158.775,194.597 155.275,199.93 152,205.5C 148.236,214.079 146.403,223.079 146.5,232.5C 144.637,257.308 143.47,282.308 143,307.5C 142.5,363.166 142.333,418.832 142.5,474.5C 141.334,596.333 141.167,718.333 142,840.5C 143.672,850.554 145.505,860.554 147.5,870.5C 142.977,861.08 140.31,851.08 139.5,840.5C 139.574,797.811 139.907,755.977 140.5,715C 139.74,713.559 139.074,712.059 138.5,710.5C 138.792,699.458 138.792,688.292 138.5,677C 138.994,542.192 139.994,407.359 141.5,272.5C 141.137,271.817 140.804,271.15 140.5,270.5C 140.88,251.237 142.38,231.903 145,212.5C 155.868,181.97 176.035,160.136 205.5,147C 210.302,144.897 215.302,143.731 220.5,143.5C 229.35,142.023 238.35,140.856 247.5,140C 417.564,139.252 587.064,139.752 756,141.5C 758.093,140.754 760.093,140.421 762,140.5C 781.667,141.167 801.333,141.833 821,142.5C 821.383,141.944 821.883,141.611 822.5,141.5 Z"/></g>
<g><path style="opacity:1" fill="#2fdd49" d="M 240.5,143.5 C 240.5,143.167 240.5,142.833 240.5,142.5C 392.841,142.185 545.174,142.518 697.5,143.5C 696.167,144.167 694.833,144.833 693.5,145.5C 682.248,144.523 670.914,144.189 659.5,144.5C 520.001,143.5 380.334,143.167 240.5,143.5 Z"/></g>
<g><path style="opacity:1" fill="#29dd43" d="M 240.5,142.5 C 425.336,141.15 610.336,141.316 795.5,143C 814.519,143.217 833.519,143.884 852.5,145C 862.345,146.934 872.011,149.434 881.5,152.5C 883.216,154.025 885.216,155.025 887.5,155.5C 890.833,159.167 894.167,162.833 897.5,166.5C 896.833,166.5 896.167,166.5 895.5,166.5C 893.704,164.1 891.37,162.433 888.5,161.5C 877.573,153.461 865.24,148.628 851.5,147C 800.187,145.035 748.854,143.868 697.5,143.5C 545.174,142.518 392.841,142.185 240.5,142.5 Z"/></g>
<g><path style="opacity:1" fill="#35de4e" d="M 240.5,143.5 C 380.334,143.167 520.001,143.5 659.5,144.5C 520.666,144.167 381.999,144.5 243.5,145.5C 243.167,145.5 242.833,145.5 242.5,145.5C 237.416,145.369 232.082,145.369 226.5,145.5C 230.9,143.896 235.566,143.229 240.5,143.5 Z"/></g>
<g><path style="opacity:1" fill="#3de055" d="M 243.5,145.5 C 381.999,144.5 520.666,144.167 659.5,144.5C 670.914,144.189 682.248,144.523 693.5,145.5C 744.858,145.081 796.191,145.914 847.5,148C 862.248,149.416 875.915,153.916 888.5,161.5C 891.37,162.433 893.704,164.1 895.5,166.5C 899.458,172.292 904.291,177.292 910,181.5C 910.483,182.448 910.649,183.448 910.5,184.5C 906.48,180.811 902.48,177.145 898.5,173.5C 896.496,168.697 892.83,166.03 887.5,165.5C 887.092,164.357 886.425,163.357 885.5,162.5C 878.095,158.623 870.429,155.623 862.5,153.5C 862.209,152.351 861.376,151.684 860,151.5C 846.6,149.232 833.1,148.065 819.5,148C 775.499,147.522 731.499,147.022 687.5,146.5C 539.668,145.5 391.668,145.167 243.5,145.5 Z"/></g>
<g><path style="opacity:1" fill="#35df4e" d="M 697.5,143.5 C 748.854,143.868 800.187,145.035 851.5,147C 865.24,148.628 877.573,153.461 888.5,161.5C 875.915,153.916 862.248,149.416 847.5,148C 796.191,145.914 744.858,145.081 693.5,145.5C 694.833,144.833 696.167,144.167 697.5,143.5 Z"/></g>
<g><path style="opacity:1" fill="#45e15c" d="M 242.5,145.5 C 242.833,145.5 243.167,145.5 243.5,145.5C 391.668,145.167 539.668,145.5 687.5,146.5C 542.999,146.167 398.666,146.5 254.5,147.5C 245.452,147.644 236.452,148.311 227.5,149.5C 227.611,148.883 227.944,148.383 228.5,148C 233.322,147.782 237.988,146.949 242.5,145.5 Z"/></g>
<g><path style="opacity:1" fill="#4ee264" d="M 254.5,147.5 C 398.666,146.5 542.999,146.167 687.5,146.5C 731.499,147.022 775.499,147.522 819.5,148C 833.1,148.065 846.6,149.232 860,151.5C 861.376,151.684 862.209,152.351 862.5,153.5C 849.282,151.108 835.949,150.108 822.5,150.5C 811.341,149.669 800.007,149.169 788.5,149C 610.502,147.801 432.502,147.301 254.5,147.5 Z"/></g>
<g><path style="opacity:1" fill="#58e46d" d="M 254.5,147.5 C 432.502,147.301 610.502,147.801 788.5,149C 800.007,149.169 811.341,149.669 822.5,150.5C 630.67,148.579 439.004,148.246 247.5,149.5C 234.738,149.801 222.405,152.134 210.5,156.5C 210.47,155.503 210.97,154.836 212,154.5C 216.98,152.897 221.813,151.23 226.5,149.5C 226.833,149.5 227.167,149.5 227.5,149.5C 236.452,148.311 245.452,147.644 254.5,147.5 Z"/></g>
<g><path style="opacity:1" fill="#6be77e" d="M 247.5,149.5 C 419.003,149.178 590.336,149.844 761.5,151.5C 731.5,151.5 701.5,151.5 671.5,151.5C 530.501,150.521 389.501,150.355 248.5,151C 244.644,151.177 240.977,151.677 237.5,152.5C 237.167,152.5 236.833,152.5 236.5,152.5C 223.725,152.247 212.391,155.914 202.5,163.5C 201.5,164.167 200.5,164.833 199.5,165.5C 196.053,166.647 192.72,167.98 189.5,169.5C 189.833,168.833 190.167,168.167 190.5,167.5C 196.62,164.94 202.287,161.606 207.5,157.5C 208.209,156.596 209.209,156.263 210.5,156.5C 222.405,152.134 234.738,149.801 247.5,149.5 Z"/></g>
<g><path style="opacity:1" fill="#4ae261" d="M 226.5,149.5 C 221.813,151.23 216.98,152.897 212,154.5C 210.97,154.836 210.47,155.503 210.5,156.5C 209.209,156.263 208.209,156.596 207.5,157.5C 206.167,157.5 204.833,157.5 203.5,157.5C 210.497,153.277 218.164,150.61 226.5,149.5 Z"/></g>
<g><path style="opacity:1" fill="#78e989" d="M 671.5,151.5 C 671.5,151.833 671.5,152.167 671.5,152.5C 526.833,152.5 382.167,152.5 237.5,152.5C 240.977,151.677 244.644,151.177 248.5,151C 389.501,150.355 530.501,150.521 671.5,151.5 Z"/></g>
<g><path style="opacity:1" fill="#63e676" d="M 247.5,149.5 C 439.004,148.246 630.67,148.579 822.5,150.5C 826.167,151.167 829.833,151.833 833.5,152.5C 829.167,152.5 824.833,152.5 820.5,152.5C 800.853,151.576 781.187,151.243 761.5,151.5C 590.336,149.844 419.003,149.178 247.5,149.5 Z"/></g>
<g><path style="opacity:1" fill="#59e46e" d="M 822.5,150.5 C 835.949,150.108 849.282,151.108 862.5,153.5C 870.429,155.623 878.095,158.623 885.5,162.5C 886.425,163.357 887.092,164.357 887.5,165.5C 884.033,165.554 881.366,164.054 879.5,161C 864.777,154.987 849.443,152.154 833.5,152.5C 829.833,151.833 826.167,151.167 822.5,150.5 Z"/></g>
<g><path style="opacity:1" fill="#76e987" d="M 671.5,152.5 C 671.5,152.167 671.5,151.833 671.5,151.5C 701.5,151.5 731.5,151.5 761.5,151.5C 781.187,151.243 800.853,151.576 820.5,152.5C 830.68,153.315 841.013,154.149 851.5,155C 856.507,155.289 861.174,156.456 865.5,158.5C 859.609,157.044 853.609,156.377 847.5,156.5C 846.833,156.5 846.167,156.5 845.5,156.5C 832.703,154.931 819.703,154.098 806.5,154C 761.499,153.477 716.499,152.977 671.5,152.5 Z"/></g>
<g><path style="opacity:1" fill="#8fed9d" d="M 701.5,154.5 C 681.5,154.5 661.5,154.5 641.5,154.5C 509.5,154.333 377.5,154.5 245.5,155C 240.453,155.338 235.453,156.005 230.5,157C 229.944,157.383 229.611,157.883 229.5,158.5C 225.751,158.751 222.085,159.417 218.5,160.5C 225.841,156.521 233.841,154.354 242.5,154C 395.667,153.167 548.667,153.334 701.5,154.5 Z"/></g>
<g><path style="opacity:1" fill="#99eea6" d="M 641.5,154.5 C 641.5,154.833 641.5,155.167 641.5,155.5C 511.999,155.167 382.666,155.5 253.5,156.5C 249.4,156.237 245.4,156.57 241.5,157.5C 237.466,157.505 233.466,157.838 229.5,158.5C 229.611,157.883 229.944,157.383 230.5,157C 235.453,156.005 240.453,155.338 245.5,155C 377.5,154.5 509.5,154.333 641.5,154.5 Z"/></g>
<g><path style="opacity:1" fill="#93eea1" d="M 641.5,155.5 C 641.5,155.167 641.5,154.833 641.5,154.5C 661.5,154.5 681.5,154.5 701.5,154.5C 749.517,154.199 797.517,154.866 845.5,156.5C 846.167,156.5 846.833,156.5 847.5,156.5C 852.765,157.295 857.765,158.962 862.5,161.5C 854.574,159.939 846.574,158.939 838.5,158.5C 824.184,157.653 809.851,157.32 795.5,157.5C 744.338,156.235 693.005,155.568 641.5,155.5 Z"/></g>
<g><path style="opacity:1" fill="#6ae77c" d="M 820.5,152.5 C 824.833,152.5 829.167,152.5 833.5,152.5C 849.443,152.154 864.777,154.987 879.5,161C 881.366,164.054 884.033,165.554 887.5,165.5C 887.5,166.167 887.5,166.833 887.5,167.5C 884.645,166.883 881.978,165.883 879.5,164.5C 874.862,162.292 870.195,160.292 865.5,158.5C 861.174,156.456 856.507,155.289 851.5,155C 841.013,154.149 830.68,153.315 820.5,152.5 Z"/></g>
<g><path style="opacity:1" fill="#75e986" d="M 236.5,152.5 C 230.765,154.553 224.765,156.053 218.5,157C 213.039,158.989 207.706,161.155 202.5,163.5C 212.391,155.914 223.725,152.247 236.5,152.5 Z"/></g>
<g><path style="opacity:1" fill="#a3f0ae" d="M 253.5,156.5 C 382.666,155.5 511.999,155.167 641.5,155.5C 693.005,155.568 744.338,156.235 795.5,157.5C 783.5,157.5 771.5,157.5 759.5,157.5C 590.834,156.852 422.167,156.519 253.5,156.5 Z"/></g>
<g><path style="opacity:1" fill="#aef2b8" d="M 253.5,156.5 C 422.167,156.519 590.834,156.852 759.5,157.5C 778.996,158.332 798.662,158.832 818.5,159C 820.708,159.191 822.708,159.691 824.5,160.5C 630.174,158.636 435.84,157.97 241.5,158.5C 241.5,158.167 241.5,157.833 241.5,157.5C 245.4,156.57 249.4,156.237 253.5,156.5 Z"/></g>
<g><path style="opacity:1" fill="#3adf53" d="M 242.5,145.5 C 237.988,146.949 233.322,147.782 228.5,148C 227.944,148.383 227.611,148.883 227.5,149.5C 227.167,149.5 226.833,149.5 226.5,149.5C 218.164,150.61 210.497,153.277 203.5,157.5C 185.836,163.496 172.836,174.83 164.5,191.5C 157.463,200.935 153.13,211.602 151.5,223.5C 149.997,227.024 148.997,230.69 148.5,234.5C 148.381,226.973 149.547,219.64 152,212.5C 154.981,204.543 158.481,196.876 162.5,189.5C 164.024,185.798 166.19,182.464 169,179.5C 184.736,162.645 203.903,151.312 226.5,145.5C 232.082,145.369 237.416,145.369 242.5,145.5 Z"/></g>
<g><path style="opacity:1" fill="#b6f3bf" d="M 241.5,158.5 C 435.84,157.97 630.174,158.636 824.5,160.5C 830.167,160.5 835.833,160.5 841.5,160.5C 847.923,160.632 854.257,161.465 860.5,163C 868.938,166.054 876.938,169.887 884.5,174.5C 888.893,179.24 893.726,183.573 899,187.5C 901.696,191.68 904.53,195.68 907.5,199.5C 911.423,208.001 914.757,216.668 917.5,225.5C 915.5,222.833 913.5,220.167 911.5,217.5C 911.5,216.833 911.5,216.167 911.5,215.5C 909.69,211.291 908.023,206.958 906.5,202.5C 904.815,201.047 903.149,199.714 901.5,198.5C 900.833,197.5 900.167,196.5 899.5,195.5C 899.282,190.95 896.949,188.284 892.5,187.5C 891.666,182.996 889,180.663 884.5,180.5C 882.817,175.818 879.484,173.485 874.5,173.5C 873.434,171.394 871.767,169.894 869.5,169C 864.32,167.497 859.32,165.497 854.5,163C 719.517,160.159 584.517,158.992 449.5,159.5C 381.167,159.667 312.833,159.833 244.5,160C 239.552,161.05 234.552,161.55 229.5,161.5C 233.539,160.684 237.539,159.684 241.5,158.5 Z"/></g>
<g><path style="opacity:1" fill="#a5f0b0" d="M 759.5,157.5 C 771.5,157.5 783.5,157.5 795.5,157.5C 809.851,157.32 824.184,157.653 838.5,158.5C 839.5,159.167 840.5,159.833 841.5,160.5C 835.833,160.5 830.167,160.5 824.5,160.5C 822.708,159.691 820.708,159.191 818.5,159C 798.662,158.832 778.996,158.332 759.5,157.5 Z"/></g>
<g><path style="opacity:1" fill="#86eb95" d="M 236.5,152.5 C 236.833,152.5 237.167,152.5 237.5,152.5C 382.167,152.5 526.833,152.5 671.5,152.5C 716.499,152.977 761.499,153.477 806.5,154C 819.703,154.098 832.703,154.931 845.5,156.5C 797.517,154.866 749.517,154.199 701.5,154.5C 548.667,153.334 395.667,153.167 242.5,154C 233.841,154.354 225.841,156.521 218.5,160.5C 216.266,160.38 214.099,160.713 212,161.5C 204.445,166.365 196.612,170.865 188.5,175C 186.666,177.663 184.666,180.163 182.5,182.5C 178.764,183.905 176.431,186.571 175.5,190.5C 167.493,199.512 161.826,209.845 158.5,221.5C 158.508,218.455 158.841,215.455 159.5,212.5C 165.199,200.617 172.365,189.617 181,179.5C 187.173,174.741 193.34,170.074 199.5,165.5C 200.5,164.833 201.5,164.167 202.5,163.5C 207.706,161.155 213.039,158.989 218.5,157C 224.765,156.053 230.765,154.553 236.5,152.5 Z"/></g>
<g><path style="opacity:1" fill="#a1f0ac" d="M 838.5,158.5 C 846.574,158.939 854.574,159.939 862.5,161.5C 866.811,162.649 871.144,163.816 875.5,165C 876.384,166.72 877.717,167.886 879.5,168.5C 881.167,170.5 882.833,172.5 884.5,174.5C 876.938,169.887 868.938,166.054 860.5,163C 854.257,161.465 847.923,160.632 841.5,160.5C 840.5,159.833 839.5,159.167 838.5,158.5 Z"/></g>
<g><path style="opacity:1" fill="#c3f5ca" d="M 874.5,173.5 C 869.573,171.199 864.573,169.199 859.5,167.5C 859.167,167.5 858.833,167.5 858.5,167.5C 858.158,166.662 857.492,166.328 856.5,166.5C 855.391,165.71 854.058,165.21 852.5,165C 845.508,164.5 838.508,164.334 831.5,164.5C 780.678,162.753 729.678,162.087 678.5,162.5C 532.5,162.333 386.5,162.5 240.5,163C 236.5,163.333 232.5,163.667 228.5,164C 224.244,165.631 219.91,166.964 215.5,168C 213.416,168.697 211.749,169.864 210.5,171.5C 208.5,172.167 206.5,172.833 204.5,173.5C 205.211,171.97 206.211,170.637 207.5,169.5C 212.491,168.003 217.158,165.837 221.5,163C 224.063,161.921 226.729,161.421 229.5,161.5C 234.552,161.55 239.552,161.05 244.5,160C 312.833,159.833 381.167,159.667 449.5,159.5C 584.517,158.992 719.517,160.159 854.5,163C 859.32,165.497 864.32,167.497 869.5,169C 871.767,169.894 873.434,171.394 874.5,173.5 Z"/></g>
<g><path style="opacity:1" fill="#b0f2ba" d="M 241.5,158.5 C 237.539,159.684 233.539,160.684 229.5,161.5C 226.729,161.421 224.063,161.921 221.5,163C 217.158,165.837 212.491,168.003 207.5,169.5C 207.369,168.624 207.702,167.957 208.5,167.5C 218.656,161.544 229.656,158.544 241.5,158.5 Z"/></g>
<g><path style="opacity:1" fill="#eefcf0" d="M 678.5,162.5 C 715.167,163.167 751.833,163.833 788.5,164.5C 782.833,164.5 777.167,164.5 771.5,164.5C 595.167,163.602 418.834,163.435 242.5,164C 237.148,164.521 231.815,165.187 226.5,166C 221.299,168.123 215.966,169.956 210.5,171.5C 211.749,169.864 213.416,168.697 215.5,168C 219.91,166.964 224.244,165.631 228.5,164C 232.5,163.667 236.5,163.333 240.5,163C 386.5,162.5 532.5,162.333 678.5,162.5 Z"/></g>
<g><path style="opacity:1" fill="#d3f8d8" d="M 678.5,162.5 C 729.678,162.087 780.678,162.753 831.5,164.5C 817.167,164.5 802.833,164.5 788.5,164.5C 751.833,163.833 715.167,163.167 678.5,162.5 Z"/></g>
<g><path style="opacity:1" fill="#58e46d" d="M 203.5,157.5 C 204.833,157.5 206.167,157.5 207.5,157.5C 202.287,161.606 196.62,164.94 190.5,167.5C 190.414,166.504 190.748,165.671 191.5,165C 194.711,163.148 198.044,161.481 201.5,160C 202.381,159.292 203.047,158.458 203.5,157.5 Z"/></g>
<g><path style="opacity:1" fill="#fefefe" d="M 771.5,164.5 C 800.349,165.282 829.349,166.282 858.5,167.5C 858.833,167.5 859.167,167.5 859.5,167.5C 865.151,170.992 871.151,173.992 877.5,176.5C 879.85,177.861 882.184,179.194 884.5,180.5C 886.751,183.295 889.418,185.628 892.5,187.5C 892.833,188.167 893.167,188.833 893.5,189.5C 894.08,191.749 895.413,193.415 897.5,194.5C 898.08,196.749 899.413,198.415 901.5,199.5C 904.669,203.833 907.336,208.5 909.5,213.5C 909.723,217.162 910.723,220.495 912.5,223.5C 913.345,224.671 914.011,226.005 914.5,227.5C 914.753,231.04 915.419,234.373 916.5,237.5C 916.5,238.167 916.5,238.833 916.5,239.5C 916.667,368.167 916.5,496.834 916,625.5C 915.826,695.522 914.993,765.522 913.5,835.5C 912.53,842.659 911.864,849.993 911.5,857.5C 911.5,858.5 911.5,859.5 911.5,860.5C 909.166,862.176 908.166,864.509 908.5,867.5C 905.236,874.283 901.236,880.617 896.5,886.5C 892.833,889.5 889.5,892.833 886.5,896.5C 883.545,898.122 880.878,900.122 878.5,902.5C 877.833,902.833 877.167,903.167 876.5,903.5C 871.89,905.473 867.557,907.806 863.5,910.5C 856.621,912.443 849.621,913.943 842.5,915C 676.167,915.5 509.834,915.667 343.5,915.5C 320.831,915.275 298.165,914.941 275.5,914.5C 261.359,913.035 247.025,912.368 232.5,912.5C 228.766,912.677 225.099,912.344 221.5,911.5C 219.898,909.926 217.898,909.259 215.5,909.5C 213.055,908.688 210.722,907.688 208.5,906.5C 208.027,905.094 207.027,904.427 205.5,904.5C 202.91,903.872 200.577,902.705 198.5,901C 193.665,896.997 188.998,892.83 184.5,888.5C 183.581,885.911 181.914,883.911 179.5,882.5C 176.519,877.692 173.853,872.692 171.5,867.5C 170.404,862.868 168.737,858.534 166.5,854.5C 166.502,849.5 165.502,844.833 163.5,840.5C 163.5,838.5 163.5,836.5 163.5,834.5C 163.983,644.832 164.65,455.166 165.5,265.5C 165.5,261.5 165.5,257.5 165.5,253.5C 166.656,244.348 167.49,235.015 168,225.5C 168.871,220.397 170.038,215.397 171.5,210.5C 171.328,209.508 171.662,208.842 172.5,208.5C 173.906,208.027 174.573,207.027 174.5,205.5C 174.66,203.847 175.326,202.514 176.5,201.5C 178.104,200.713 178.771,199.38 178.5,197.5C 179.167,197.167 179.833,196.833 180.5,196.5C 185.5,190.833 190.833,185.5 196.5,180.5C 198.792,177.695 201.459,175.362 204.5,173.5C 206.5,172.833 208.5,172.167 210.5,171.5C 215.966,169.956 221.299,168.123 226.5,166C 231.815,165.187 237.148,164.521 242.5,164C 418.834,163.435 595.167,163.602 771.5,164.5 Z"/></g>
<g><path style="opacity:1" fill="#85eb94" d="M 847.5,156.5 C 853.609,156.377 859.609,157.044 865.5,158.5C 870.195,160.292 874.862,162.292 879.5,164.5C 880.167,165.833 880.833,167.167 881.5,168.5C 880.833,168.5 880.167,168.5 879.5,168.5C 877.717,167.886 876.384,166.72 875.5,165C 871.144,163.816 866.811,162.649 862.5,161.5C 857.765,158.962 852.765,157.295 847.5,156.5 Z"/></g>
<g><path style="opacity:1" fill="#a8f1b3" d="M 241.5,157.5 C 241.5,157.833 241.5,158.167 241.5,158.5C 229.656,158.544 218.656,161.544 208.5,167.5C 207.702,167.957 207.369,168.624 207.5,169.5C 204.828,170.501 202.162,171.501 199.5,172.5C 205.295,167.717 211.628,163.717 218.5,160.5C 222.085,159.417 225.751,158.751 229.5,158.5C 233.466,157.838 237.466,157.505 241.5,157.5 Z"/></g>
<g><path style="opacity:1" fill="#f1fcf3" d="M 771.5,164.5 C 777.167,164.5 782.833,164.5 788.5,164.5C 802.833,164.5 817.167,164.5 831.5,164.5C 839.669,165.373 848.003,166.039 856.5,166.5C 857.492,166.328 858.158,166.662 858.5,167.5C 829.349,166.282 800.349,165.282 771.5,164.5 Z"/></g>
<g><path style="opacity:1" fill="#d1f7d7" d="M 831.5,164.5 C 838.508,164.334 845.508,164.5 852.5,165C 854.058,165.21 855.391,165.71 856.5,166.5C 848.003,166.039 839.669,165.373 831.5,164.5 Z"/></g>
<g><path style="opacity:1" fill="#76e987" d="M 879.5,164.5 C 881.978,165.883 884.645,166.883 887.5,167.5C 887.5,168.167 887.5,168.833 887.5,169.5C 885.435,169.483 883.435,169.15 881.5,168.5C 880.833,167.167 880.167,165.833 879.5,164.5 Z"/></g>
<g><path style="opacity:1" fill="#4ee364" d="M 887.5,165.5 C 892.83,166.03 896.496,168.697 898.5,173.5C 894.993,171.246 891.327,169.246 887.5,167.5C 887.5,166.833 887.5,166.167 887.5,165.5 Z"/></g>
<g><path style="opacity:1" fill="#effcf1" d="M 859.5,167.5 C 864.573,169.199 869.573,171.199 874.5,173.5C 875.694,174.272 876.694,175.272 877.5,176.5C 871.151,173.992 865.151,170.992 859.5,167.5 Z"/></g>
<g><path style="opacity:1" fill="#45e15c" d="M 203.5,157.5 C 203.047,158.458 202.381,159.292 201.5,160C 198.044,161.481 194.711,163.148 191.5,165C 190.748,165.671 190.414,166.504 190.5,167.5C 186.798,169.024 183.464,171.19 180.5,174C 174.62,179.378 169.286,185.211 164.5,191.5C 172.836,174.83 185.836,163.496 203.5,157.5 Z"/></g>
<g><path style="opacity:1" fill="#9cefa8" d="M 218.5,160.5 C 211.628,163.717 205.295,167.717 199.5,172.5C 197.5,173.5 195.5,174.5 193.5,175.5C 189.664,177.584 185.997,179.917 182.5,182.5C 184.666,180.163 186.666,177.663 188.5,175C 196.612,170.865 204.445,166.365 212,161.5C 214.099,160.713 216.266,160.38 218.5,160.5 Z"/></g>
<g><path style="opacity:1" fill="#72e883" d="M 887.5,169.5 C 889.697,170.845 892.03,172.011 894.5,173C 901.102,179.096 907.102,185.596 912.5,192.5C 912.5,193.167 912.5,193.833 912.5,194.5C 907.195,190.919 903.028,186.253 900,180.5C 895.024,177.687 890.858,174.02 887.5,169.5 Z"/></g>
<g><path style="opacity:1" fill="#c8f6ce" d="M 874.5,173.5 C 879.484,173.485 882.817,175.818 884.5,180.5C 882.184,179.194 879.85,177.861 877.5,176.5C 876.694,175.272 875.694,174.272 874.5,173.5 Z"/></g>
<g><path style="opacity:1" fill="#97eea4" d="M 879.5,168.5 C 880.167,168.5 880.833,168.5 881.5,168.5C 885.208,171.031 888.542,174.031 891.5,177.5C 889.372,176.043 887.038,175.043 884.5,174.5C 882.833,172.5 881.167,170.5 879.5,168.5 Z"/></g>
<g><path style="opacity:1" fill="#60e574" d="M 887.5,167.5 C 891.327,169.246 894.993,171.246 898.5,173.5C 903.899,179.3 908.566,185.633 912.5,192.5C 907.102,185.596 901.102,179.096 894.5,173C 892.03,172.011 889.697,170.845 887.5,169.5C 887.5,168.833 887.5,168.167 887.5,167.5 Z"/></g>
<g><path style="opacity:1" fill="#c6f5cd" d="M 884.5,180.5 C 889,180.663 891.666,182.996 892.5,187.5C 889.418,185.628 886.751,183.295 884.5,180.5 Z"/></g>
<g><path style="opacity:1" fill="#96eea3" d="M 182.5,182.5 C 180.354,185.388 178.021,188.055 175.5,190.5C 176.431,186.571 178.764,183.905 182.5,182.5 Z"/></g>
<g><path style="opacity:1" fill="#36df4f" d="M 895.5,166.5 C 896.167,166.5 896.833,166.5 897.5,166.5C 901.527,171.861 906.194,176.527 911.5,180.5C 913.925,183.589 915.925,186.922 917.5,190.5C 915.153,188.419 912.82,186.419 910.5,184.5C 910.649,183.448 910.483,182.448 910,181.5C 904.291,177.292 899.458,172.292 895.5,166.5 Z"/></g>
<g><path style="opacity:1" fill="#c0f5c8" d="M 204.5,173.5 C 201.459,175.362 198.792,177.695 196.5,180.5C 189.5,184.167 184.167,189.5 180.5,196.5C 179.833,196.833 179.167,197.167 178.5,197.5C 177.326,198.514 176.66,199.847 176.5,201.5C 175.326,202.514 174.66,203.847 174.5,205.5C 173.094,205.973 172.427,206.973 172.5,208.5C 171.662,208.842 171.328,209.508 171.5,210.5C 170.5,211.833 169.5,213.167 168.5,214.5C 168.5,212.167 168.5,209.833 168.5,207.5C 169.914,205.946 171.581,204.612 173.5,203.5C 174.145,200.772 174.979,198.105 176,195.5C 180.478,191.353 184.645,186.853 188.5,182C 192.507,180.564 195.84,178.231 198.5,175C 200.345,173.872 202.345,173.372 204.5,173.5 Z"/></g>
<g><path style="opacity:1" fill="#eafbed" d="M 196.5,180.5 C 190.833,185.5 185.5,190.833 180.5,196.5C 184.167,189.5 189.5,184.167 196.5,180.5 Z"/></g>
<g><path style="opacity:1" fill="#eafbec" d="M 893.5,189.5 C 895.587,190.585 896.92,192.251 897.5,194.5C 895.413,193.415 894.08,191.749 893.5,189.5 Z"/></g>
<g><path style="opacity:1" fill="#c4f5cb" d="M 892.5,187.5 C 896.949,188.284 899.282,190.95 899.5,195.5C 898.833,195.167 898.167,194.833 897.5,194.5C 896.92,192.251 895.587,190.585 893.5,189.5C 893.167,188.833 892.833,188.167 892.5,187.5 Z"/></g>
<g><path style="opacity:1" fill="#97eea4" d="M 895.5,181.5 C 898.056,182.543 900.223,184.21 902,186.5C 904.092,189.681 906.425,192.681 909,195.5C 909.483,196.448 909.649,197.448 909.5,198.5C 904.863,192.858 900.197,187.191 895.5,181.5 Z"/></g>
<g><path style="opacity:1" fill="#a2f0ae" d="M 884.5,174.5 C 887.038,175.043 889.372,176.043 891.5,177.5C 893.328,178.283 894.661,179.616 895.5,181.5C 900.197,187.191 904.863,192.858 909.5,198.5C 912.969,202.557 915.302,207.224 916.5,212.5C 913.47,208.146 910.47,203.812 907.5,199.5C 904.53,195.68 901.696,191.68 899,187.5C 893.726,183.573 888.893,179.24 884.5,174.5 Z"/></g>
<g><path style="opacity:1" fill="#b3f3bd" d="M 207.5,169.5 C 206.211,170.637 205.211,171.97 204.5,173.5C 202.345,173.372 200.345,173.872 198.5,175C 195.84,178.231 192.507,180.564 188.5,182C 184.645,186.853 180.478,191.353 176,195.5C 174.979,198.105 174.145,200.772 173.5,203.5C 171.581,204.612 169.914,205.946 168.5,207.5C 170.107,202.952 172.274,198.619 175,194.5C 180.363,187.305 186.53,180.971 193.5,175.5C 195.5,174.5 197.5,173.5 199.5,172.5C 202.162,171.501 204.828,170.501 207.5,169.5 Z"/></g>
<g><path style="opacity:1" fill="#a4f0af" d="M 193.5,175.5 C 186.53,180.971 180.363,187.305 175,194.5C 172.274,198.619 170.107,202.952 168.5,207.5C 166.394,210.254 164.728,213.254 163.5,216.5C 163.814,213.053 164.648,209.72 166,206.5C 169.081,201.057 172.247,195.724 175.5,190.5C 178.021,188.055 180.354,185.388 182.5,182.5C 185.997,179.917 189.664,177.584 193.5,175.5 Z"/></g>
<g><path style="opacity:1" fill="#ecfcee" d="M 897.5,194.5 C 898.167,194.833 898.833,195.167 899.5,195.5C 900.167,196.5 900.833,197.5 901.5,198.5C 901.5,198.833 901.5,199.167 901.5,199.5C 899.413,198.415 898.08,196.749 897.5,194.5 Z"/></g>
<g><path style="opacity:1" fill="#78e989" d="M 199.5,165.5 C 193.34,170.074 187.173,174.741 181,179.5C 172.365,189.617 165.199,200.617 159.5,212.5C 159.571,209.689 160.238,207.022 161.5,204.5C 165.564,198.278 169.397,191.944 173,185.5C 178.342,179.991 183.842,174.658 189.5,169.5C 192.72,167.98 196.053,166.647 199.5,165.5 Z"/></g>
<g><path style="opacity:1" fill="#56e46b" d="M 898.5,173.5 C 902.48,177.145 906.48,180.811 910.5,184.5C 911.305,187.817 913.139,190.483 916,192.5C 918.802,198.437 921.302,204.437 923.5,210.5C 920.831,206.315 918.331,201.982 916,197.5C 915.241,195.937 914.074,194.937 912.5,194.5C 912.5,193.833 912.5,193.167 912.5,192.5C 908.566,185.633 903.899,179.3 898.5,173.5 Z"/></g>
<g><path style="opacity:1" fill="#e4fbe8" d="M 178.5,197.5 C 178.771,199.38 178.104,200.713 176.5,201.5C 176.66,199.847 177.326,198.514 178.5,197.5 Z"/></g>
<g><path style="opacity:1" fill="#54e369" d="M 190.5,167.5 C 190.167,168.167 189.833,168.833 189.5,169.5C 186.732,171.087 184.065,172.92 181.5,175C 178.667,179.167 175.167,182.667 171,185.5C 167.75,192.34 163.75,198.673 159,204.5C 158.304,207.478 157.804,210.478 157.5,213.5C 156.685,214.429 155.852,215.429 155,216.5C 151.538,237.345 150.038,258.345 150.5,279.5C 149.833,299.167 149.167,318.833 148.5,338.5C 148.5,322.167 148.5,305.833 148.5,289.5C 148.66,267.455 149.66,245.455 151.5,223.5C 153.13,211.602 157.463,200.935 164.5,191.5C 169.286,185.211 174.62,179.378 180.5,174C 183.464,171.19 186.798,169.024 190.5,167.5 Z"/></g>
<g><path style="opacity:1" fill="#c6f6cd" d="M 901.5,199.5 C 901.5,199.167 901.5,198.833 901.5,198.5C 903.149,199.714 904.815,201.047 906.5,202.5C 908.023,206.958 909.69,211.291 911.5,215.5C 910.833,214.833 910.167,214.167 909.5,213.5C 907.336,208.5 904.669,203.833 901.5,199.5 Z"/></g>
<g><path style="opacity:1" fill="#acf1b6" d="M 907.5,199.5 C 910.47,203.812 913.47,208.146 916.5,212.5C 917.941,220.149 919.275,227.815 920.5,235.5C 919.5,233.5 918.5,231.5 917.5,229.5C 917.5,228.167 917.5,226.833 917.5,225.5C 914.757,216.668 911.423,208.001 907.5,199.5 Z"/></g>
<g><path style="opacity:1" fill="#67e77a" d="M 189.5,169.5 C 183.842,174.658 178.342,179.991 173,185.5C 169.397,191.944 165.564,198.278 161.5,204.5C 160.238,207.022 159.571,209.689 159.5,212.5C 158.833,212.833 158.167,213.167 157.5,213.5C 157.804,210.478 158.304,207.478 159,204.5C 163.75,198.673 167.75,192.34 171,185.5C 175.167,182.667 178.667,179.167 181.5,175C 184.065,172.92 186.732,171.087 189.5,169.5 Z"/></g>
<g><path style="opacity:1" fill="#e6fbe9" d="M 174.5,205.5 C 174.573,207.027 173.906,208.027 172.5,208.5C 172.427,206.973 173.094,205.973 174.5,205.5 Z"/></g>
<g><path style="opacity:1" fill="#78e989" d="M 914.5,200.5 C 915.832,202.132 917.165,203.799 918.5,205.5C 919.429,206.689 919.762,208.022 919.5,209.5C 916.544,207.212 914.877,204.212 914.5,200.5 Z"/></g>
<g><path style="opacity:1" fill="#68e77a" d="M 912.5,194.5 C 914.074,194.937 915.241,195.937 916,197.5C 918.331,201.982 920.831,206.315 923.5,210.5C 923.5,210.833 923.5,211.167 923.5,211.5C 924.093,216.272 925.093,220.939 926.5,225.5C 923.763,220.27 921.43,214.937 919.5,209.5C 919.762,208.022 919.429,206.689 918.5,205.5C 917.165,203.799 915.832,202.132 914.5,200.5C 913.833,198.5 913.167,196.5 912.5,194.5 Z"/></g>
<g><path style="opacity:1" fill="#96eea3" d="M 175.5,190.5 C 172.247,195.724 169.081,201.057 166,206.5C 164.648,209.72 163.814,213.053 163.5,216.5C 161.326,219.985 159.659,223.652 158.5,227.5C 158.5,225.5 158.5,223.5 158.5,221.5C 161.826,209.845 167.493,199.512 175.5,190.5 Z"/></g>
<g><path style="opacity:1" fill="#ecfcee" d="M 909.5,213.5 C 910.167,214.167 910.833,214.833 911.5,215.5C 911.5,216.167 911.5,216.833 911.5,217.5C 912.15,219.435 912.483,221.435 912.5,223.5C 910.723,220.495 909.723,217.162 909.5,213.5 Z"/></g>
<g><path style="opacity:1" fill="#64e677" d="M 157.5,213.5 C 154.942,222.957 153.442,232.624 153,242.5C 152.103,277.328 151.27,311.995 150.5,346.5C 150.5,324.167 150.5,301.833 150.5,279.5C 150.038,258.345 151.538,237.345 155,216.5C 155.852,215.429 156.685,214.429 157.5,213.5 Z"/></g>
<g><path style="opacity:1" fill="#73e884" d="M 159.5,212.5 C 158.841,215.455 158.508,218.455 158.5,221.5C 156.883,222.589 156.05,224.256 156,226.5C 155.038,235.811 154.372,245.145 154,254.5C 152.74,317.493 152.24,380.493 152.5,443.5C 152.5,445.833 152.5,448.167 152.5,450.5C 151.5,580.666 151.167,710.999 151.5,841.5C 150.5,691.334 150.167,541.001 150.5,390.5C 150.5,375.833 150.5,361.167 150.5,346.5C 151.27,311.995 152.103,277.328 153,242.5C 153.442,232.624 154.942,222.957 157.5,213.5C 158.167,213.167 158.833,212.833 159.5,212.5 Z"/></g>
<g><path style="opacity:1" fill="#44e15c" d="M 910.5,184.5 C 912.82,186.419 915.153,188.419 917.5,190.5C 921.839,198.014 925.505,205.847 928.5,214C 930.227,218.01 931.227,222.177 931.5,226.5C 931.5,229.167 931.5,231.833 931.5,234.5C 930.651,232.112 929.651,229.779 928.5,227.5C 928.496,221.53 926.829,216.197 923.5,211.5C 923.5,211.167 923.5,210.833 923.5,210.5C 921.302,204.437 918.802,198.437 916,192.5C 913.139,190.483 911.305,187.817 910.5,184.5 Z"/></g>
<g><path style="opacity:1" fill="#d3f8d9" d="M 914.5,227.5 C 916.175,230.507 916.841,233.84 916.5,237.5C 915.419,234.373 914.753,231.04 914.5,227.5 Z"/></g>
<g><path style="opacity:1" fill="#22db3d" d="M 936.5,227.5 C 937.65,233.311 938.483,239.311 939,245.5C 939.766,438.331 939.266,630.665 937.5,822.5C 937.804,823.15 938.137,823.817 938.5,824.5C 937.919,834.001 936.919,843.335 935.5,852.5C 936.678,809.003 936.678,765.67 935.5,722.5C 936.11,721.609 936.443,720.609 936.5,719.5C 938.335,564.003 938.835,408.336 938,252.5C 937.826,247.649 937.326,242.982 936.5,238.5C 936.5,234.833 936.5,231.167 936.5,227.5 Z"/></g>
<g><path style="opacity:1" fill="#1ddb39" d="M 887.5,155.5 C 893.833,159 899.833,163 905.5,167.5C 912.217,175.045 918.717,182.712 925,190.5C 926.98,195.31 929.314,199.977 932,204.5C 937.405,217.26 940.072,230.593 940,244.5C 940.496,375.54 940.663,506.374 940.5,637C 939.949,698.938 938.949,760.771 937.5,822.5C 939.266,630.665 939.766,438.331 939,245.5C 938.483,239.311 937.65,233.311 936.5,227.5C 932.671,211.504 925.837,196.837 916,183.5C 914.871,181.859 913.371,180.859 911.5,180.5C 906.194,176.527 901.527,171.861 897.5,166.5C 894.167,162.833 890.833,159.167 887.5,155.5 Z"/></g>
<g><path style="opacity:1" fill="#edfcef" d="M 171.5,210.5 C 170.038,215.397 168.871,220.397 168,225.5C 167.49,235.015 166.656,244.348 165.5,253.5C 165.5,249.167 165.5,244.833 165.5,240.5C 165.574,232.761 166.241,225.094 167.5,217.5C 167.557,216.391 167.89,215.391 168.5,214.5C 169.5,213.167 170.5,211.833 171.5,210.5 Z"/></g>
<g><path style="opacity:1" fill="#a2f0ad" d="M 163.5,216.5 C 160.269,234.662 158.769,252.995 159,271.5C 158.304,312.165 157.804,352.832 157.5,393.5C 157.167,393.5 156.833,393.5 156.5,393.5C 156.5,366.167 156.5,338.833 156.5,311.5C 156.5,306.833 156.5,302.167 156.5,297.5C 157.481,277.003 158.148,256.336 158.5,235.5C 158.5,233.5 158.5,231.5 158.5,229.5C 158.5,228.833 158.5,228.167 158.5,227.5C 159.659,223.652 161.326,219.985 163.5,216.5 Z"/></g>
<g><path style="opacity:1" fill="#92eda0" d="M 920.5,224.5 C 921.315,225.429 922.148,226.429 923,227.5C 923.912,231.795 924.579,236.128 925,240.5C 925.833,376.667 925.666,512.667 924.5,648.5C 924.667,513.5 924.5,378.5 924,243.5C 922.725,237.206 921.559,230.873 920.5,224.5 Z"/></g>
<g><path style="opacity:1" fill="#42e159" d="M 151.5,223.5 C 149.66,245.455 148.66,267.455 148.5,289.5C 147.833,321.833 147.167,354.167 146.5,386.5C 146.5,358.167 146.5,329.833 146.5,301.5C 146.12,278.976 146.786,256.642 148.5,234.5C 148.997,230.69 149.997,227.024 151.5,223.5 Z"/></g>
<g><path style="opacity:1" fill="#88ec97" d="M 881.5,168.5 C 883.435,169.15 885.435,169.483 887.5,169.5C 890.858,174.02 895.024,177.687 900,180.5C 903.028,186.253 907.195,190.919 912.5,194.5C 913.167,196.5 913.833,198.5 914.5,200.5C 914.877,204.212 916.544,207.212 919.5,209.5C 920.409,215.809 922.243,221.809 925,227.5C 926.05,232.448 926.55,237.448 926.5,242.5C 926.667,394.5 926.5,546.5 926,698.5C 925.832,732.669 925.332,766.669 924.5,800.5C 924.5,764.5 924.5,728.5 924.5,692.5C 924.5,677.833 924.5,663.167 924.5,648.5C 925.666,512.667 925.833,376.667 925,240.5C 924.579,236.128 923.912,231.795 923,227.5C 922.148,226.429 921.315,225.429 920.5,224.5C 920.002,221.513 919.502,218.513 919,215.5C 918.623,214.058 917.79,213.058 916.5,212.5C 915.302,207.224 912.969,202.557 909.5,198.5C 909.649,197.448 909.483,196.448 909,195.5C 906.425,192.681 904.092,189.681 902,186.5C 900.223,184.21 898.056,182.543 895.5,181.5C 894.661,179.616 893.328,178.283 891.5,177.5C 888.542,174.031 885.208,171.031 881.5,168.5 Z"/></g>
<g><path style="opacity:1" fill="#30de49" d="M 911.5,180.5 C 913.371,180.859 914.871,181.859 916,183.5C 925.837,196.837 932.671,211.504 936.5,227.5C 936.5,231.167 936.5,234.833 936.5,238.5C 936.5,284.167 936.5,329.833 936.5,375.5C 935.833,371.5 935.167,367.5 934.5,363.5C 935.66,326.905 935.826,290.238 935,253.5C 934.869,244.222 933.703,235.222 931.5,226.5C 931.227,222.177 930.227,218.01 928.5,214C 925.505,205.847 921.839,198.014 917.5,190.5C 915.925,186.922 913.925,183.589 911.5,180.5 Z"/></g>
<g><path style="opacity:1" fill="#97eea4" d="M 158.5,235.5 C 158.148,256.336 157.481,277.003 156.5,297.5C 156.333,280.163 156.5,262.83 157,245.5C 157.179,241.975 157.679,238.641 158.5,235.5 Z"/></g>
<g><path style="opacity:1" fill="#3ee056" d="M 931.5,226.5 C 933.703,235.222 934.869,244.222 935,253.5C 935.826,290.238 935.66,326.905 934.5,363.5C 934.862,511.504 934.362,659.504 933,807.5C 932.743,823.87 931.91,840.203 930.5,856.5C 930.605,860.687 929.772,864.687 928,868.5C 924.519,875.283 920.852,881.95 917,888.5C 916.184,889.823 915.017,890.489 913.5,890.5C 914.833,887.5 916.167,884.5 917.5,881.5C 921.236,876.236 924.403,870.569 927,864.5C 928.073,855.842 929.073,847.175 930,838.5C 931.081,802.171 931.914,765.837 932.5,729.5C 933.666,566.667 933.833,403.667 933,240.5C 932.768,239.263 932.268,238.263 931.5,237.5C 931.5,236.5 931.5,235.5 931.5,234.5C 931.5,231.833 931.5,229.167 931.5,226.5 Z"/></g>
<g><path style="opacity:1" fill="#27dc42" d="M 936.5,238.5 C 937.326,242.982 937.826,247.649 938,252.5C 938.835,408.336 938.335,564.003 936.5,719.5C 936.5,604.833 936.5,490.167 936.5,375.5C 936.5,329.833 936.5,284.167 936.5,238.5 Z"/></g>
<g><path style="opacity:1" fill="#19db36" d="M 140.5,270.5 C 140.804,271.15 141.137,271.817 141.5,272.5C 139.994,407.359 138.994,542.192 138.5,677C 138.792,688.292 138.792,699.458 138.5,710.5C 139.074,712.059 139.74,713.559 140.5,715C 139.907,755.977 139.574,797.811 139.5,840.5C 138.686,838.369 138.186,836.036 138,833.5C 137.598,723.617 137.431,614.617 137.5,506.5C 138.153,447.608 138.82,388.775 139.5,330C 139.056,328.467 138.723,326.967 138.5,325.5C 139.154,307.039 139.821,288.706 140.5,270.5 Z"/></g>
<g><path style="opacity:1" fill="#d5f8da" d="M 165.5,240.5 C 165.5,244.833 165.5,249.167 165.5,253.5C 165.5,257.5 165.5,261.5 165.5,265.5C 164.21,330.163 163.21,394.829 162.5,459.5C 162.333,413.499 162.5,367.499 163,321.5C 163.038,294.313 163.872,267.313 165.5,240.5 Z"/></g>
<g><path style="opacity:1" fill="#5ae46f" d="M 923.5,211.5 C 926.829,216.197 928.496,221.53 928.5,227.5C 929.332,235.156 930.166,242.823 931,250.5C 931.833,388.667 931.666,526.667 930.5,664.5C 930.833,528.332 930.5,392.332 929.5,256.5C 929.806,253.615 929.473,250.948 928.5,248.5C 928.397,240.78 927.73,233.113 926.5,225.5C 925.093,220.939 924.093,216.272 923.5,211.5 Z"/></g>
<g><path style="opacity:1" fill="#8ced9b" d="M 158.5,229.5 C 158.5,231.5 158.5,233.5 158.5,235.5C 157.679,238.641 157.179,241.975 157,245.5C 156.5,262.83 156.333,280.163 156.5,297.5C 156.5,302.167 156.5,306.833 156.5,311.5C 155.833,318.833 155.167,326.167 154.5,333.5C 154.345,303.156 154.845,272.823 156,242.5C 156.149,237.899 156.982,233.566 158.5,229.5 Z"/></g>
<g><path style="opacity:1" fill="#91ed9f" d="M 156.5,311.5 C 156.5,338.833 156.5,366.167 156.5,393.5C 156.343,413.17 156.01,432.837 155.5,452.5C 154.5,578.999 154.167,705.666 154.5,832.5C 153.5,703.001 153.167,573.334 153.5,443.5C 153.241,406.822 153.574,370.156 154.5,333.5C 155.167,326.167 155.833,318.833 156.5,311.5 Z"/></g>
<g><path style="opacity:1" fill="#eefcf0" d="M 165.5,265.5 C 164.65,455.166 163.983,644.832 163.5,834.5C 162.501,727.668 162.167,620.668 162.5,513.5C 162.5,495.5 162.5,477.5 162.5,459.5C 163.21,394.829 164.21,330.163 165.5,265.5 Z"/></g>
<g><path style="opacity:1" fill="#77e988" d="M 919.5,209.5 C 921.43,214.937 923.763,220.27 926.5,225.5C 927.73,233.113 928.397,240.78 928.5,248.5C 928.5,341.5 928.5,434.5 928.5,527.5C 928.167,527.5 927.833,527.5 927.5,527.5C 927.833,432.332 927.499,337.332 926.5,242.5C 926.55,237.448 926.05,232.448 925,227.5C 922.243,221.809 920.409,215.809 919.5,209.5 Z"/></g>
<g><path style="opacity:1" fill="#80eb90" d="M 158.5,221.5 C 158.5,223.5 158.5,225.5 158.5,227.5C 158.5,228.167 158.5,228.833 158.5,229.5C 156.982,233.566 156.149,237.899 156,242.5C 154.845,272.823 154.345,303.156 154.5,333.5C 153.574,370.156 153.241,406.822 153.5,443.5C 153.167,443.5 152.833,443.5 152.5,443.5C 152.24,380.493 152.74,317.493 154,254.5C 154.372,245.145 155.038,235.811 156,226.5C 156.05,224.256 156.883,222.589 158.5,221.5 Z"/></g>
<g><path style="opacity:1" fill="#b5f3be" d="M 917.5,229.5 C 918.5,231.5 919.5,233.5 920.5,235.5C 921.207,238.786 921.54,242.119 921.5,245.5C 921.807,399.003 921.141,552.336 919.5,705.5C 919.667,550.166 919.5,394.833 919,239.5C 918.39,236.173 917.89,232.839 917.5,229.5 Z"/></g>
<g><path style="opacity:1" fill="#9befa7" d="M 916.5,212.5 C 917.79,213.058 918.623,214.058 919,215.5C 919.502,218.513 920.002,221.513 920.5,224.5C 921.559,230.873 922.725,237.206 924,243.5C 924.5,378.5 924.667,513.5 924.5,648.5C 924.5,663.167 924.5,677.833 924.5,692.5C 924.167,692.5 923.833,692.5 923.5,692.5C 923.833,544.999 923.5,397.666 922.5,250.5C 922.784,248.585 922.451,246.919 921.5,245.5C 921.54,242.119 921.207,238.786 920.5,235.5C 919.275,227.815 917.941,220.149 916.5,212.5 Z"/></g>
<g><path style="opacity:1" fill="#35df4e" d="M 162.5,189.5 C 158.481,196.876 154.981,204.543 152,212.5C 149.547,219.64 148.381,226.973 148.5,234.5C 146.786,256.642 146.12,278.976 146.5,301.5C 145.062,412.663 144.395,523.997 144.5,635.5C 144.5,701.668 144.833,767.668 145.5,833.5C 145.459,842.292 146.459,850.959 148.5,859.5C 146.56,855.083 145.227,850.417 144.5,845.5C 143.347,695.843 143.18,546.176 144,396.5C 144.249,341.821 145.083,287.155 146.5,232.5C 146.403,223.079 148.236,214.079 152,205.5C 155.275,199.93 158.775,194.597 162.5,189.5 Z"/></g>
<g><path style="opacity:1" fill="#2cdd46" d="M 146.5,232.5 C 145.083,287.155 144.249,341.821 144,396.5C 143.18,546.176 143.347,695.843 144.5,845.5C 143.686,843.369 143.186,841.036 143,838.5C 142.5,717.167 142.333,595.834 142.5,474.5C 142.333,418.832 142.5,363.166 143,307.5C 143.47,282.308 144.637,257.308 146.5,232.5 Z"/></g>
<g><path style="opacity:1" fill="#3ce055" d="M 146.5,301.5 C 146.5,329.833 146.5,358.167 146.5,386.5C 146.5,405.833 146.5,425.167 146.5,444.5C 145.5,573.999 145.167,703.666 145.5,833.5C 144.833,767.668 144.5,701.668 144.5,635.5C 144.395,523.997 145.062,412.663 146.5,301.5 Z"/></g>
<g><path style="opacity:1" fill="#33de4c" d="M 934.5,363.5 C 935.167,367.5 935.833,371.5 936.5,375.5C 936.5,490.167 936.5,604.833 936.5,719.5C 936.443,720.609 936.11,721.609 935.5,722.5C 934.749,761.826 934.249,801.159 934,840.5C 933.953,846.223 932.786,851.556 930.5,856.5C 931.91,840.203 932.743,823.87 933,807.5C 934.362,659.504 934.862,511.504 934.5,363.5 Z"/></g>
<g><path style="opacity:1" fill="#42e159" d="M 146.5,444.5 C 146.333,576.167 146.5,707.834 147,839.5C 147.886,844.47 148.552,849.47 149,854.5C 149.751,859.211 151.251,863.544 153.5,867.5C 155.973,874.13 159.473,880.13 164,885.5C 166.057,888.721 167.891,892.054 169.5,895.5C 167.938,895.267 166.605,894.6 165.5,893.5C 163.549,892.284 162.049,890.618 161,888.5C 158.289,880.705 154.622,873.372 150,866.5C 149.023,864.26 148.523,861.927 148.5,859.5C 146.459,850.959 145.459,842.292 145.5,833.5C 145.167,703.666 145.5,573.999 146.5,444.5 Z"/></g>
<g><path style="opacity:1" fill="#bff5c7" d="M 911.5,217.5 C 913.5,220.167 915.5,222.833 917.5,225.5C 917.5,226.833 917.5,228.167 917.5,229.5C 917.89,232.839 918.39,236.173 919,239.5C 919.5,394.833 919.667,550.166 919.5,705.5C 919.5,713.833 919.5,722.167 919.5,730.5C 918.833,756.833 918.167,783.167 917.5,809.5C 917.833,619.333 917.5,429.333 916.5,239.5C 916.5,238.833 916.5,238.167 916.5,237.5C 916.841,233.84 916.175,230.507 914.5,227.5C 914.011,226.005 913.345,224.671 912.5,223.5C 912.483,221.435 912.15,219.435 911.5,217.5 Z"/></g>
<g><path style="opacity:1" fill="#60e574" d="M 929.5,256.5 C 930.5,392.332 930.833,528.332 930.5,664.5C 930.938,724.521 930.105,784.521 928,844.5C 927.126,852.997 925.459,861.33 923,869.5C 921.252,872.291 919.419,874.958 917.5,877.5C 917.674,875.139 918.007,872.806 918.5,870.5C 918.328,869.508 918.662,868.842 919.5,868.5C 920.429,867.064 921.595,865.731 923,864.5C 927.001,834.985 928.501,805.318 927.5,775.5C 928.33,765.341 928.83,755.008 929,744.5C 929.5,581.834 929.667,419.167 929.5,256.5 Z"/></g>
<g><path style="opacity:1" fill="#97eea4" d="M 155.5,452.5 C 155.333,580.834 155.5,709.167 156,837.5C 156.232,838.737 156.732,839.737 157.5,840.5C 157.5,840.833 157.5,841.167 157.5,841.5C 157.5,844.167 157.5,846.833 157.5,849.5C 156.833,847.833 156.167,846.167 155.5,844.5C 154.64,840.566 154.307,836.566 154.5,832.5C 154.167,705.666 154.5,578.999 155.5,452.5 Z"/></g>
<g><path style="opacity:1" fill="#a3f0ae" d="M 922.5,250.5 C 923.5,397.666 923.833,544.999 923.5,692.5C 922.751,731.495 922.418,770.495 922.5,809.5C 921.763,822.017 920.929,834.684 920,847.5C 918.608,856.734 916.441,865.734 913.5,874.5C 910.13,877.535 907.13,880.868 904.5,884.5C 907.014,879.306 909.681,874.139 912.5,869C 914.076,864.62 915.076,860.12 915.5,855.5C 916.268,854.737 916.768,853.737 917,852.5C 917.798,842.491 918.631,832.491 919.5,822.5C 921.097,764.009 921.93,705.342 922,646.5C 922.5,514.5 922.667,382.5 922.5,250.5 Z"/></g>
<g><path style="opacity:1" fill="#45e15c" d="M 931.5,237.5 C 932.268,238.263 932.768,239.263 933,240.5C 933.833,403.667 933.666,566.667 932.5,729.5C 932.819,565.491 932.486,401.491 931.5,237.5 Z"/></g>
<g><path style="opacity:1" fill="#5ee572" d="M 150.5,279.5 C 150.5,301.833 150.5,324.167 150.5,346.5C 150.5,361.167 150.5,375.833 150.5,390.5C 149.5,538.666 149.167,686.999 149.5,835.5C 148.5,695.334 148.167,555.001 148.5,414.5C 148.5,389.167 148.5,363.833 148.5,338.5C 149.167,318.833 149.833,299.167 150.5,279.5 Z"/></g>
<g><path style="opacity:1" fill="#4be262" d="M 148.5,289.5 C 148.5,305.833 148.5,322.167 148.5,338.5C 148.5,363.833 148.5,389.167 148.5,414.5C 147.334,555.333 147.167,696.333 148,837.5C 148.198,839.382 148.698,841.048 149.5,842.5C 149.5,842.833 149.5,843.167 149.5,843.5C 149.335,846.85 149.502,850.183 150,853.5C 151.797,858.023 152.964,862.69 153.5,867.5C 151.251,863.544 149.751,859.211 149,854.5C 148.552,849.47 147.886,844.47 147,839.5C 146.5,707.834 146.333,576.167 146.5,444.5C 146.5,425.167 146.5,405.833 146.5,386.5C 147.167,354.167 147.833,321.833 148.5,289.5 Z"/></g>
<g><path style="opacity:1" fill="#6ae77d" d="M 928.5,248.5 C 929.473,250.948 929.806,253.615 929.5,256.5C 929.667,419.167 929.5,581.834 929,744.5C 928.83,755.008 928.33,765.341 927.5,775.5C 928.248,692.836 928.581,610.169 928.5,527.5C 928.5,434.5 928.5,341.5 928.5,248.5 Z"/></g>
<g><path style="opacity:1" fill="#4ee264" d="M 928.5,227.5 C 929.651,229.779 930.651,232.112 931.5,234.5C 931.5,235.5 931.5,236.5 931.5,237.5C 932.486,401.491 932.819,565.491 932.5,729.5C 931.914,765.837 931.081,802.171 930,838.5C 929.073,847.175 928.073,855.842 927,864.5C 924.403,870.569 921.236,876.236 917.5,881.5C 917.5,880.167 917.5,878.833 917.5,877.5C 919.419,874.958 921.252,872.291 923,869.5C 925.459,861.33 927.126,852.997 928,844.5C 930.105,784.521 930.938,724.521 930.5,664.5C 931.666,526.667 931.833,388.667 931,250.5C 930.166,242.823 929.332,235.156 928.5,227.5 Z"/></g>
<g><path style="opacity:1" fill="#aef2b8" d="M 168.5,207.5 C 168.5,209.833 168.5,212.167 168.5,214.5C 167.89,215.391 167.557,216.391 167.5,217.5C 165.489,218.417 164.489,220.083 164.5,222.5C 163.836,226.476 163.503,230.476 163.5,234.5C 162.732,235.263 162.232,236.263 162,237.5C 161.501,242.155 161.334,246.821 161.5,251.5C 159.934,295.656 159.101,339.989 159,384.5C 158.333,536.5 158.333,688.5 159,840.5C 159.546,843.379 160.379,846.046 161.5,848.5C 162.215,854.643 163.548,860.643 165.5,866.5C 163.928,864.056 162.428,861.39 161,858.5C 160.385,852.588 159.218,846.921 157.5,841.5C 157.5,841.167 157.5,840.833 157.5,840.5C 157.5,691.5 157.5,542.5 157.5,393.5C 157.804,352.832 158.304,312.165 159,271.5C 158.769,252.995 160.269,234.662 163.5,216.5C 164.728,213.254 166.394,210.254 168.5,207.5 Z"/></g>
<g><path style="opacity:1" fill="#b5f3bf" d="M 161.5,251.5 C 159.63,447.495 159.13,643.495 160,839.5C 160.953,842.432 161.453,845.432 161.5,848.5C 160.379,846.046 159.546,843.379 159,840.5C 158.333,688.5 158.333,536.5 159,384.5C 159.101,339.989 159.934,295.656 161.5,251.5 Z"/></g>
<g><path style="opacity:1" fill="#bcf4c4" d="M 163.5,234.5 C 160.869,435.822 160.035,637.156 161,838.5C 161.21,840.058 161.71,841.391 162.5,842.5C 162.328,843.492 162.662,844.158 163.5,844.5C 163.5,844.833 163.5,845.167 163.5,845.5C 162.923,852.543 164.59,858.876 168.5,864.5C 169.167,864.5 169.5,864.833 169.5,865.5C 169.5,867.5 169.5,869.5 169.5,871.5C 168.025,869.993 166.691,868.327 165.5,866.5C 163.548,860.643 162.215,854.643 161.5,848.5C 161.453,845.432 160.953,842.432 160,839.5C 159.13,643.495 159.63,447.495 161.5,251.5C 161.334,246.821 161.501,242.155 162,237.5C 162.232,236.263 162.732,235.263 163.5,234.5 Z"/></g>
<g><path style="opacity:1" fill="#55e46b" d="M 148.5,414.5 C 148.167,555.001 148.5,695.334 149.5,835.5C 149.5,837.833 149.5,840.167 149.5,842.5C 148.698,841.048 148.198,839.382 148,837.5C 147.167,696.333 147.334,555.333 148.5,414.5 Z"/></g>
<g><path style="opacity:1" fill="#85eb95" d="M 152.5,443.5 C 152.833,443.5 153.167,443.5 153.5,443.5C 153.167,573.334 153.5,703.001 154.5,832.5C 154.307,836.566 154.64,840.566 155.5,844.5C 155.5,847.167 155.5,849.833 155.5,852.5C 153.882,849.829 153.215,846.829 153.5,843.5C 152.516,712.51 152.182,581.51 152.5,450.5C 152.5,448.167 152.5,445.833 152.5,443.5 Z"/></g>
<g><path style="opacity:1" fill="#a5f0b0" d="M 156.5,393.5 C 156.833,393.5 157.167,393.5 157.5,393.5C 157.5,542.5 157.5,691.5 157.5,840.5C 156.732,839.737 156.232,838.737 156,837.5C 155.5,709.167 155.333,580.834 155.5,452.5C 156.01,432.837 156.343,413.17 156.5,393.5 Z"/></g>
<g><path style="opacity:1" fill="#7dea8d" d="M 152.5,450.5 C 152.182,581.51 152.516,712.51 153.5,843.5C 152.833,842.833 152.167,842.167 151.5,841.5C 151.167,710.999 151.5,580.666 152.5,450.5 Z"/></g>
<g><path style="opacity:1" fill="#73e985" d="M 927.5,527.5 C 927.833,527.5 928.167,527.5 928.5,527.5C 928.581,610.169 928.248,692.836 927.5,775.5C 928.501,805.318 927.001,834.985 923,864.5C 921.595,865.731 920.429,867.064 919.5,868.5C 921.486,859.252 922.819,849.919 923.5,840.5C 924.302,839.048 924.802,837.382 925,835.5C 927,732.845 927.833,630.178 927.5,527.5 Z"/></g>
<g><path style="opacity:1" fill="#adf2b8" d="M 921.5,245.5 C 922.451,246.919 922.784,248.585 922.5,250.5C 922.667,382.5 922.5,514.5 922,646.5C 921.93,705.342 921.097,764.009 919.5,822.5C 919.5,791.833 919.5,761.167 919.5,730.5C 919.5,722.167 919.5,713.833 919.5,705.5C 921.141,552.336 921.807,399.003 921.5,245.5 Z"/></g>
<g><path style="opacity:1" fill="#7fea8f" d="M 926.5,242.5 C 927.499,337.332 927.833,432.332 927.5,527.5C 927.833,630.178 927,732.845 925,835.5C 924.802,837.382 924.302,839.048 923.5,840.5C 923.912,829.836 924.245,819.17 924.5,808.5C 924.5,805.833 924.5,803.167 924.5,800.5C 925.332,766.669 925.832,732.669 926,698.5C 926.5,546.5 926.667,394.5 926.5,242.5 Z"/></g>
<g><path style="opacity:1" fill="#c2f5c9" d="M 167.5,217.5 C 166.241,225.094 165.574,232.761 165.5,240.5C 163.872,267.313 163.038,294.313 163,321.5C 162.5,367.499 162.333,413.499 162.5,459.5C 162.5,477.5 162.5,495.5 162.5,513.5C 161.178,623.014 161.178,732.68 162.5,842.5C 161.71,841.391 161.21,840.058 161,838.5C 160.035,637.156 160.869,435.822 163.5,234.5C 163.503,230.476 163.836,226.476 164.5,222.5C 164.489,220.083 165.489,218.417 167.5,217.5 Z"/></g>
<g><path style="opacity:1" fill="#cdf7d3" d="M 162.5,513.5 C 162.167,620.668 162.501,727.668 163.5,834.5C 163.5,836.5 163.5,838.5 163.5,840.5C 163.5,841.833 163.5,843.167 163.5,844.5C 162.662,844.158 162.328,843.492 162.5,842.5C 161.178,732.68 161.178,623.014 162.5,513.5 Z"/></g>
<g><path style="opacity:1" fill="#92eda0" d="M 923.5,692.5 C 923.833,692.5 924.167,692.5 924.5,692.5C 924.5,728.5 924.5,764.5 924.5,800.5C 924.5,803.167 924.5,805.833 924.5,808.5C 923.833,813.5 923.167,818.5 922.5,823.5C 922.5,818.833 922.5,814.167 922.5,809.5C 922.418,770.495 922.751,731.495 923.5,692.5 Z"/></g>
<g><path style="opacity:1" fill="#cbf6d1" d="M 916.5,239.5 C 917.5,429.333 917.833,619.333 917.5,809.5C 916.715,824.675 916.048,840.008 915.5,855.5C 914.179,858.729 912.845,862.062 911.5,865.5C 911.043,866.298 910.376,866.631 909.5,866.5C 910.167,864.5 910.833,862.5 911.5,860.5C 911.5,859.5 911.5,858.5 911.5,857.5C 913.239,850.412 913.906,843.079 913.5,835.5C 914.993,765.522 915.826,695.522 916,625.5C 916.5,496.834 916.667,368.167 916.5,239.5 Z"/></g>
<g><path style="opacity:1" fill="#29dd43" d="M 935.5,722.5 C 936.678,765.67 936.678,809.003 935.5,852.5C 934.883,852.611 934.383,852.944 934,853.5C 932.322,860.078 931.156,866.745 930.5,873.5C 920.851,889.855 908.851,904.355 894.5,917C 884.337,924.055 873.337,929.388 861.5,933C 858.518,933.498 855.518,933.665 852.5,933.5C 863.546,930.645 874.213,926.478 884.5,921C 888.975,918.35 892.975,915.183 896.5,911.5C 900.775,906.723 905.275,902.056 910,897.5C 911.926,895.531 913.092,893.198 913.5,890.5C 915.017,890.489 916.184,889.823 917,888.5C 920.852,881.95 924.519,875.283 928,868.5C 929.772,864.687 930.605,860.687 930.5,856.5C 932.786,851.556 933.953,846.223 934,840.5C 934.249,801.159 934.749,761.826 935.5,722.5 Z"/></g>
<g><path style="opacity:1" fill="#b6f3bf" d="M 919.5,730.5 C 919.5,761.167 919.5,791.833 919.5,822.5C 918.631,832.491 917.798,842.491 917,852.5C 916.768,853.737 916.268,854.737 915.5,855.5C 916.048,840.008 916.715,824.675 917.5,809.5C 918.167,783.167 918.833,756.833 919.5,730.5 Z"/></g>
<g><path style="opacity:1" fill="#96eea3" d="M 922.5,809.5 C 922.5,814.167 922.5,818.833 922.5,823.5C 923.2,839.869 921.2,855.869 916.5,871.5C 915.272,872.306 914.272,873.306 913.5,874.5C 916.441,865.734 918.608,856.734 920,847.5C 920.929,834.684 921.763,822.017 922.5,809.5 Z"/></g>
<g><path style="opacity:1" fill="#ecfbee" d="M 163.5,840.5 C 165.502,844.833 166.502,849.5 166.5,854.5C 165.184,851.592 164.184,848.592 163.5,845.5C 163.5,845.167 163.5,844.833 163.5,844.5C 163.5,843.167 163.5,841.833 163.5,840.5 Z"/></g>
<g><path style="opacity:1" fill="#f0fcf2" d="M 913.5,835.5 C 913.906,843.079 913.239,850.412 911.5,857.5C 911.864,849.993 912.53,842.659 913.5,835.5 Z"/></g>
<g><path style="opacity:1" fill="#c7f6cd" d="M 163.5,845.5 C 164.184,848.592 165.184,851.592 166.5,854.5C 167.167,857.833 167.833,861.167 168.5,864.5C 164.59,858.876 162.923,852.543 163.5,845.5 Z"/></g>
<g><path style="opacity:1" fill="#ebfced" d="M 166.5,854.5 C 168.737,858.534 170.404,862.868 171.5,867.5C 170.833,866.833 170.167,866.167 169.5,865.5C 169.5,864.833 169.167,864.5 168.5,864.5C 167.833,861.167 167.167,857.833 166.5,854.5 Z"/></g>
<g><path style="opacity:1" fill="#87ec96" d="M 924.5,808.5 C 924.245,819.17 923.912,829.836 923.5,840.5C 922.819,849.919 921.486,859.252 919.5,868.5C 918.662,868.842 918.328,869.508 918.5,870.5C 917.833,870.833 917.167,871.167 916.5,871.5C 921.2,855.869 923.2,839.869 922.5,823.5C 923.167,818.5 923.833,813.5 924.5,808.5 Z"/></g>
<g><path style="opacity:1" fill="#8aec98" d="M 155.5,844.5 C 156.167,846.167 156.833,847.833 157.5,849.5C 158.657,855.463 160.157,861.463 162,867.5C 163.929,871.036 166.096,874.369 168.5,877.5C 170.178,882.197 172.844,886.197 176.5,889.5C 176.5,890.167 176.5,890.833 176.5,891.5C 174.167,889.5 171.833,887.5 169.5,885.5C 168.66,883.147 167.326,881.147 165.5,879.5C 164.216,875.599 162.383,871.932 160,868.5C 158.558,863.11 157.058,857.777 155.5,852.5C 155.5,849.833 155.5,847.167 155.5,844.5 Z"/></g>
<g><path style="opacity:1" fill="#ecfcee" d="M 911.5,860.5 C 910.833,862.5 910.167,864.5 909.5,866.5C 909.5,866.833 909.5,867.167 909.5,867.5C 909.167,867.5 908.833,867.5 908.5,867.5C 908.166,864.509 909.166,862.176 911.5,860.5 Z"/></g>
<g><path style="opacity:1" fill="#9eefaa" d="M 157.5,841.5 C 159.218,846.921 160.385,852.588 161,858.5C 162.428,861.39 163.928,864.056 165.5,866.5C 166.2,870.237 167.2,873.904 168.5,877.5C 166.096,874.369 163.929,871.036 162,867.5C 160.157,861.463 158.657,855.463 157.5,849.5C 157.5,846.833 157.5,844.167 157.5,841.5 Z"/></g>
<g><path style="opacity:1" fill="#75e986" d="M 151.5,841.5 C 152.167,842.167 152.833,842.833 153.5,843.5C 153.215,846.829 153.882,849.829 155.5,852.5C 157.058,857.777 158.558,863.11 160,868.5C 162.383,871.932 164.216,875.599 165.5,879.5C 165.167,879.5 164.833,879.5 164.5,879.5C 161.251,875.341 158.751,870.674 157,865.5C 154.092,857.798 152.258,849.798 151.5,841.5 Z"/></g>
<g><path style="opacity:1" fill="#64e677" d="M 150.5,390.5 C 150.167,541.001 150.5,691.334 151.5,841.5C 152.258,849.798 154.092,857.798 157,865.5C 158.751,870.674 161.251,875.341 164.5,879.5C 164.5,880.167 164.5,880.833 164.5,881.5C 161.548,878.961 159.048,875.961 157,872.5C 154.376,862.808 151.876,853.141 149.5,843.5C 149.5,843.167 149.5,842.833 149.5,842.5C 149.5,840.167 149.5,837.833 149.5,835.5C 149.167,686.999 149.5,538.666 150.5,390.5 Z"/></g>
<g><path style="opacity:1" fill="#51e367" d="M 149.5,843.5 C 151.876,853.141 154.376,862.808 157,872.5C 159.048,875.961 161.548,878.961 164.5,881.5C 167.172,888.544 171.505,894.211 177.5,898.5C 177.704,900.685 178.37,902.685 179.5,904.5C 175.967,901.822 172.634,898.822 169.5,895.5C 167.891,892.054 166.057,888.721 164,885.5C 159.473,880.13 155.973,874.13 153.5,867.5C 152.964,862.69 151.797,858.023 150,853.5C 149.502,850.183 149.335,846.85 149.5,843.5 Z"/></g>
<g><path style="opacity:1" fill="#b4f3bd" d="M 915.5,855.5 C 915.076,860.12 914.076,864.62 912.5,869C 909.681,874.139 907.014,879.306 904.5,884.5C 902.453,886.55 900.786,888.883 899.5,891.5C 895.493,894.223 891.493,896.89 887.5,899.5C 890.784,895.385 894.618,891.718 899,888.5C 899.366,886.548 900.199,884.882 901.5,883.5C 906.228,879.239 908.895,873.905 909.5,867.5C 909.5,867.167 909.5,866.833 909.5,866.5C 910.376,866.631 911.043,866.298 911.5,865.5C 912.845,862.062 914.179,858.729 915.5,855.5 Z"/></g>
<g><path style="opacity:1" fill="#c8f6cf" d="M 908.5,867.5 C 908.833,867.5 909.167,867.5 909.5,867.5C 908.895,873.905 906.228,879.239 901.5,883.5C 899.589,884.075 897.922,885.075 896.5,886.5C 901.236,880.617 905.236,874.283 908.5,867.5 Z"/></g>
<g><path style="opacity:1" fill="#75e986" d="M 918.5,870.5 C 918.007,872.806 917.674,875.139 917.5,877.5C 915.167,880.167 912.833,882.833 910.5,885.5C 912.842,880.986 914.842,876.319 916.5,871.5C 917.167,871.167 917.833,870.833 918.5,870.5 Z"/></g>
<g><path style="opacity:1" fill="#c4f5cb" d="M 169.5,865.5 C 170.167,866.167 170.833,866.833 171.5,867.5C 173.853,872.692 176.519,877.692 179.5,882.5C 179.5,883.167 179.5,883.833 179.5,884.5C 178.504,884.586 177.671,884.252 177,883.5C 176.056,880.539 174.89,877.706 173.5,875C 172.59,873.251 171.257,872.084 169.5,871.5C 169.5,869.5 169.5,867.5 169.5,865.5 Z"/></g>
<g><path style="opacity:1" fill="#65e678" d="M 917.5,877.5 C 917.5,878.833 917.5,880.167 917.5,881.5C 916.188,883.641 914.355,885.308 912,886.5C 911.209,887.745 910.709,889.078 910.5,890.5C 908.97,891.211 907.637,892.211 906.5,893.5C 907.429,890.588 908.762,887.921 910.5,885.5C 912.833,882.833 915.167,880.167 917.5,877.5 Z"/></g>
<g><path style="opacity:1" fill="#9aefa6" d="M 913.5,874.5 C 911.717,880.062 908.884,885.062 905,889.5C 899.198,894.3 893.698,899.467 888.5,905C 887.255,905.791 885.922,906.291 884.5,906.5C 889.806,901.86 894.806,896.86 899.5,891.5C 900.786,888.883 902.453,886.55 904.5,884.5C 907.13,880.868 910.13,877.535 913.5,874.5 Z"/></g>
<g><path style="opacity:1" fill="#a7f1b2" d="M 165.5,866.5 C 166.691,868.327 168.025,869.993 169.5,871.5C 170.548,875.366 172.048,879.033 174,882.5C 178.481,888.979 183.648,894.812 189.5,900C 195.968,903.981 202.635,907.481 209.5,910.5C 210.492,910.328 211.158,910.662 211.5,911.5C 212.984,913.074 214.651,914.407 216.5,915.5C 214.833,915.5 213.167,915.5 211.5,915.5C 210.5,914.833 209.5,914.167 208.5,913.5C 201.995,909.413 195.328,905.58 188.5,902C 184.997,897.331 180.997,893.164 176.5,889.5C 172.844,886.197 170.178,882.197 168.5,877.5C 167.2,873.904 166.2,870.237 165.5,866.5 Z"/></g>
<g><path style="opacity:1" fill="#b7f3c0" d="M 169.5,871.5 C 171.257,872.084 172.59,873.251 173.5,875C 174.89,877.706 176.056,880.539 177,883.5C 177.671,884.252 178.504,884.586 179.5,884.5C 181.167,885.833 182.833,887.167 184.5,888.5C 186.284,890.948 187.618,893.615 188.5,896.5C 192.443,897.588 195.776,899.754 198.5,903C 200.65,904.411 202.984,905.245 205.5,905.5C 206.391,906.11 207.391,906.443 208.5,906.5C 208.833,907.833 209.167,909.167 209.5,910.5C 202.635,907.481 195.968,903.981 189.5,900C 183.648,894.812 178.481,888.979 174,882.5C 172.048,879.033 170.548,875.366 169.5,871.5 Z"/></g>
<g><path style="opacity:1" fill="#86eb95" d="M 916.5,871.5 C 914.842,876.319 912.842,880.986 910.5,885.5C 904.803,892.705 898.47,899.538 891.5,906C 886.705,909.634 881.705,912.801 876.5,915.5C 874.716,916.956 872.716,917.956 870.5,918.5C 863.774,920.439 857.108,922.606 850.5,925C 844.865,925.904 839.198,926.404 833.5,926.5C 688.999,926.833 544.666,926.5 400.5,925.5C 542.834,925.667 685.167,925.5 827.5,925C 843.265,925.114 858.265,921.78 872.5,915C 874.945,913.222 877.611,911.889 880.5,911C 882.041,909.629 883.375,908.129 884.5,906.5C 885.922,906.291 887.255,905.791 888.5,905C 893.698,899.467 899.198,894.3 905,889.5C 908.884,885.062 911.717,880.062 913.5,874.5C 914.272,873.306 915.272,872.306 916.5,871.5 Z"/></g>
<g><path style="opacity:1" fill="#26dc41" d="M 142.5,474.5 C 142.333,595.834 142.5,717.167 143,838.5C 143.186,841.036 143.686,843.369 144.5,845.5C 145.227,850.417 146.56,855.083 148.5,859.5C 148.523,861.927 149.023,864.26 150,866.5C 154.622,873.372 158.289,880.705 161,888.5C 162.049,890.618 163.549,892.284 165.5,893.5C 169.55,899.728 174.216,905.562 179.5,911C 186.37,914.935 192.704,919.602 198.5,925C 212.164,930.699 226.498,933.533 241.5,933.5C 268.981,935.107 296.648,935.94 324.5,936C 491.832,937.274 659.165,937.608 826.5,937C 835.217,936.592 843.884,935.759 852.5,934.5C 846.146,936.627 839.479,937.793 832.5,938C 654.498,938.807 476.498,938.473 298.5,937C 277.822,936.658 257.156,935.992 236.5,935C 221.75,933.748 207.583,930.248 194,924.5C 176.977,912.635 163.143,897.635 152.5,879.5C 149.995,876.988 148.328,873.988 147.5,870.5C 145.505,860.554 143.672,850.554 142,840.5C 141.167,718.333 141.334,596.333 142.5,474.5 Z"/></g>
<g><path style="opacity:1" fill="#1adb37" d="M 842.5,939.5 C 840.031,940.317 837.365,940.817 834.5,941C 703.033,941.423 572.533,941.589 443,941.5C 381.021,940.912 319.188,939.912 257.5,938.5C 260.503,937.797 263.669,937.464 267,937.5C 287.709,938.156 308.376,938.822 329,939.5C 331.243,938.863 333.576,938.53 336,938.5C 473.16,939.33 610.327,939.997 747.5,940.5C 779.176,940.461 810.843,940.127 842.5,939.5 Z"/></g>
<g><path style="opacity:1" fill="#1fdb3b" d="M 930.5,873.5 C 927.773,880.679 924.606,887.679 921,894.5C 915.425,899.405 910.591,904.905 906.5,911C 900.601,914.549 894.934,918.549 889.5,923C 878.629,929.103 867.296,934.103 855.5,938C 851.083,938.228 846.75,938.728 842.5,939.5C 810.843,940.127 779.176,940.461 747.5,940.5C 610.327,939.997 473.16,939.33 336,938.5C 333.576,938.53 331.243,938.863 329,939.5C 308.376,938.822 287.709,938.156 267,937.5C 263.669,937.464 260.503,937.797 257.5,938.5C 239.887,938.06 222.387,935.726 205,931.5C 199.655,928.742 194.155,926.409 188.5,924.5C 188.67,923.178 188.337,922.011 187.5,921C 180.77,916.781 174.437,911.948 168.5,906.5C 163.14,899.641 157.974,892.641 153,885.5C 152.505,883.527 152.338,881.527 152.5,879.5C 163.143,897.635 176.977,912.635 194,924.5C 207.583,930.248 221.75,933.748 236.5,935C 257.156,935.992 277.822,936.658 298.5,937C 476.498,938.473 654.498,938.807 832.5,938C 839.479,937.793 846.146,936.627 852.5,934.5C 852.5,934.167 852.5,933.833 852.5,933.5C 855.518,933.665 858.518,933.498 861.5,933C 873.337,929.388 884.337,924.055 894.5,917C 908.851,904.355 920.851,889.855 930.5,873.5 Z"/></g>
<g><path style="opacity:1" fill="#2ddd47" d="M 241.5,933.5 C 243.833,933.5 246.167,933.5 248.5,933.5C 445.161,935.496 641.827,935.996 838.5,935C 843.156,934.335 847.823,933.835 852.5,933.5C 852.5,933.833 852.5,934.167 852.5,934.5C 843.884,935.759 835.217,936.592 826.5,937C 659.165,937.608 491.832,937.274 324.5,936C 296.648,935.94 268.981,935.107 241.5,933.5 Z"/></g>
<g><path style="opacity:1" fill="#36df4f" d="M 896.5,911.5 C 892.975,915.183 888.975,918.35 884.5,921C 874.213,926.478 863.546,930.645 852.5,933.5C 847.823,933.835 843.156,934.335 838.5,935C 641.827,935.996 445.161,935.496 248.5,933.5C 248.5,933.167 248.5,932.833 248.5,932.5C 305.497,933.269 362.497,933.602 419.5,933.5C 558.666,934.666 697.999,934.833 837.5,934C 840.365,933.817 843.031,933.317 845.5,932.5C 854.908,930.297 864.241,927.797 873.5,925C 878.163,921.668 882.83,918.334 887.5,915C 890.6,914.061 893.6,912.895 896.5,911.5 Z"/></g>
<g><path style="opacity:1" fill="#3de056" d="M 830.5,932.5 C 831.833,932.5 833.167,932.5 834.5,932.5C 838.167,932.5 841.833,932.5 845.5,932.5C 843.031,933.317 840.365,933.817 837.5,934C 697.999,934.833 558.666,934.666 419.5,933.5C 556.668,933.833 693.668,933.5 830.5,932.5 Z"/></g>
<g><path style="opacity:1" fill="#42e15a" d="M 169.5,895.5 C 172.634,898.822 175.967,901.822 179.5,904.5C 183.291,907.118 186.957,909.951 190.5,913C 191.448,913.483 192.448,913.649 193.5,913.5C 196.208,916.377 199.208,919.043 202.5,921.5C 205.447,922.423 208.447,923.089 211.5,923.5C 220.663,927.31 230.329,929.31 240.5,929.5C 271.651,931.17 302.984,931.837 334.5,931.5C 499.826,932.483 665.159,932.817 830.5,932.5C 693.668,933.5 556.668,933.833 419.5,933.5C 362.497,933.602 305.497,933.269 248.5,932.5C 223.406,932.94 201.072,925.44 181.5,910C 176.54,905.881 172.54,901.048 169.5,895.5 Z"/></g>
<g><path style="opacity:1" fill="#31de4a" d="M 165.5,893.5 C 166.605,894.6 167.938,895.267 169.5,895.5C 172.54,901.048 176.54,905.881 181.5,910C 201.072,925.44 223.406,932.94 248.5,932.5C 248.5,932.833 248.5,933.167 248.5,933.5C 246.167,933.5 243.833,933.5 241.5,933.5C 226.498,933.533 212.164,930.699 198.5,925C 192.704,919.602 186.37,914.935 179.5,911C 174.216,905.562 169.55,899.728 165.5,893.5 Z"/></g>
<g><path style="opacity:1" fill="#56e46b" d="M 890.5,910.5 C 886.255,915.236 881.255,919.069 875.5,922C 862.328,927.336 848.662,930.502 834.5,931.5C 715.665,931.833 596.999,931.5 478.5,930.5C 597.668,930.833 716.668,930.5 835.5,929.5C 852.713,928.579 868.713,923.746 883.5,915C 884.381,914.292 885.047,913.458 885.5,912.5C 887.167,911.833 888.833,911.167 890.5,910.5 Z"/></g>
<g><path style="opacity:1" fill="#50e366" d="M 282.5,929.5 C 347.832,930.03 413.165,930.364 478.5,930.5C 596.999,931.5 715.665,931.833 834.5,931.5C 834.5,931.833 834.5,932.167 834.5,932.5C 833.167,932.5 831.833,932.5 830.5,932.5C 665.159,932.817 499.826,932.483 334.5,931.5C 317.167,930.833 299.833,930.167 282.5,929.5 Z"/></g>
<g><path style="opacity:1" fill="#4be262" d="M 240.5,929.5 C 250.5,929.5 260.5,929.5 270.5,929.5C 274.5,929.5 278.5,929.5 282.5,929.5C 299.833,930.167 317.167,930.833 334.5,931.5C 302.984,931.837 271.651,931.17 240.5,929.5 Z"/></g>
<g><path style="opacity:1" fill="#5fe573" d="M 270.5,929.5 C 270.5,929.167 270.5,928.833 270.5,928.5C 291.833,928.5 313.167,928.5 334.5,928.5C 349.5,928.5 364.5,928.5 379.5,928.5C 531.332,929.5 683.332,929.833 835.5,929.5C 716.668,930.5 597.668,930.833 478.5,930.5C 413.165,930.364 347.832,930.03 282.5,929.5C 278.5,929.5 274.5,929.5 270.5,929.5 Z"/></g>
<g><path style="opacity:1" fill="#45e15c" d="M 913.5,890.5 C 913.092,893.198 911.926,895.531 910,897.5C 905.275,902.056 900.775,906.723 896.5,911.5C 893.6,912.895 890.6,914.061 887.5,915C 882.83,918.334 878.163,921.668 873.5,925C 864.241,927.797 854.908,930.297 845.5,932.5C 841.833,932.5 838.167,932.5 834.5,932.5C 834.5,932.167 834.5,931.833 834.5,931.5C 848.662,930.502 862.328,927.336 875.5,922C 881.255,919.069 886.255,915.236 890.5,910.5C 896.116,906.885 901.45,902.885 906.5,898.5C 908.833,895.833 911.167,893.167 913.5,890.5 Z"/></g>
<g><path style="opacity:1" fill="#69e77c" d="M 885.5,912.5 C 885.047,913.458 884.381,914.292 883.5,915C 868.713,923.746 852.713,928.579 835.5,929.5C 683.332,929.833 531.332,929.5 379.5,928.5C 533.5,928.667 687.5,928.5 841.5,928C 847.826,926.749 854.16,925.416 860.5,924C 864.607,923.371 867.94,921.537 870.5,918.5C 872.716,917.956 874.716,916.956 876.5,915.5C 879.406,914.213 882.406,913.213 885.5,912.5 Z"/></g>
<g><path style="opacity:1" fill="#74e885" d="M 870.5,918.5 C 867.94,921.537 864.607,923.371 860.5,924C 854.16,925.416 847.826,926.749 841.5,928C 687.5,928.5 533.5,928.667 379.5,928.5C 364.5,928.5 349.5,928.5 334.5,928.5C 334.5,928.167 334.5,927.833 334.5,927.5C 501.001,927.833 667.334,927.5 833.5,926.5C 839.198,926.404 844.865,925.904 850.5,925C 857.108,922.606 863.774,920.439 870.5,918.5 Z"/></g>
<g><path style="opacity:1" fill="#54e369" d="M 211.5,923.5 C 230.986,927.078 250.653,928.745 270.5,928.5C 270.5,928.833 270.5,929.167 270.5,929.5C 260.5,929.5 250.5,929.5 240.5,929.5C 230.329,929.31 220.663,927.31 211.5,923.5 Z"/></g>
<g><path style="opacity:1" fill="#7eea8e" d="M 248.5,924.5 C 294.162,925.313 339.828,925.646 385.5,925.5C 390.5,925.5 395.5,925.5 400.5,925.5C 544.666,926.5 688.999,926.833 833.5,926.5C 667.334,927.5 501.001,927.833 334.5,927.5C 310.843,926.679 287.176,926.345 263.5,926.5C 258.5,925.833 253.5,925.167 248.5,924.5 Z"/></g>
<g><path style="opacity:1" fill="#94eea2" d="M 884.5,906.5 C 883.375,908.129 882.041,909.629 880.5,911C 877.611,911.889 874.945,913.222 872.5,915C 858.265,921.78 843.265,925.114 827.5,925C 685.167,925.5 542.834,925.667 400.5,925.5C 395.5,925.5 390.5,925.5 385.5,925.5C 376.014,924.506 366.348,924.173 356.5,924.5C 337.167,923.833 317.833,923.167 298.5,922.5C 477.999,923.712 657.332,923.712 836.5,922.5C 845.021,922.096 853.355,920.596 861.5,918C 862.942,917.623 863.942,916.79 864.5,915.5C 866.564,915.313 868.564,914.813 870.5,914C 875.093,911.206 879.76,908.706 884.5,906.5 Z"/></g>
<g><path style="opacity:1" fill="#8eed9c" d="M 261.5,922.5 C 270.5,922.5 279.5,922.5 288.5,922.5C 291.833,922.5 295.167,922.5 298.5,922.5C 317.833,923.167 337.167,923.833 356.5,924.5C 324.648,924.927 292.981,924.26 261.5,922.5 Z"/></g>
<g><path style="opacity:1" fill="#86eb95" d="M 169.5,885.5 C 171.833,887.5 174.167,889.5 176.5,891.5C 180.997,895.164 184.997,899.331 188.5,904C 194.265,906.632 199.598,909.799 204.5,913.5C 210.803,918.585 218.136,920.918 226.5,920.5C 238.086,922.103 249.753,922.769 261.5,922.5C 292.981,924.26 324.648,924.927 356.5,924.5C 366.348,924.173 376.014,924.506 385.5,925.5C 339.828,925.646 294.162,925.313 248.5,924.5C 231.963,924.984 216.296,921.817 201.5,915C 197.5,912.333 193.5,909.667 189.5,907C 184.795,901.155 179.462,895.988 173.5,891.5C 171.782,889.777 170.449,887.777 169.5,885.5 Z"/></g>
<g><path style="opacity:1" fill="#66e679" d="M 206.5,919.5 C 225.048,925.127 244.048,927.46 263.5,926.5C 287.176,926.345 310.843,926.679 334.5,927.5C 334.5,927.833 334.5,928.167 334.5,928.5C 313.167,928.5 291.833,928.5 270.5,928.5C 250.653,928.745 230.986,927.078 211.5,923.5C 209.673,922.309 208.007,920.975 206.5,919.5 Z"/></g>
<g><path style="opacity:1" fill="#a9f1b4" d="M 864.5,915.5 C 863.942,916.79 862.942,917.623 861.5,918C 853.355,920.596 845.021,922.096 836.5,922.5C 719.332,922.833 602.332,922.5 485.5,921.5C 601.668,921.833 717.668,921.5 833.5,920.5C 844.184,920.762 854.517,919.095 864.5,915.5 Z"/></g>
<g><path style="opacity:1" fill="#a4f0af" d="M 239.5,919.5 C 276.497,920.124 313.497,920.458 350.5,920.5C 395.487,921.458 440.487,921.791 485.5,921.5C 602.332,922.5 719.332,922.833 836.5,922.5C 657.332,923.712 477.999,923.712 298.5,922.5C 295.167,922.5 291.833,922.5 288.5,922.5C 272.183,921.188 255.85,920.188 239.5,919.5 Z"/></g>
<g><path style="opacity:1" fill="#b4f3bd" d="M 285.5,918.5 C 468.165,919.378 650.832,919.711 833.5,919.5C 833.5,919.833 833.5,920.167 833.5,920.5C 717.668,921.5 601.668,921.833 485.5,921.5C 440.487,921.791 395.487,921.458 350.5,920.5C 328.833,919.833 307.167,919.167 285.5,918.5 Z"/></g>
<g><path style="opacity:1" fill="#aef2b8" d="M 216.5,915.5 C 226.132,916.63 235.798,917.296 245.5,917.5C 258.656,918.496 271.99,918.829 285.5,918.5C 307.167,919.167 328.833,919.833 350.5,920.5C 313.497,920.458 276.497,920.124 239.5,919.5C 231.486,919.428 223.82,918.094 216.5,915.5 Z"/></g>
<g><path style="opacity:1" fill="#8eed9c" d="M 204.5,913.5 C 205.833,913.5 207.167,913.5 208.5,913.5C 209.5,914.167 210.5,914.833 211.5,915.5C 216.36,917.631 221.36,919.297 226.5,920.5C 218.136,920.918 210.803,918.585 204.5,913.5 Z"/></g>
<g><path style="opacity:1" fill="#71e883" d="M 173.5,891.5 C 179.462,895.988 184.795,901.155 189.5,907C 193.5,909.667 197.5,912.333 201.5,915C 216.296,921.817 231.963,924.984 248.5,924.5C 253.5,925.167 258.5,925.833 263.5,926.5C 244.048,927.46 225.048,925.127 206.5,919.5C 202.198,917.656 197.865,915.656 193.5,913.5C 187.86,908.839 182.527,903.839 177.5,898.5C 176.167,896.167 174.833,893.833 173.5,891.5 Z"/></g>
<g><path style="opacity:1" fill="#c5f5cc" d="M 226.5,913.5 C 228.5,913.5 230.5,913.5 232.5,913.5C 246.832,913.864 261.166,914.197 275.5,914.5C 298.165,914.941 320.831,915.275 343.5,915.5C 507.665,916.93 671.999,917.43 836.5,917C 841.496,916.389 846.496,915.889 851.5,915.5C 846.816,917.451 841.816,918.451 836.5,918.5C 710.166,918.667 583.833,918.5 457.5,918C 382.819,917.965 308.152,917.132 233.5,915.5C 230.612,916.01 228.279,915.344 226.5,913.5 Z"/></g>
<g><path style="opacity:1" fill="#bbf4c4" d="M 233.5,915.5 C 308.152,917.132 382.819,917.965 457.5,918C 583.833,918.5 710.166,918.667 836.5,918.5C 835.791,919.404 834.791,919.737 833.5,919.5C 650.832,919.711 468.165,919.378 285.5,918.5C 271.99,918.829 258.656,918.496 245.5,917.5C 241.5,916.833 237.5,916.167 233.5,915.5 Z"/></g>
<g><path style="opacity:1" fill="#d9f9dd" d="M 863.5,910.5 C 860.241,911.671 857.241,913.338 854.5,915.5C 853.5,915.5 852.5,915.5 851.5,915.5C 846.496,915.889 841.496,916.389 836.5,917C 671.999,917.43 507.665,916.93 343.5,915.5C 509.834,915.667 676.167,915.5 842.5,915C 849.621,913.943 856.621,912.443 863.5,910.5 Z"/></g>
<g><path style="opacity:1" fill="#57e46c" d="M 193.5,913.5 C 197.865,915.656 202.198,917.656 206.5,919.5C 208.007,920.975 209.673,922.309 211.5,923.5C 208.447,923.089 205.447,922.423 202.5,921.5C 199.208,919.043 196.208,916.377 193.5,913.5 Z"/></g>
<g><path style="opacity:1" fill="#9aefa7" d="M 211.5,915.5 C 213.167,915.5 214.833,915.5 216.5,915.5C 223.82,918.094 231.486,919.428 239.5,919.5C 255.85,920.188 272.183,921.188 288.5,922.5C 279.5,922.5 270.5,922.5 261.5,922.5C 249.753,922.769 238.086,922.103 226.5,920.5C 221.36,919.297 216.36,917.631 211.5,915.5 Z"/></g>
<g><path style="opacity:1" fill="#eafbed" d="M 232.5,913.5 C 232.5,913.167 232.5,912.833 232.5,912.5C 247.025,912.368 261.359,913.035 275.5,914.5C 261.166,914.197 246.832,913.864 232.5,913.5 Z"/></g>
<g><path style="opacity:1" fill="#b6f3bf" d="M 211.5,911.5 C 216.452,912.492 221.452,913.158 226.5,913.5C 228.279,915.344 230.612,916.01 233.5,915.5C 237.5,916.167 241.5,916.833 245.5,917.5C 235.798,917.296 226.132,916.63 216.5,915.5C 214.651,914.407 212.984,913.074 211.5,911.5 Z"/></g>
<g><path style="opacity:1" fill="#cbf7d2" d="M 208.5,906.5 C 210.722,907.688 213.055,908.688 215.5,909.5C 217.102,911.074 219.102,911.741 221.5,911.5C 225.099,912.344 228.766,912.677 232.5,912.5C 232.5,912.833 232.5,913.167 232.5,913.5C 230.5,913.5 228.5,913.5 226.5,913.5C 221.452,913.158 216.452,912.492 211.5,911.5C 211.158,910.662 210.492,910.328 209.5,910.5C 209.167,909.167 208.833,907.833 208.5,906.5 Z"/></g>
<g><path style="opacity:1" fill="#b2f2bb" d="M 887.5,899.5 C 885.245,901.986 882.911,904.486 880.5,907C 875.003,909.698 869.669,912.531 864.5,915.5C 854.517,919.095 844.184,920.762 833.5,920.5C 833.5,920.167 833.5,919.833 833.5,919.5C 834.791,919.737 835.791,919.404 836.5,918.5C 841.816,918.451 846.816,917.451 851.5,915.5C 852.5,915.5 853.5,915.5 854.5,915.5C 858.693,915.047 862.693,913.881 866.5,912C 873.853,908.327 880.853,904.161 887.5,899.5 Z"/></g>
<g><path style="opacity:1" fill="#eefcf0" d="M 215.5,909.5 C 217.898,909.259 219.898,909.926 221.5,911.5C 219.102,911.741 217.102,911.074 215.5,909.5 Z"/></g>
<g><path style="opacity:1" fill="#d3f8d8" d="M 876.5,903.5 C 876.063,905.074 875.063,906.241 873.5,907C 870.252,908.46 866.919,909.626 863.5,910.5C 867.557,907.806 871.89,905.473 876.5,903.5 Z"/></g>
<g><path style="opacity:1" fill="#98eea5" d="M 176.5,889.5 C 180.997,893.164 184.997,897.331 188.5,902C 195.328,905.58 201.995,909.413 208.5,913.5C 207.167,913.5 205.833,913.5 204.5,913.5C 199.598,909.799 194.265,906.632 188.5,904C 184.997,899.331 180.997,895.164 176.5,891.5C 176.5,890.833 176.5,890.167 176.5,889.5 Z"/></g>
<g><path style="opacity:1" fill="#5ce570" d="M 177.5,898.5 C 182.527,903.839 187.86,908.839 193.5,913.5C 192.448,913.649 191.448,913.483 190.5,913C 186.957,909.951 183.291,907.118 179.5,904.5C 178.37,902.685 177.704,900.685 177.5,898.5 Z"/></g>
<g><path style="opacity:1" fill="#a7f1b2" d="M 899.5,891.5 C 894.806,896.86 889.806,901.86 884.5,906.5C 879.76,908.706 875.093,911.206 870.5,914C 868.564,914.813 866.564,915.313 864.5,915.5C 869.669,912.531 875.003,909.698 880.5,907C 882.911,904.486 885.245,901.986 887.5,899.5C 891.493,896.89 895.493,894.223 899.5,891.5 Z"/></g>
<g><path style="opacity:1" fill="#e3fae6" d="M 205.5,905.5 C 205.5,905.167 205.5,904.833 205.5,904.5C 207.027,904.427 208.027,905.094 208.5,906.5C 207.391,906.443 206.391,906.11 205.5,905.5 Z"/></g>
<g><path style="opacity:1" fill="#c7f6ce" d="M 184.5,888.5 C 188.998,892.83 193.665,896.997 198.5,901C 200.577,902.705 202.91,903.872 205.5,904.5C 205.5,904.833 205.5,905.167 205.5,905.5C 202.984,905.245 200.65,904.411 198.5,903C 195.776,899.754 192.443,897.588 188.5,896.5C 187.618,893.615 186.284,890.948 184.5,888.5 Z"/></g>
<g><path style="opacity:1" fill="#72e883" d="M 910.5,885.5 C 908.762,887.921 907.429,890.588 906.5,893.5C 900.49,898.51 895.157,904.177 890.5,910.5C 888.833,911.167 887.167,911.833 885.5,912.5C 882.406,913.213 879.406,914.213 876.5,915.5C 881.705,912.801 886.705,909.634 891.5,906C 898.47,899.538 904.803,892.705 910.5,885.5 Z"/></g>
<g><path style="opacity:1" fill="#bef4c6" d="M 901.5,883.5 C 900.199,884.882 899.366,886.548 899,888.5C 894.618,891.718 890.784,895.385 887.5,899.5C 880.853,904.161 873.853,908.327 866.5,912C 862.693,913.881 858.693,915.047 854.5,915.5C 857.241,913.338 860.241,911.671 863.5,910.5C 866.919,909.626 870.252,908.46 873.5,907C 875.063,906.241 876.063,905.074 876.5,903.5C 877.167,903.167 877.833,902.833 878.5,902.5C 882.02,901.647 884.687,899.647 886.5,896.5C 890.833,894.167 894.167,890.833 896.5,886.5C 897.922,885.075 899.589,884.075 901.5,883.5 Z"/></g>
<g><path style="opacity:1" fill="#d2f8d7" d="M 886.5,896.5 C 884.687,899.647 882.02,901.647 878.5,902.5C 880.878,900.122 883.545,898.122 886.5,896.5 Z"/></g>
<g><path style="opacity:1" fill="#5be46f" d="M 910.5,890.5 C 909.167,893.167 907.833,895.833 906.5,898.5C 901.45,902.885 896.116,906.885 890.5,910.5C 895.157,904.177 900.49,898.51 906.5,893.5C 907.637,892.211 908.97,891.211 910.5,890.5 Z"/></g>
<g><path style="opacity:1" fill="#4fe365" d="M 917.5,881.5 C 916.167,884.5 914.833,887.5 913.5,890.5C 911.167,893.167 908.833,895.833 906.5,898.5C 907.833,895.833 909.167,893.167 910.5,890.5C 910.709,889.078 911.209,887.745 912,886.5C 914.355,885.308 916.188,883.641 917.5,881.5 Z"/></g>
<g><path style="opacity:1" fill="#d5f8da" d="M 896.5,886.5 C 894.167,890.833 890.833,894.167 886.5,896.5C 889.5,892.833 892.833,889.5 896.5,886.5 Z"/></g>
<g><path style="opacity:1" fill="#d3f8d8" d="M 179.5,882.5 C 181.914,883.911 183.581,885.911 184.5,888.5C 182.833,887.167 181.167,885.833 179.5,884.5C 179.5,883.833 179.5,883.167 179.5,882.5 Z"/></g>
<g><path style="opacity:1" fill="#6be77e" d="M 164.5,879.5 C 164.833,879.5 165.167,879.5 165.5,879.5C 167.326,881.147 168.66,883.147 169.5,885.5C 170.449,887.777 171.782,889.777 173.5,891.5C 174.833,893.833 176.167,896.167 177.5,898.5C 171.505,894.211 167.172,888.544 164.5,881.5C 164.5,880.833 164.5,880.167 164.5,879.5 Z"/></g>
</svg>
