<?xml version="1.0" encoding="UTF-8"?>
<!DOCTYPE svg PUBLIC "-//W3C//DTD SVG 1.1//EN" "http://www.w3.org/Graphics/SVG/1.1/DTD/svg11.dtd">
<svg xmlns="http://www.w3.org/2000/svg" version="1.1" width="1080px" height="1080px" style="shape-rendering:geometricPrecision; text-rendering:geometricPrecision; image-rendering:optimizeQuality; fill-rule:evenodd; clip-rule:evenodd" xmlns:xlink="http://www.w3.org/1999/xlink">
<g><path style="opacity:0.999" fill="#4eabcc" d="M 217.5,-0.5 C 432.167,-0.5 646.833,-0.5 861.5,-0.5C 950.766,11.0289 1015.93,56.6956 1057,136.5C 1068.92,162.4 1076.42,189.4 1079.5,217.5C 1079.5,432.167 1079.5,646.833 1079.5,861.5C 1067.97,950.766 1022.3,1015.93 942.5,1057C 916.6,1068.92 889.6,1076.42 861.5,1079.5C 646.833,1079.5 432.167,1079.5 217.5,1079.5C 128.234,1067.97 63.0669,1022.3 22,942.5C 10.0826,916.6 2.58256,889.6 -0.5,861.5C -0.5,646.833 -0.5,432.167 -0.5,217.5C 11.0289,128.234 56.6956,63.0669 136.5,22C 162.4,10.0826 189.4,2.58256 217.5,-0.5 Z"/></g>
<g><path style="opacity:1" fill="#54aecd" d="M 218.5,412.5 C 393.845,412.545 569.178,413.211 744.5,414.5C 746.228,414.41 747.894,414.077 749.5,413.5C 775.363,414.162 801.196,414.829 827,415.5C 827.414,415.043 827.914,414.709 828.5,414.5C 839.697,415.156 850.863,415.823 862,416.5C 925.265,414.604 967.265,444.271 988,505.5C 999.859,554.62 987.692,597.12 951.5,633C 931.496,650.574 908.163,661.24 881.5,665C 783.647,666.474 686.147,666.974 589,666.5C 476.84,665.804 364.673,664.97 252.5,664C 229.795,663.806 207.128,662.806 184.5,661C 165.374,657.831 148.374,650.164 133.5,638C 98.5922,606.847 83.2588,568.513 87.5,523C 96.6023,471.574 125.602,436.907 174.5,419C 189.059,415.11 203.726,412.943 218.5,412.5 Z"/></g>
<g><path style="opacity:1" fill="#5ab1cf" d="M 216.5,416.5 C 334.594,417.073 449.427,417.073 561,416.5C 618.667,417.167 676.333,417.833 734,418.5C 745.081,418.028 755.914,417.695 766.5,417.5C 801.132,418.291 835.799,419.124 870.5,420C 912.9,420.446 945.733,438.28 969,473.5C 994.874,517.228 994.874,561.228 969,605.5C 946.783,638.706 915.616,657.206 875.5,661C 704.186,661.496 533.019,661.663 362,661.5C 312.232,660.715 262.399,659.882 212.5,659C 159.032,658.697 121.532,634.197 100,585.5C 84.3032,543.11 89.3032,503.443 115,466.5C 140.982,434.045 174.816,417.378 216.5,416.5 Z"/></g>
<g><path style="opacity:1" fill="#61b4d1" d="M 208.5,419.5 C 352.174,419.554 494.674,419.554 636,419.5C 685.719,420.158 735.386,420.824 785,421.5C 789.625,420.525 794.459,420.192 799.5,420.5C 816.833,421.167 834.167,421.833 851.5,422.5C 907.484,417.41 948.651,439.744 975,489.5C 993.494,535.838 987.494,578.505 957,617.5C 932.999,644.006 903.332,658.006 868,659.5C 696.573,659.38 528.24,659.38 363,659.5C 334.196,658.829 305.363,658.163 276.5,657.5C 272.755,658.069 269.089,658.403 265.5,658.5C 251.97,657.842 238.47,657.175 225,656.5C 180.016,660.625 143.682,644.958 116,609.5C 86.0035,562.864 86.0035,516.197 116,469.5C 139.498,439.333 170.331,422.667 208.5,419.5 Z"/></g>
<g><path style="opacity:1" fill="#67b7d3" d="M 952.5,460.5 C 940.692,449.098 927.359,439.931 912.5,433C 906.275,430.925 899.941,429.258 893.5,428C 878.636,426.485 863.803,425.319 849,424.5C 846.738,424.713 844.238,425.046 841.5,425.5C 820.607,424.873 799.774,424.207 779,423.5C 776.287,423.934 773.287,424.268 770,424.5C 584.903,422.901 399.736,422.401 214.5,423C 201.568,423.324 188.902,425.324 176.5,429C 174.934,429.608 173.6,430.442 172.5,431.5C 141.486,443.01 119.32,464.01 106,494.5C 103.817,500.609 101.651,506.609 99.5,512.5C 109.385,472.11 133.718,444.277 172.5,429C 182.854,425.262 193.521,422.929 204.5,422C 215.41,421.821 226.243,421.321 237,420.5C 386.77,421.103 537.103,421.769 688,422.5C 695.928,421.876 704.428,421.543 713.5,421.5C 769.632,422.216 825.632,423.383 881.5,425C 910.452,426.809 934.118,438.642 952.5,460.5 Z"/></g>
<g><path style="opacity:1" fill="#71bbd6" d="M 952.5,460.5 C 956.769,464.313 960.602,468.646 964,473.5C 965.122,475.407 965.955,477.407 966.5,479.5C 991.941,529.326 986.775,575.993 951,619.5C 939.163,631.662 925.33,640.662 909.5,646.5C 916.442,641.75 923.775,637.583 931.5,634C 932.386,632.385 933.386,630.885 934.5,629.5C 937.932,626.7 940.932,623.366 943.5,619.5C 948.126,616.046 952.626,612.379 957,608.5C 963.867,598.305 969.867,587.639 975,576.5C 977.753,564.483 979.253,552.316 979.5,540C 979.559,531.142 978.225,522.642 975.5,514.5C 974.691,503.239 971.191,492.906 965,483.5C 964.51,482.207 964.343,480.873 964.5,479.5C 961.5,479.833 960.167,478.5 960.5,475.5C 959.5,475.5 958.5,475.5 957.5,475.5C 956.387,470.378 953.387,466.712 948.5,464.5C 946.003,460.508 943.003,457.008 939.5,454C 934.804,449.979 929.804,446.312 924.5,443C 922.482,442.495 920.482,441.995 918.5,441.5C 912.51,437.171 905.843,433.838 898.5,431.5C 895.551,430.698 892.551,430.364 889.5,430.5C 881.384,428.987 873.051,428.154 864.5,428C 819.507,426.928 774.507,426.261 729.5,426C 597.333,425.167 465.333,425.334 333.5,426.5C 316.572,425.84 299.572,425.507 282.5,425.5C 257.649,425.326 232.982,425.992 208.5,427.5C 197.719,428.014 187.053,429.348 176.5,431.5C 175.167,431.5 173.833,431.5 172.5,431.5C 173.6,430.442 174.934,429.608 176.5,429C 188.902,425.324 201.568,423.324 214.5,423C 399.736,422.401 584.903,422.901 770,424.5C 773.287,424.268 776.287,423.934 779,423.5C 799.774,424.207 820.607,424.873 841.5,425.5C 844.238,425.046 846.738,424.713 849,424.5C 863.803,425.319 878.636,426.485 893.5,428C 899.941,429.258 906.275,430.925 912.5,433C 927.359,439.931 940.692,449.098 952.5,460.5 Z"/></g>
<g><path style="opacity:1" fill="#7abfd8" d="M 333.5,426.5 C 465.333,425.334 597.333,425.167 729.5,426C 774.507,426.261 819.507,426.928 864.5,428C 873.051,428.154 881.384,428.987 889.5,430.5C 835.752,428.137 781.752,426.97 727.5,427C 596.167,426.5 464.834,426.333 333.5,426.5 Z"/></g>
<g><path style="opacity:1" fill="#81c3da" d="M 333.5,426.5 C 464.834,426.333 596.167,426.5 727.5,427C 781.752,426.97 835.752,428.137 889.5,430.5C 892.551,430.364 895.551,430.698 898.5,431.5C 905.843,433.838 912.51,437.171 918.5,441.5C 915.327,440.83 912.327,439.664 909.5,438C 899.103,435.969 888.769,433.969 878.5,432C 856.148,431.091 833.815,430.257 811.5,429.5C 771.669,428.667 731.669,428.167 691.5,428C 530.5,427.5 369.5,427.333 208.5,427.5C 232.982,425.992 257.649,425.326 282.5,425.5C 299.572,425.507 316.572,425.84 333.5,426.5 Z"/></g>
<g><path style="opacity:1" fill="#92cbdf" d="M 811.5,429.5 C 833.815,430.257 856.148,431.091 878.5,432C 888.769,433.969 899.103,435.969 909.5,438C 912.327,439.664 915.327,440.83 918.5,441.5C 918.414,442.496 918.748,443.329 919.5,444C 922.376,444.438 925.043,445.438 927.5,447C 929.314,450.142 931.481,452.975 934,455.5C 938.281,457.616 941.781,460.616 944.5,464.5C 940.064,461.106 935.397,457.939 930.5,455C 928.457,453.292 926.79,451.292 925.5,449C 920.396,445.556 915.063,442.556 909.5,440C 894.039,436.442 878.372,434.442 862.5,434C 643.512,430.7 424.512,429.7 205.5,431C 198.451,431.953 191.451,433.119 184.5,434.5C 185.23,432.955 186.563,432.122 188.5,432C 194.625,431.596 200.625,430.596 206.5,429C 408.168,428.344 609.834,428.51 811.5,429.5 Z"/></g>
<g><path style="opacity:1" fill="#a0d2e3" d="M 944.5,464.5 C 951.026,469.182 955.359,475.515 957.5,483.5C 955.364,481.188 953.364,478.688 951.5,476C 950.5,475.667 949.5,475.333 948.5,475C 942.944,469.276 937.277,463.776 931.5,458.5C 923.99,454.667 916.99,450 910.5,444.5C 908.879,442.883 906.879,441.716 904.5,441C 885.028,437.251 865.361,435.251 845.5,435C 632.171,432.862 418.838,432.195 205.5,433C 193.132,434.504 181.465,438.004 170.5,443.5C 168.801,443.34 167.134,443.506 165.5,444C 159.801,448.182 153.801,451.848 147.5,455C 139.572,461.426 132.572,468.593 126.5,476.5C 130.015,469.178 135.181,463.178 142,458.5C 142.309,457.234 142.809,456.067 143.5,455C 154.065,450.122 163.898,443.955 173,436.5C 176.792,435.562 180.625,434.896 184.5,434.5C 191.451,433.119 198.451,431.953 205.5,431C 424.512,429.7 643.512,430.7 862.5,434C 878.372,434.442 894.039,436.442 909.5,440C 915.063,442.556 920.396,445.556 925.5,449C 926.79,451.292 928.457,453.292 930.5,455C 935.397,457.939 940.064,461.106 944.5,464.5 Z"/></g>
<g><path style="opacity:1" fill="#acd7e7" d="M 910.5,444.5 C 899.719,441.751 888.719,439.918 877.5,439C 820.112,437.289 762.779,436.122 705.5,435.5C 538.873,434.336 372.207,434.169 205.5,435C 200.833,435.667 196.167,436.333 191.5,437C 184.465,439.191 177.465,441.358 170.5,443.5C 181.465,438.004 193.132,434.504 205.5,433C 418.838,432.195 632.171,432.862 845.5,435C 865.361,435.251 885.028,437.251 904.5,441C 906.879,441.716 908.879,442.883 910.5,444.5 Z"/></g>
<g><path style="opacity:1" fill="#b2dae8" d="M 705.5,435.5 C 541.487,435.349 376.821,435.516 211.5,436C 202.699,436.467 194.033,437.8 185.5,440C 181.999,441.757 178.666,443.59 175.5,445.5C 169.49,447.005 163.823,449.339 158.5,452.5C 149.836,455.966 142.336,461.3 136,468.5C 131.093,476.417 125.76,484.083 120,491.5C 119.147,493.935 118.147,496.269 117,498.5C 116.249,506.836 114.249,514.836 111,522.5C 109.259,532.808 109.092,543.141 110.5,553.5C 113.328,561.307 115.328,569.307 116.5,577.5C 112.859,569.165 110.025,560.499 108,551.5C 107.333,542.5 107.333,533.5 108,524.5C 110.278,517.327 111.944,509.994 113,502.5C 116.751,493.328 121.251,484.662 126.5,476.5C 132.572,468.593 139.572,461.426 147.5,455C 153.801,451.848 159.801,448.182 165.5,444C 167.134,443.506 168.801,443.34 170.5,443.5C 177.465,441.358 184.465,439.191 191.5,437C 196.167,436.333 200.833,435.667 205.5,435C 372.207,434.169 538.873,434.336 705.5,435.5 Z"/></g>
<g><path style="opacity:1" fill="#c4e3ee" d="M 891.5,443.5 C 890.85,443.804 890.183,444.137 889.5,444.5C 882.267,442.983 874.934,442.15 867.5,442C 829.935,441.132 792.435,440.298 755,439.5C 749.888,439.841 744.222,440.174 738,440.5C 669.333,439.833 600.667,439.167 532,438.5C 432.303,438.581 328.803,438.581 221.5,438.5C 204.134,438.808 187.134,442.308 170.5,449C 168.416,449.697 166.749,450.864 165.5,452.5C 160.932,454.403 156.598,456.736 152.5,459.5C 152.281,458.325 152.614,457.325 153.5,456.5C 155.858,455.846 157.525,454.513 158.5,452.5C 163.823,449.339 169.49,447.005 175.5,445.5C 188.032,440.826 201.032,438.326 214.5,438C 401.502,437.226 588.502,437.559 775.5,439C 811.171,439.431 846.838,440.098 882.5,441C 885.5,442.074 888.5,442.907 891.5,443.5 Z"/></g>
<g><path style="opacity:1" fill="#bddfec" d="M 705.5,435.5 C 762.779,436.122 820.112,437.289 877.5,439C 888.719,439.918 899.719,441.751 910.5,444.5C 916.99,450 923.99,454.667 931.5,458.5C 934.338,462.854 937.838,466.854 942,470.5C 942.637,473.328 944.304,475.328 947,476.5C 949.168,480.084 951.168,483.75 953,487.5C 954.667,488.833 956.333,490.167 958,491.5C 968.255,512.869 971.422,535.369 967.5,559C 964.195,569.248 960.695,579.415 957,589.5C 955.032,593.46 952.365,596.793 949,599.5C 947.678,602.965 946.178,606.298 944.5,609.5C 940.416,613.081 936.416,616.914 932.5,621C 918.064,630.549 902.397,637.382 885.5,641.5C 880.156,641.816 874.822,642.316 869.5,643C 796.833,643.167 724.167,643.333 651.5,643.5C 515.681,643.544 380.014,642.878 244.5,641.5C 224.779,641.918 205.112,641.251 185.5,639.5C 173.135,636.821 161.802,631.655 151.5,624C 150.614,622.385 149.614,620.885 148.5,619.5C 153.842,620.835 158.176,623.668 161.5,628C 166.961,629.599 172.295,631.599 177.5,634C 183.446,635.29 189.446,636.123 195.5,636.5C 208.627,638.109 221.961,638.942 235.5,639C 444.161,641.214 652.828,641.881 861.5,641C 872.663,640.896 883.663,639.563 894.5,637C 896.066,636.392 897.4,635.558 898.5,634.5C 910.602,631.086 921.602,625.419 931.5,617.5C 937.449,609.711 943.616,602.044 950,594.5C 964.289,571.385 968.789,547.051 963.5,521.5C 962.866,512.298 960.366,503.632 956,495.5C 950.887,486.25 945.053,477.583 938.5,469.5C 926.142,454.799 910.475,446.132 891.5,443.5C 888.5,442.907 885.5,442.074 882.5,441C 846.838,440.098 811.171,439.431 775.5,439C 588.502,437.559 401.502,437.226 214.5,438C 201.032,438.326 188.032,440.826 175.5,445.5C 178.666,443.59 181.999,441.757 185.5,440C 194.033,437.8 202.699,436.467 211.5,436C 376.821,435.516 541.487,435.349 705.5,435.5 Z"/></g>
<g><path style="opacity:1" fill="#cae6ef" d="M 891.5,443.5 C 910.475,446.132 926.142,454.799 938.5,469.5C 933.503,467.669 929.17,464.836 925.5,461C 923.846,460.392 922.179,459.892 920.5,459.5C 920.167,459.5 919.833,459.5 919.5,459.5C 914.048,453.038 907.048,448.871 898.5,447C 882.773,444.014 867.273,442.847 852,443.5C 839,442.833 826,442.167 813,441.5C 806.918,442.073 800.918,442.406 795,442.5C 768.333,441.833 741.667,441.167 715,440.5C 547.675,440.293 377.509,440.627 204.5,441.5C 199.188,442.395 193.855,443.229 188.5,444C 180.772,446.873 173.105,449.706 165.5,452.5C 166.749,450.864 168.416,449.697 170.5,449C 187.134,442.308 204.134,438.808 221.5,438.5C 328.803,438.581 432.303,438.581 532,438.5C 600.667,439.167 669.333,439.833 738,440.5C 744.222,440.174 749.888,439.841 755,439.5C 792.435,440.298 829.935,441.132 867.5,442C 874.934,442.15 882.267,442.983 889.5,444.5C 890.183,444.137 890.85,443.804 891.5,443.5 Z"/></g>
<g><path style="opacity:1" fill="#d1e9f1" d="M 919.5,459.5 C 912.832,455.499 905.832,451.999 898.5,449C 892.174,448.267 885.84,447.601 879.5,447C 845.182,445.661 810.848,445.161 776.5,445.5C 772.702,444.517 768.702,444.183 764.5,444.5C 740.003,443.668 715.337,443.168 690.5,443C 528.333,442.833 366.333,442.333 204.5,441.5C 377.509,440.627 547.675,440.293 715,440.5C 741.667,441.167 768.333,441.833 795,442.5C 800.918,442.406 806.918,442.073 813,441.5C 826,442.167 839,442.833 852,443.5C 867.273,442.847 882.773,444.014 898.5,447C 907.048,448.871 914.048,453.038 919.5,459.5 Z"/></g>
<g><path style="opacity:1" fill="#f3f9fb" d="M 764.5,444.5 C 768.702,444.183 772.702,444.517 776.5,445.5C 586.834,444.57 397.167,444.403 207.5,445C 198.645,445.531 189.978,447.031 181.5,449.5C 188.591,445.758 196.257,443.924 204.5,444C 391.168,443.33 577.834,443.496 764.5,444.5 Z"/></g>
<g><path style="opacity:1" fill="#fefefe" d="M 776.5,445.5 C 810.848,445.161 845.182,445.661 879.5,447C 885.84,447.601 892.174,448.267 898.5,449C 905.832,451.999 912.832,455.499 919.5,459.5C 919.833,459.5 920.167,459.5 920.5,459.5C 928.072,465.566 935.238,472.233 942,479.5C 945.226,485.699 948.726,491.699 952.5,497.5C 955.677,505.539 958.177,513.872 960,522.5C 960.704,534.852 960.537,547.185 959.5,559.5C 958.645,567.231 956.478,574.564 953,581.5C 947.417,590.091 941.417,598.424 935,606.5C 929.622,610.265 924.789,614.598 920.5,619.5C 920.167,619.5 919.833,619.5 919.5,619.5C 914.41,621.212 909.744,623.712 905.5,627C 898.847,629.274 892.18,631.44 885.5,633.5C 667.172,634.904 448.839,634.737 230.5,633C 214.455,632.282 198.455,631.115 182.5,629.5C 178.142,629.081 174.142,627.748 170.5,625.5C 137.653,606.741 119.987,578.241 117.5,540C 117.989,527.527 120.156,515.36 124,503.5C 129.646,493.541 135.646,483.874 142,474.5C 150.02,466.578 158.854,459.745 168.5,454C 172.694,452.037 177.028,450.537 181.5,449.5C 189.978,447.031 198.645,445.531 207.5,445C 397.167,444.403 586.834,444.57 776.5,445.5 Z"/></g>
<g><path style="opacity:1" fill="#d7ecf3" d="M 204.5,441.5 C 366.333,442.333 528.333,442.833 690.5,443C 715.337,443.168 740.003,443.668 764.5,444.5C 577.834,443.496 391.168,443.33 204.5,444C 196.257,443.924 188.591,445.758 181.5,449.5C 177.028,450.537 172.694,452.037 168.5,454C 158.854,459.745 150.02,466.578 142,474.5C 135.646,483.874 129.646,493.541 124,503.5C 120.156,515.36 117.989,527.527 117.5,540C 119.987,578.241 137.653,606.741 170.5,625.5C 159.067,622.791 150.067,616.624 143.5,607C 139.079,603.913 135.246,600.079 132,595.5C 103.916,547.091 109.749,503.258 149.5,464C 154.735,459.916 160.069,456.083 165.5,452.5C 173.105,449.706 180.772,446.873 188.5,444C 193.855,443.229 199.188,442.395 204.5,441.5 Z"/></g>
<g><path style="opacity:1" fill="#68b7d3" d="M 966.5,479.5 C 975.608,492.973 981.108,507.973 983,524.5C 987.109,568.083 972.609,603.916 939.5,632C 919.66,646.742 897.327,655.076 872.5,657C 705.061,657.457 539.228,657.624 375,657.5C 341.667,656.833 308.333,656.167 275,655.5C 271.663,655.752 267.996,656.085 264,656.5C 242.893,655.741 221.726,654.908 200.5,654C 189.235,653.391 178.235,651.391 167.5,648C 162.777,645.978 158.443,643.478 154.5,640.5C 177.827,651.428 202.327,655.428 228,652.5C 437.492,655.052 646.992,655.885 856.5,655C 874.639,654.977 892.306,652.143 909.5,646.5C 925.33,640.662 939.163,631.662 951,619.5C 986.775,575.993 991.941,529.326 966.5,479.5 Z"/></g>
<g><path style="opacity:1" fill="#8ac7dd" d="M 918.5,441.5 C 920.482,441.995 922.482,442.495 924.5,443C 929.804,446.312 934.804,449.979 939.5,454C 943.003,457.008 946.003,460.508 948.5,464.5C 953.387,466.712 956.387,470.378 957.5,475.5C 958.5,475.5 959.5,475.5 960.5,475.5C 960.167,478.5 961.5,479.833 964.5,479.5C 964.343,480.873 964.51,482.207 965,483.5C 971.191,492.906 974.691,503.239 975.5,514.5C 977.318,527.107 977.818,539.773 977,552.5C 976.665,556.736 975.832,560.736 974.5,564.5C 975.873,549.473 975.707,534.473 974,519.5C 973.093,514.354 971.093,509.687 968,505.5C 966.86,498.283 964.36,491.617 960.5,485.5C 959.643,484.575 958.643,483.908 957.5,483.5C 955.359,475.515 951.026,469.182 944.5,464.5C 941.781,460.616 938.281,457.616 934,455.5C 931.481,452.975 929.314,450.142 927.5,447C 925.043,445.438 922.376,444.438 919.5,444C 918.748,443.329 918.414,442.496 918.5,441.5 Z"/></g>
<g><path style="opacity:1" fill="#ecf6f9" d="M 952.5,497.5 C 953.892,499.273 955.059,501.273 956,503.5C 961.554,519.031 963.554,535.031 962,551.5C 961.721,554.457 960.887,557.123 959.5,559.5C 960.537,547.185 960.704,534.852 960,522.5C 958.177,513.872 955.677,505.539 952.5,497.5 Z"/></g>
<g><path style="opacity:1" fill="#d2eaf2" d="M 920.5,459.5 C 922.179,459.892 923.846,460.392 925.5,461C 929.17,464.836 933.503,467.669 938.5,469.5C 945.053,477.583 950.887,486.25 956,495.5C 960.366,503.632 962.866,512.298 963.5,521.5C 968.838,559.828 956.838,591.495 927.5,616.5C 925.423,618.082 923.09,619.082 920.5,619.5C 924.789,614.598 929.622,610.265 935,606.5C 941.417,598.424 947.417,590.091 953,581.5C 956.478,574.564 958.645,567.231 959.5,559.5C 960.887,557.123 961.721,554.457 962,551.5C 963.554,535.031 961.554,519.031 956,503.5C 955.059,501.273 953.892,499.273 952.5,497.5C 948.726,491.699 945.226,485.699 942,479.5C 935.238,472.233 928.072,465.566 920.5,459.5 Z"/></g>
<g><path style="opacity:1" fill="#a2d3e4" d="M 969.5,514.5 C 971.599,518.795 972.766,523.462 973,528.5C 974.337,546.47 972.17,563.97 966.5,581C 963.931,585.323 961.264,589.49 958.5,593.5C 960.121,588.258 962.288,583.258 965,578.5C 965.999,570.514 967.999,562.848 971,555.5C 971.92,541.765 971.42,528.098 969.5,514.5 Z"/></g>
<g><path style="opacity:1" fill="#b0d9e8" d="M 931.5,458.5 C 937.277,463.776 942.944,469.276 948.5,475C 949.5,475.333 950.5,475.667 951.5,476C 953.364,478.688 955.364,481.188 957.5,483.5C 958.265,487.697 960.099,491.364 963,494.5C 965.288,501.194 967.454,507.861 969.5,514.5C 971.42,528.098 971.92,541.765 971,555.5C 967.999,562.848 965.999,570.514 965,578.5C 962.288,583.258 960.121,588.258 958.5,593.5C 956.608,594.702 954.774,596.035 953,597.5C 951.101,602.27 948.268,606.27 944.5,609.5C 946.178,606.298 947.678,602.965 949,599.5C 952.365,596.793 955.032,593.46 957,589.5C 960.695,579.415 964.195,569.248 967.5,559C 971.422,535.369 968.255,512.869 958,491.5C 956.333,490.167 954.667,488.833 953,487.5C 951.168,483.75 949.168,480.084 947,476.5C 944.304,475.328 942.637,473.328 942,470.5C 937.838,466.854 934.338,462.854 931.5,458.5 Z"/></g>
<g><path style="opacity:1" fill="#bbdeeb" d="M 158.5,452.5 C 157.525,454.513 155.858,455.846 153.5,456.5C 152.614,457.325 152.281,458.325 152.5,459.5C 150.742,459.877 149.075,460.544 147.5,461.5C 144.148,465.686 140.314,469.353 136,472.5C 134.369,476.121 132.035,479.121 129,481.5C 128.832,487.481 126.332,492.148 121.5,495.5C 115.882,509.139 112.549,523.305 111.5,538C 112.146,555.751 116.313,572.585 124,588.5C 126.833,592.167 129.667,595.833 132.5,599.5C 133.298,601.078 133.798,602.744 134,604.5C 139.376,608.375 143.876,613.042 147.5,618.5C 146.127,618.657 144.793,618.49 143.5,618C 132.063,605.803 123.063,592.303 116.5,577.5C 115.328,569.307 113.328,561.307 110.5,553.5C 109.092,543.141 109.259,532.808 111,522.5C 114.249,514.836 116.249,506.836 117,498.5C 118.147,496.269 119.147,493.935 120,491.5C 125.76,484.083 131.093,476.417 136,468.5C 142.336,461.3 149.836,455.966 158.5,452.5 Z"/></g>
<g><path style="opacity:1" fill="#96cde0" d="M 957.5,483.5 C 958.643,483.908 959.643,484.575 960.5,485.5C 964.36,491.617 966.86,498.283 968,505.5C 971.093,509.687 973.093,514.354 974,519.5C 975.707,534.473 975.873,549.473 974.5,564.5C 970.955,575.615 966.788,586.615 962,597.5C 961,598.167 960,598.833 959,599.5C 954.069,606.369 948.902,613.036 943.5,619.5C 937.396,623.759 931.396,628.259 925.5,633C 921.423,634.455 917.423,635.955 913.5,637.5C 918.996,631.07 925.663,626.07 933.5,622.5C 935.772,619.273 938.606,616.606 942,614.5C 943.094,612.922 943.928,611.255 944.5,609.5C 948.268,606.27 951.101,602.27 953,597.5C 954.774,596.035 956.608,594.702 958.5,593.5C 961.264,589.49 963.931,585.323 966.5,581C 972.17,563.97 974.337,546.47 973,528.5C 972.766,523.462 971.599,518.795 969.5,514.5C 967.454,507.861 965.288,501.194 963,494.5C 960.099,491.364 958.265,487.697 957.5,483.5 Z"/></g>
<g><path style="opacity:1" fill="#7fc2da" d="M 975.5,514.5 C 978.225,522.642 979.559,531.142 979.5,540C 979.253,552.316 977.753,564.483 975,576.5C 969.867,587.639 963.867,598.305 957,608.5C 952.626,612.379 948.126,616.046 943.5,619.5C 948.902,613.036 954.069,606.369 959,599.5C 960,598.833 961,598.167 962,597.5C 966.788,586.615 970.955,575.615 974.5,564.5C 975.832,560.736 976.665,556.736 977,552.5C 977.818,539.773 977.318,527.107 975.5,514.5 Z"/></g>
<g><path style="opacity:1" fill="#c9e5ef" d="M 165.5,452.5 C 160.069,456.083 154.735,459.916 149.5,464C 109.749,503.258 103.916,547.091 132,595.5C 135.246,600.079 139.079,603.913 143.5,607C 150.067,616.624 159.067,622.791 170.5,625.5C 170.856,626.87 171.69,627.87 173,628.5C 175.907,629.596 178.741,630.762 181.5,632C 194.314,634.165 207.148,635.665 220,636.5C 221.533,636.056 223.033,635.723 224.5,635.5C 242.03,636.16 259.53,636.827 277,637.5C 283.956,637.192 290.623,636.859 297,636.5C 328.333,637.167 359.667,637.833 391,638.5C 546.496,638.376 705.329,638.376 867.5,638.5C 885.772,637.465 902.772,632.298 918.5,623C 919.337,621.989 919.67,620.822 919.5,619.5C 919.833,619.5 920.167,619.5 920.5,619.5C 923.09,619.082 925.423,618.082 927.5,616.5C 956.838,591.495 968.838,559.828 963.5,521.5C 968.789,547.051 964.289,571.385 950,594.5C 943.616,602.044 937.449,609.711 931.5,617.5C 921.602,625.419 910.602,631.086 898.5,634.5C 884.944,637.903 871.444,639.903 858,640.5C 758.53,639.439 662.864,639.439 571,640.5C 497,639.833 423,639.167 349,638.5C 342.697,638.875 336.697,639.208 331,639.5C 305,638.833 279,638.167 253,637.5C 251.732,637.616 250.398,637.949 249,638.5C 231.648,637.861 214.315,636.861 197,635.5C 196.617,636.056 196.117,636.389 195.5,636.5C 189.446,636.123 183.446,635.29 177.5,634C 172.295,631.599 166.961,629.599 161.5,628C 158.176,623.668 153.842,620.835 148.5,619.5C 147.833,619.5 147.5,619.167 147.5,618.5C 143.876,613.042 139.376,608.375 134,604.5C 133.798,602.744 133.298,601.078 132.5,599.5C 129.667,595.833 126.833,592.167 124,588.5C 116.313,572.585 112.146,555.751 111.5,538C 112.549,523.305 115.882,509.139 121.5,495.5C 126.332,492.148 128.832,487.481 129,481.5C 132.035,479.121 134.369,476.121 136,472.5C 140.314,469.353 144.148,465.686 147.5,461.5C 149.075,460.544 150.742,459.877 152.5,459.5C 156.598,456.736 160.932,454.403 165.5,452.5 Z"/></g>
<g><path style="opacity:1" fill="#d1e9f1" d="M 919.5,619.5 C 919.67,620.822 919.337,621.989 918.5,623C 902.772,632.298 885.772,637.465 867.5,638.5C 705.329,638.376 546.496,638.376 391,638.5C 359.667,637.833 328.333,637.167 297,636.5C 290.623,636.859 283.956,637.192 277,637.5C 259.53,636.827 242.03,636.16 224.5,635.5C 223.033,635.723 221.533,636.056 220,636.5C 207.148,635.665 194.314,634.165 181.5,632C 178.741,630.762 175.907,629.596 173,628.5C 171.69,627.87 170.856,626.87 170.5,625.5C 174.142,627.748 178.142,629.081 182.5,629.5C 184.562,630.776 186.896,631.61 189.5,632C 200.479,632.999 211.479,633.666 222.5,634C 439.16,636.387 655.826,637.054 872.5,636C 876.965,635.126 881.298,634.293 885.5,633.5C 892.18,631.44 898.847,629.274 905.5,627C 909.744,623.712 914.41,621.212 919.5,619.5 Z"/></g>
<g><path style="opacity:1" fill="#a9d6e6" d="M 944.5,609.5 C 943.928,611.255 943.094,612.922 942,614.5C 938.606,616.606 935.772,619.273 933.5,622.5C 925.663,626.07 918.996,631.07 913.5,637.5C 897.632,642.688 881.299,645.522 864.5,646C 675.498,646.783 486.498,646.45 297.5,645C 263.139,644.892 228.805,643.892 194.5,642C 191.322,641.34 188.322,640.507 185.5,639.5C 205.112,641.251 224.779,641.918 244.5,641.5C 246.631,642.314 248.964,642.814 251.5,643C 459.164,644.551 666.831,644.884 874.5,644C 878.392,643.581 882.058,642.748 885.5,641.5C 902.397,637.382 918.064,630.549 932.5,621C 936.416,616.914 940.416,613.081 944.5,609.5 Z"/></g>
<g><path style="opacity:1" fill="#a0d2e3" d="M 126.5,476.5 C 121.251,484.662 116.751,493.328 113,502.5C 111.944,509.994 110.278,517.327 108,524.5C 107.333,533.5 107.333,542.5 108,551.5C 110.025,560.499 112.859,569.165 116.5,577.5C 123.063,592.303 132.063,605.803 143.5,618C 144.793,618.49 146.127,618.657 147.5,618.5C 147.5,619.167 147.833,619.5 148.5,619.5C 149.614,620.885 150.614,622.385 151.5,624C 161.802,631.655 173.135,636.821 185.5,639.5C 188.322,640.507 191.322,641.34 194.5,642C 228.805,643.892 263.139,644.892 297.5,645C 486.498,646.45 675.498,646.783 864.5,646C 881.299,645.522 897.632,642.688 913.5,637.5C 910.728,639.39 907.728,641.057 904.5,642.5C 896.93,644.308 889.264,645.641 881.5,646.5C 872.165,646.902 862.832,647.402 853.5,648C 788.333,648.167 723.167,648.333 658,648.5C 511.662,648.699 365.495,647.533 219.5,645C 206.727,644.823 194.06,643.656 181.5,641.5C 175.278,639.516 168.945,637.849 162.5,636.5C 154.766,631.608 147.433,626.108 140.5,620C 125.956,605.725 115.456,588.891 109,569.5C 98.9606,535.184 104.794,504.184 126.5,476.5 Z"/></g>
<g><path style="opacity:1" fill="#75bdd7" d="M 172.5,431.5 C 173.833,431.5 175.167,431.5 176.5,431.5C 168.17,435.345 159.837,439.512 151.5,444C 149.167,447 146.833,450 144.5,453C 142.913,453.862 141.246,454.529 139.5,455C 135.63,460.035 131.296,464.535 126.5,468.5C 103.175,495.594 95.0087,526.928 102,562.5C 104.327,574.186 109.661,584.186 118,592.5C 121.05,600.268 124.884,607.602 129.5,614.5C 132.987,615.647 134.987,617.981 135.5,621.5C 139.692,622.685 142.692,625.351 144.5,629.5C 165.272,643.114 188.272,649.781 213.5,649.5C 227.381,650.071 241.381,650.905 255.5,652C 285.072,652.171 314.572,652.671 344,653.5C 503.265,652.177 662.931,652.177 823,653.5C 839.813,652.702 856.646,652.202 873.5,652C 880.264,651.647 886.93,650.647 893.5,649C 908.294,644.601 921.96,638.101 934.5,629.5C 933.386,630.885 932.386,632.385 931.5,634C 923.775,637.583 916.442,641.75 909.5,646.5C 892.306,652.143 874.639,654.977 856.5,655C 646.992,655.885 437.492,655.052 228,652.5C 202.327,655.428 177.827,651.428 154.5,640.5C 119.214,618.122 99.881,585.955 96.5,544C 96.6388,533.564 97.6388,523.064 99.5,512.5C 101.651,506.609 103.817,500.609 106,494.5C 119.32,464.01 141.486,443.01 172.5,431.5 Z"/></g>
<g><path style="opacity:1" fill="#95cde0" d="M 181.5,641.5 C 194.06,643.656 206.727,644.823 219.5,645C 365.495,647.533 511.662,648.699 658,648.5C 723.167,648.333 788.333,648.167 853.5,648C 862.832,647.402 872.165,646.902 881.5,646.5C 881.389,647.117 881.056,647.617 880.5,648C 877.833,648.333 875.167,648.667 872.5,649C 715.833,649.667 559.167,649.667 402.5,649C 338.484,648.959 274.484,647.959 210.5,646C 203.475,645.588 196.475,644.921 189.5,644C 186.478,643.902 183.811,643.068 181.5,641.5 Z"/></g>
<g><path style="opacity:1" fill="#b2dae8" d="M 244.5,641.5 C 380.014,642.878 515.681,643.544 651.5,643.5C 724.167,643.333 796.833,643.167 869.5,643C 874.822,642.316 880.156,641.816 885.5,641.5C 882.058,642.748 878.392,643.581 874.5,644C 666.831,644.884 459.164,644.551 251.5,643C 248.964,642.814 246.631,642.314 244.5,641.5 Z"/></g>
<g><path style="opacity:1" fill="#ddeff5" d="M 182.5,629.5 C 198.455,631.115 214.455,632.282 230.5,633C 448.839,634.737 667.172,634.904 885.5,633.5C 881.298,634.293 876.965,635.126 872.5,636C 655.826,637.054 439.16,636.387 222.5,634C 211.479,633.666 200.479,632.999 189.5,632C 186.896,631.61 184.562,630.776 182.5,629.5 Z"/></g>
<g><path style="opacity:1" fill="#c4e3ee" d="M 898.5,634.5 C 897.4,635.558 896.066,636.392 894.5,637C 883.663,639.563 872.663,640.896 861.5,641C 652.828,641.881 444.161,641.214 235.5,639C 221.961,638.942 208.627,638.109 195.5,636.5C 196.117,636.389 196.617,636.056 197,635.5C 214.315,636.861 231.648,637.861 249,638.5C 250.398,637.949 251.732,637.616 253,637.5C 279,638.167 305,638.833 331,639.5C 336.697,639.208 342.697,638.875 349,638.5C 423,639.167 497,639.833 571,640.5C 662.864,639.439 758.53,639.439 858,640.5C 871.444,639.903 884.944,637.903 898.5,634.5 Z"/></g>
<g><path style="opacity:1" fill="#89c7dd" d="M 208.5,427.5 C 369.5,427.333 530.5,427.5 691.5,428C 731.669,428.167 771.669,428.667 811.5,429.5C 609.834,428.51 408.168,428.344 206.5,429C 200.625,430.596 194.625,431.596 188.5,432C 186.563,432.122 185.23,432.955 184.5,434.5C 180.625,434.896 176.792,435.562 173,436.5C 163.898,443.955 154.065,450.122 143.5,455C 142.809,456.067 142.309,457.234 142,458.5C 135.181,463.178 130.015,469.178 126.5,476.5C 104.794,504.184 98.9606,535.184 109,569.5C 115.456,588.891 125.956,605.725 140.5,620C 147.433,626.108 154.766,631.608 162.5,636.5C 168.945,637.849 175.278,639.516 181.5,641.5C 183.811,643.068 186.478,643.902 189.5,644C 196.475,644.921 203.475,645.588 210.5,646C 274.484,647.959 338.484,648.959 402.5,649C 559.167,649.667 715.833,649.667 872.5,649C 875.167,648.667 877.833,648.333 880.5,648C 881.056,647.617 881.389,647.117 881.5,646.5C 889.264,645.641 896.93,644.308 904.5,642.5C 894.241,647.649 883.241,650.482 871.5,651C 652.162,651.947 432.829,651.447 213.5,649.5C 188.272,649.781 165.272,643.114 144.5,629.5C 142.692,625.351 139.692,622.685 135.5,621.5C 134.987,617.981 132.987,615.647 129.5,614.5C 124.884,607.602 121.05,600.268 118,592.5C 109.661,584.186 104.327,574.186 102,562.5C 95.0087,526.928 103.175,495.594 126.5,468.5C 131.296,464.535 135.63,460.035 139.5,455C 141.246,454.529 142.913,453.862 144.5,453C 146.833,450 149.167,447 151.5,444C 159.837,439.512 168.17,435.345 176.5,431.5C 187.053,429.348 197.719,428.014 208.5,427.5 Z"/></g>
<g><path style="opacity:1" fill="#81c3da" d="M 943.5,619.5 C 940.932,623.366 937.932,626.7 934.5,629.5C 921.96,638.101 908.294,644.601 893.5,649C 886.93,650.647 880.264,651.647 873.5,652C 856.646,652.202 839.813,652.702 823,653.5C 662.931,652.177 503.265,652.177 344,653.5C 314.572,652.671 285.072,652.171 255.5,652C 241.381,650.905 227.381,650.071 213.5,649.5C 432.829,651.447 652.162,651.947 871.5,651C 883.241,650.482 894.241,647.649 904.5,642.5C 907.728,641.057 910.728,639.39 913.5,637.5C 917.423,635.955 921.423,634.455 925.5,633C 931.396,628.259 937.396,623.759 943.5,619.5 Z"/></g>
</svg>
