<?xml version="1.0" encoding="UTF-8"?>
<!DOCTYPE svg PUBLIC "-//W3C//DTD SVG 1.1//EN" "http://www.w3.org/Graphics/SVG/1.1/DTD/svg11.dtd">
<svg xmlns="http://www.w3.org/2000/svg" version="1.1" width="1080px" height="1080px" style="shape-rendering:geometricPrecision; text-rendering:geometricPrecision; image-rendering:optimizeQuality; fill-rule:evenodd; clip-rule:evenodd" xmlns:xlink="http://www.w3.org/1999/xlink">
<g><path style="opacity:0.999" fill="#4eabcc" d="M 217.5,-0.5 C 432.167,-0.5 646.833,-0.5 861.5,-0.5C 950.766,11.0289 1015.93,56.6956 1057,136.5C 1068.92,162.4 1076.42,189.4 1079.5,217.5C 1079.5,432.167 1079.5,646.833 1079.5,861.5C 1067.97,950.766 1022.3,1015.93 942.5,1057C 916.6,1068.92 889.6,1076.42 861.5,1079.5C 646.833,1079.5 432.167,1079.5 217.5,1079.5C 128.234,1067.97 63.0669,1022.3 22,942.5C 10.0826,916.6 2.58256,889.6 -0.5,861.5C -0.5,646.833 -0.5,432.167 -0.5,217.5C 11.0289,128.234 56.6956,63.0669 136.5,22C 162.4,10.0826 189.4,2.58256 217.5,-0.5 Z"/></g>
<g><path style="opacity:1" fill="#89c7dc" d="M 971.5,469.5 C 970.463,470.93 969.796,472.597 969.5,474.5C 968.662,474.842 968.328,475.508 968.5,476.5C 968.167,476.5 967.833,476.5 967.5,476.5C 961.577,465.653 953.577,456.653 943.5,449.5C 943.5,449.167 943.5,448.833 943.5,448.5C 944.11,447.609 944.443,446.609 944.5,445.5C 945.345,444.329 946.011,442.995 946.5,441.5C 970.189,369.432 964.355,299.766 929,232.5C 890.685,166.558 833.851,126.724 758.5,113C 687.15,100.772 621.817,115.105 562.5,156C 503.505,201.463 470.671,261.629 464,336.5C 461.611,361.724 463.111,386.724 468.5,411.5C 468.875,413.698 469.542,415.698 470.5,417.5C 470.5,418.167 470.5,418.833 470.5,419.5C 470.833,420.167 471.167,420.833 471.5,421.5C 471.5,421.833 471.5,422.167 471.5,422.5C 460.581,421.523 449.581,421.19 438.5,421.5C 438.5,420.833 438.167,420.5 437.5,420.5C 437.784,418.585 437.451,416.919 436.5,415.5C 416.497,305.336 448.164,213.169 531.5,139C 614.776,74.083 706.776,58.083 807.5,91C 895.081,124.913 953.581,186.413 983,275.5C 998.528,331.332 997.862,386.999 981,442.5C 977.333,451.335 974.166,460.335 971.5,469.5 Z"/></g>
<g><path style="opacity:1" fill="#4eabcc" d="M 946.5,441.5 C 921.166,421.984 892.999,413.65 862,416.5C 850.863,415.823 839.697,415.156 828.5,414.5C 827.914,414.709 827.414,415.043 827,415.5C 801.196,414.829 775.363,414.162 749.5,413.5C 747.894,414.077 746.228,414.41 744.5,414.5C 653.845,413.677 563.178,413.177 472.5,413C 471.099,412.59 469.766,412.09 468.5,411.5C 463.111,386.724 461.611,361.724 464,336.5C 470.671,261.629 503.505,201.463 562.5,156C 621.817,115.105 687.15,100.772 758.5,113C 833.851,126.724 890.685,166.558 929,232.5C 964.355,299.766 970.189,369.432 946.5,441.5 Z"/></g>
<g><path style="opacity:1" fill="#89c7dc" d="M 707.5,140.5 C 794.498,142.232 859.665,180.565 903,255.5C 918.952,286.515 927.452,319.515 928.5,354.5C 927.387,368.115 920.054,374.282 906.5,373C 901.243,370.744 897.743,366.91 896,361.5C 894.395,297.788 868.562,246.621 818.5,208C 792.219,190.034 763.219,179.034 731.5,175C 723.833,174.667 716.167,174.333 708.5,174C 695.769,168.469 692.602,159.636 699,147.5C 701.441,144.546 704.275,142.213 707.5,140.5 Z"/></g>
<g><path style="opacity:1" fill="#89c7dc" d="M 288.5,415.5 C 287.167,415.833 285.833,416.167 284.5,416.5C 261.69,415.524 238.857,415.191 216,415.5C 213.723,416.117 211.556,416.784 209.5,417.5C 206.171,416.169 202.838,414.836 199.5,413.5C 167.705,395.632 150.205,368.299 147,331.5C 145.413,292.145 160.913,261.645 193.5,240C 229.322,221.765 264.988,222.098 300.5,241C 336.402,266.659 350.902,301.492 344,345.5C 336.684,377.847 318.184,401.18 288.5,415.5 Z"/></g>
<g><path style="opacity:1" fill="#4eabcc" d="M 232.5,259.5 C 262.11,256.397 285.61,266.73 303,290.5C 319.458,323.253 314.292,352.087 287.5,377C 270.706,388.829 252.039,393.163 231.5,390C 195.102,378.057 177.935,352.89 180,314.5C 183.644,297.556 192.144,283.723 205.5,273C 214.139,267.347 223.139,262.847 232.5,259.5 Z"/></g>
<g><path style="opacity:1" fill="#54aecd" d="M 468.5,411.5 C 469.766,412.09 471.099,412.59 472.5,413C 563.178,413.177 653.845,413.677 744.5,414.5C 746.228,414.41 747.894,414.077 749.5,413.5C 775.363,414.162 801.196,414.829 827,415.5C 827.414,415.043 827.914,414.709 828.5,414.5C 839.697,415.156 850.863,415.823 862,416.5C 892.999,413.65 921.166,421.984 946.5,441.5C 946.011,442.995 945.345,444.329 944.5,445.5C 923.013,428.17 898.346,419.67 870.5,420C 835.799,419.124 801.132,418.291 766.5,417.5C 665.356,417.246 566.689,417.246 470.5,417.5C 469.542,415.698 468.875,413.698 468.5,411.5 Z"/></g>
<g><path style="opacity:1" fill="#56aece" d="M 199.5,413.5 C 202.838,414.836 206.171,416.169 209.5,417.5C 210.167,417.833 210.833,418.167 211.5,418.5C 177.166,421.252 147.999,434.918 124,459.5C 92.6927,497.678 85.6927,540.011 103,586.5C 108.592,597.24 114.759,607.573 121.5,617.5C 120.89,618.391 120.557,619.391 120.5,620.5C 119.272,621.306 118.272,622.306 117.5,623.5C 82.1479,577.077 77.3145,528.41 103,477.5C 125.209,441.302 157.375,419.969 199.5,413.5 Z"/></g>
<g><path style="opacity:1" fill="#92cbdf" d="M 284.5,416.5 C 281.579,417.696 278.579,418.696 275.5,419.5C 258.638,425.048 241.638,425.714 224.5,421.5C 220.12,420.707 215.787,419.707 211.5,418.5C 210.833,418.167 210.167,417.833 209.5,417.5C 211.556,416.784 213.723,416.117 216,415.5C 238.857,415.191 261.69,415.524 284.5,416.5 Z"/></g>
<g><path style="opacity:1" fill="#5cb2d0" d="M 288.5,415.5 C 290.556,416.216 292.723,416.883 295,417.5C 341.718,416.249 388.052,416.249 434,417.5C 434.995,416.934 435.828,416.267 436.5,415.5C 437.451,416.919 437.784,418.585 437.5,420.5C 383.825,421.491 330.158,421.825 276.5,421.5C 275.702,421.043 275.369,420.376 275.5,419.5C 278.579,418.696 281.579,417.696 284.5,416.5C 285.833,416.167 287.167,415.833 288.5,415.5 Z"/></g>
<g><path style="opacity:1" fill="#5ab1cf" d="M 944.5,445.5 C 944.443,446.609 944.11,447.609 943.5,448.5C 927.911,434.459 909.577,426.292 888.5,424C 877.805,423.166 867.138,422.333 856.5,421.5C 854.902,421.61 853.235,421.943 851.5,422.5C 834.167,421.833 816.833,421.167 799.5,420.5C 794.459,420.192 789.625,420.525 785,421.5C 679.987,420.197 575.154,419.531 470.5,419.5C 470.5,418.833 470.5,418.167 470.5,417.5C 566.689,417.246 665.356,417.246 766.5,417.5C 801.132,418.291 835.799,419.124 870.5,420C 898.346,419.67 923.013,428.17 944.5,445.5 Z"/></g>
<g><path style="opacity:1" fill="#63b5d2" d="M 211.5,418.5 C 215.787,419.707 220.12,420.707 224.5,421.5C 184.693,421.156 151.193,435.489 124,464.5C 92.8309,505.673 88.4975,549.34 111,595.5C 116.225,600.946 120.725,606.946 124.5,613.5C 124.5,613.833 124.5,614.167 124.5,614.5C 123.728,615.694 122.728,616.694 121.5,617.5C 114.759,607.573 108.592,597.24 103,586.5C 85.6927,540.011 92.6927,497.678 124,459.5C 147.999,434.918 177.166,421.252 211.5,418.5 Z"/></g>
<g><path style="opacity:1" fill="#60b4d1" d="M 470.5,419.5 C 575.154,419.531 679.987,420.197 785,421.5C 789.625,420.525 794.459,420.192 799.5,420.5C 816.833,421.167 834.167,421.833 851.5,422.5C 853.235,421.943 854.902,421.61 856.5,421.5C 867.138,422.333 877.805,423.166 888.5,424C 909.577,426.292 927.911,434.459 943.5,448.5C 943.5,448.833 943.5,449.167 943.5,449.5C 933.494,442.358 922.827,436.191 911.5,431C 901.762,427.719 891.762,425.719 881.5,425C 825.632,423.383 769.632,422.216 713.5,421.5C 633.65,421.595 552.983,421.595 471.5,421.5C 471.167,420.833 470.833,420.167 470.5,419.5 Z"/></g>
<g><path style="opacity:1" fill="#68b7d3" d="M 471.5,422.5 C 471.5,422.167 471.5,421.833 471.5,421.5C 552.983,421.595 633.65,421.595 713.5,421.5C 769.632,422.216 825.632,423.383 881.5,425C 891.762,425.719 901.762,427.719 911.5,431C 922.827,436.191 933.494,442.358 943.5,449.5C 943.167,450.167 942.833,450.833 942.5,451.5C 926.138,437.427 907.138,429.26 885.5,427C 873.269,426.241 861.102,425.408 849,424.5C 846.738,424.713 844.238,425.046 841.5,425.5C 820.607,424.873 799.774,424.207 779,423.5C 776.287,423.934 773.287,424.268 770,424.5C 670.413,423.633 570.913,422.966 471.5,422.5 Z"/></g>
<g><path style="opacity:1" fill="#71bbd6" d="M 471.5,422.5 C 570.913,422.966 670.413,423.633 770,424.5C 773.287,424.268 776.287,423.934 779,423.5C 799.774,424.207 820.607,424.873 841.5,425.5C 844.238,425.046 846.738,424.713 849,424.5C 861.102,425.408 873.269,426.241 885.5,427C 907.138,429.26 926.138,437.427 942.5,451.5C 941.89,452.391 941.557,453.391 941.5,454.5C 941.167,455.167 940.833,455.833 940.5,456.5C 937.35,454.423 934.016,452.59 930.5,451C 928.016,446.919 924.35,444.585 919.5,444C 918.748,443.329 918.414,442.496 918.5,441.5C 912.51,437.171 905.843,433.838 898.5,431.5C 895.551,430.698 892.551,430.364 889.5,430.5C 881.384,428.987 873.051,428.154 864.5,428C 733.844,425.85 603.177,425.017 472.5,425.5C 472.443,424.391 472.11,423.391 471.5,422.5 Z"/></g>
<g><path style="opacity:1" fill="#79bfd8" d="M 472.5,425.5 C 603.177,425.017 733.844,425.85 864.5,428C 873.051,428.154 881.384,428.987 889.5,430.5C 867.815,429.272 846.149,428.272 824.5,427.5C 823.914,427.709 823.414,428.043 823,428.5C 706.574,426.751 590.074,426.084 473.5,426.5C 472.833,426.5 472.5,426.167 472.5,425.5 Z"/></g>
<g><path style="opacity:1" fill="#80c2da" d="M 438.5,425.5 C 359.173,427.331 279.506,428.165 199.5,428C 192.703,429.697 185.87,431.531 179,433.5C 177.97,433.836 177.47,434.503 177.5,435.5C 175.94,435.519 174.44,435.852 173,436.5C 170.47,438.964 167.637,440.964 164.5,442.5C 155.796,446.007 147.462,450.174 139.5,455C 135.551,460.453 130.884,464.953 125.5,468.5C 125.281,467.325 125.614,466.325 126.5,465.5C 145.578,444.267 169.244,431.434 197.5,427C 204.465,426.04 211.465,425.54 218.5,425.5C 291.829,426.113 365.163,426.113 438.5,425.5 Z"/></g>
<g><path style="opacity:1" fill="#8cc8de" d="M 438.5,424.5 C 439.451,425.919 439.784,427.585 439.5,429.5C 366.499,429.333 293.499,429.5 220.5,430C 206.019,430.759 191.685,432.593 177.5,435.5C 177.47,434.503 177.97,433.836 179,433.5C 185.87,431.531 192.703,429.697 199.5,428C 279.506,428.165 359.173,427.331 438.5,425.5C 438.5,425.167 438.5,424.833 438.5,424.5 Z"/></g>
<g><path style="opacity:1" fill="#83c4db" d="M 473.5,426.5 C 590.074,426.084 706.574,426.751 823,428.5C 823.414,428.043 823.914,427.709 824.5,427.5C 846.149,428.272 867.815,429.272 889.5,430.5C 892.551,430.364 895.551,430.698 898.5,431.5C 905.843,433.838 912.51,437.171 918.5,441.5C 915.327,440.83 912.327,439.664 909.5,438C 899.103,435.969 888.769,433.969 878.5,432C 857.183,430.803 835.85,430.303 814.5,430.5C 701.005,428.785 587.338,428.118 473.5,428.5C 473.5,427.833 473.5,427.167 473.5,426.5 Z"/></g>
<g><path style="opacity:1" fill="#90cadf" d="M 473.5,428.5 C 587.338,428.118 701.005,428.785 814.5,430.5C 701.167,430.5 587.833,430.5 474.5,430.5C 473.662,430.158 473.328,429.492 473.5,428.5 Z"/></g>
<g><path style="opacity:1" fill="#99cee1" d="M 439.5,429.5 C 362.84,431.331 285.84,432.164 208.5,432C 199.654,433.236 190.988,435.236 182.5,438C 178.29,439.609 174.29,441.442 170.5,443.5C 168.801,443.34 167.134,443.506 165.5,444C 159.801,448.182 153.801,451.848 147.5,455C 143.633,459.202 139.467,463.035 135,466.5C 128.696,473.203 122.863,480.203 117.5,487.5C 117.343,486.127 117.51,484.793 118,483.5C 120.733,479.61 123.233,475.61 125.5,471.5C 125.5,470.5 125.5,469.5 125.5,468.5C 130.884,464.953 135.551,460.453 139.5,455C 147.462,450.174 155.796,446.007 164.5,442.5C 167.637,440.964 170.47,438.964 173,436.5C 174.44,435.852 175.94,435.519 177.5,435.5C 191.685,432.593 206.019,430.759 220.5,430C 293.499,429.5 366.499,429.333 439.5,429.5 Z"/></g>
<g><path style="opacity:1" fill="#96cde0" d="M 474.5,431.5 C 474.5,431.167 474.5,430.833 474.5,430.5C 587.833,430.5 701.167,430.5 814.5,430.5C 835.85,430.303 857.183,430.803 878.5,432C 888.769,433.969 899.103,435.969 909.5,438C 912.327,439.664 915.327,440.83 918.5,441.5C 918.414,442.496 918.748,443.329 919.5,444C 924.35,444.585 928.016,446.919 930.5,451C 934.016,452.59 937.35,454.423 940.5,456.5C 940.167,457.167 939.833,457.833 939.5,458.5C 933.358,457.59 928.691,454.423 925.5,449C 920.396,445.556 915.063,442.556 909.5,440C 894.039,436.442 878.372,434.442 862.5,434C 733.176,431.898 603.843,431.065 474.5,431.5 Z"/></g>
<g><path style="opacity:1" fill="#a4d4e4" d="M 438.5,421.5 C 449.581,421.19 460.581,421.523 471.5,422.5C 472.11,423.391 472.443,424.391 472.5,425.5C 472.5,426.167 472.833,426.5 473.5,426.5C 473.5,427.167 473.5,427.833 473.5,428.5C 462.581,427.523 451.581,427.19 440.5,427.5C 440.5,429.5 440.5,431.5 440.5,433.5C 362.499,433.333 284.499,433.5 206.5,434C 194.283,436.221 182.283,439.388 170.5,443.5C 174.29,441.442 178.29,439.609 182.5,438C 190.988,435.236 199.654,433.236 208.5,432C 285.84,432.164 362.84,431.331 439.5,429.5C 439.784,427.585 439.451,425.919 438.5,424.5C 438.5,423.5 438.5,422.5 438.5,421.5 Z"/></g>
<g><path style="opacity:1" fill="#a3d3e4" d="M 474.5,431.5 C 603.843,431.065 733.176,431.898 862.5,434C 878.372,434.442 894.039,436.442 909.5,440C 915.063,442.556 920.396,445.556 925.5,449C 928.691,454.423 933.358,457.59 939.5,458.5C 939.443,459.609 939.11,460.609 938.5,461.5C 934.062,459.777 930.062,457.277 926.5,454C 922.541,454.349 919.874,452.683 918.5,449C 915.609,447.726 912.942,446.226 910.5,444.5C 908.879,442.883 906.879,441.716 904.5,441C 885.028,437.251 865.361,435.251 845.5,435C 722.169,433.857 598.836,433.357 475.5,433.5C 474.833,433.5 474.5,433.167 474.5,432.5C 474.5,432.167 474.5,431.833 474.5,431.5 Z"/></g>
<g><path style="opacity:1" fill="#add8e7" d="M 475.5,433.5 C 598.836,433.357 722.169,433.857 845.5,435C 865.361,435.251 885.028,437.251 904.5,441C 906.879,441.716 908.879,442.883 910.5,444.5C 899.719,441.751 888.719,439.918 877.5,439C 820.279,437.292 763.112,436.126 706,435.5C 629.724,435.534 552.89,435.534 475.5,435.5C 475.5,434.833 475.5,434.167 475.5,433.5 Z"/></g>
<g><path style="opacity:1" fill="#b2dae8" d="M 440.5,433.5 C 364.507,435.331 288.173,436.164 211.5,436C 202.699,436.467 194.033,437.8 185.5,440C 181.999,441.757 178.666,443.59 175.5,445.5C 169.49,447.005 163.823,449.339 158.5,452.5C 161.785,448.527 165.785,445.527 170.5,443.5C 182.283,439.388 194.283,436.221 206.5,434C 284.499,433.5 362.499,433.333 440.5,433.5 Z"/></g>
<g><path style="opacity:1" fill="#bcdfeb" d="M 473.5,428.5 C 473.328,429.492 473.662,430.158 474.5,430.5C 474.5,430.833 474.5,431.167 474.5,431.5C 474.5,431.833 474.5,432.167 474.5,432.5C 463.581,431.523 452.581,431.19 441.5,431.5C 441.5,433.5 441.5,435.5 441.5,437.5C 365.833,437.333 290.166,437.5 214.5,438C 201.032,438.326 188.032,440.826 175.5,445.5C 178.666,443.59 181.999,441.757 185.5,440C 194.033,437.8 202.699,436.467 211.5,436C 288.173,436.164 364.507,435.331 440.5,433.5C 440.5,431.5 440.5,429.5 440.5,427.5C 451.581,427.19 462.581,427.523 473.5,428.5 Z"/></g>
<g><path style="opacity:1" fill="#c4e3ee" d="M 476.5,438.5 C 476.5,438.167 476.5,437.833 476.5,437.5C 611.845,437.432 747.178,438.599 882.5,441C 885.5,442.074 888.5,442.907 891.5,443.5C 890.85,443.804 890.183,444.137 889.5,444.5C 882.267,442.983 874.934,442.15 867.5,442C 829.935,441.132 792.435,440.298 755,439.5C 749.888,439.841 744.222,440.174 738,440.5C 648.448,439.648 561.281,438.981 476.5,438.5 Z"/></g>
<g><path style="opacity:1" fill="#bcdfeb" d="M 475.5,435.5 C 552.89,435.534 629.724,435.534 706,435.5C 763.112,436.126 820.279,437.292 877.5,439C 888.719,439.918 899.719,441.751 910.5,444.5C 912.942,446.226 915.609,447.726 918.5,449C 919.874,452.683 922.541,454.349 926.5,454C 930.062,457.277 934.062,459.777 938.5,461.5C 940.722,461.178 942.556,461.845 944,463.5C 950.864,471.52 956.697,480.187 961.5,489.5C 961.5,489.833 961.5,490.167 961.5,490.5C 960.833,490.5 960.5,490.833 960.5,491.5C 954.612,481.592 947.612,472.426 939.5,464C 937.953,463.667 936.62,464.167 935.5,465.5C 932.646,462.812 929.646,460.312 926.5,458C 920.263,455.548 914.263,452.548 908.5,449C 905.28,447.648 901.947,446.814 898.5,446.5C 896.221,445.349 893.888,444.349 891.5,443.5C 888.5,442.907 885.5,442.074 882.5,441C 747.178,438.599 611.845,437.432 476.5,437.5C 476.167,436.833 475.833,436.167 475.5,435.5 Z"/></g>
<g><path style="opacity:1" fill="#cde7f0" d="M 474.5,432.5 C 474.5,433.167 474.833,433.5 475.5,433.5C 475.5,434.167 475.5,434.833 475.5,435.5C 475.833,436.167 476.167,436.833 476.5,437.5C 476.5,437.833 476.5,438.167 476.5,438.5C 465.167,438.5 453.833,438.5 442.5,438.5C 442.5,439.833 442.5,441.167 442.5,442.5C 364.998,442.167 287.665,442.501 210.5,443.5C 200.223,443.237 190.557,445.237 181.5,449.5C 180.5,449.5 179.5,449.5 178.5,449.5C 174.054,449.933 169.721,450.933 165.5,452.5C 172.162,448.101 179.495,444.934 187.5,443C 199.025,440.645 210.358,439.145 221.5,438.5C 294.257,438.396 366.423,438.729 438,439.5C 439.302,438.915 440.469,438.249 441.5,437.5C 441.5,435.5 441.5,433.5 441.5,431.5C 452.581,431.19 463.581,431.523 474.5,432.5 Z"/></g>
<g><path style="opacity:1" fill="#cae6ef" d="M 476.5,438.5 C 561.281,438.981 648.448,439.648 738,440.5C 744.222,440.174 749.888,439.841 755,439.5C 792.435,440.298 829.935,441.132 867.5,442C 874.934,442.15 882.267,442.983 889.5,444.5C 890.183,444.137 890.85,443.804 891.5,443.5C 893.888,444.349 896.221,445.349 898.5,446.5C 884.547,444.505 870.547,443.171 856.5,442.5C 855.033,442.723 853.533,443.056 852,443.5C 839,442.833 826,442.167 813,441.5C 806.918,442.073 800.918,442.406 795,442.5C 768.333,441.833 741.667,441.167 715,440.5C 638.973,440.85 559.806,440.85 477.5,440.5C 477.167,439.833 476.833,439.167 476.5,438.5 Z"/></g>
<g><path style="opacity:1" fill="#d2eaf2" d="M 477.5,440.5 C 559.806,440.85 638.973,440.85 715,440.5C 741.667,441.167 768.333,441.833 795,442.5C 800.918,442.406 806.918,442.073 813,441.5C 826,442.167 839,442.833 852,443.5C 853.533,443.056 855.033,442.723 856.5,442.5C 870.547,443.171 884.547,444.505 898.5,446.5C 901.947,446.814 905.28,447.648 908.5,449C 914.263,452.548 920.263,455.548 926.5,458C 929.646,460.312 932.646,462.812 935.5,465.5C 936.62,464.167 937.953,463.667 939.5,464C 947.612,472.426 954.612,481.592 960.5,491.5C 959.833,493.167 959.167,494.833 958.5,496.5C 958.167,496.5 957.833,496.5 957.5,496.5C 953.06,485.801 946.727,476.301 938.5,468C 933.187,467.51 928.853,465.176 925.5,461C 923.846,460.392 922.179,459.892 920.5,459.5C 913.383,455.777 906.049,452.277 898.5,449C 892.174,448.267 885.84,447.601 879.5,447C 845.182,445.661 810.848,445.161 776.5,445.5C 711.335,444.43 646.002,443.763 580.5,443.5C 545.988,443.165 511.655,442.165 477.5,440.5 Z"/></g>
<g><path style="opacity:1" fill="#ddeff5" d="M 476.5,438.5 C 476.833,439.167 477.167,439.833 477.5,440.5C 511.655,442.165 545.988,443.165 580.5,443.5C 457.167,443.5 333.833,443.5 210.5,443.5C 287.665,442.501 364.998,442.167 442.5,442.5C 442.5,441.167 442.5,439.833 442.5,438.5C 453.833,438.5 465.167,438.5 476.5,438.5 Z"/></g>
<g><path style="opacity:1" fill="#f2f9fb" d="M 210.5,443.5 C 333.833,443.5 457.167,443.5 580.5,443.5C 646.002,443.763 711.335,444.43 776.5,445.5C 586.834,444.57 397.167,444.403 207.5,445C 198.645,445.531 189.978,447.031 181.5,449.5C 190.557,445.237 200.223,443.237 210.5,443.5 Z"/></g>
<g><path style="opacity:1" fill="#fefefe" d="M 776.5,445.5 C 810.848,445.161 845.182,445.661 879.5,447C 885.84,447.601 892.174,448.267 898.5,449C 906.049,452.277 913.383,455.777 920.5,459.5C 925.547,464.714 931.047,469.381 937,473.5C 940.634,478.053 944.301,482.72 948,487.5C 948.521,492.281 950.521,496.281 954,499.5C 956.116,507.057 958.116,514.723 960,522.5C 961.198,532.13 961.698,541.796 961.5,551.5C 960.509,560.438 958.342,569.105 955,577.5C 946.219,593.543 934.719,607.376 920.5,619C 915.055,620.888 910.055,623.555 905.5,627C 898.847,629.274 892.18,631.44 885.5,633.5C 688.175,634.654 490.841,634.821 293.5,634C 256.441,633.479 219.441,631.979 182.5,629.5C 178.142,629.081 174.142,627.748 170.5,625.5C 164.58,621.577 158.58,617.744 152.5,614C 146.486,608.127 140.819,601.961 135.5,595.5C 117.401,566.709 113.568,536.042 124,503.5C 127.849,497.35 131.182,491.017 134,484.5C 145.695,468.601 160.528,456.935 178.5,449.5C 179.5,449.5 180.5,449.5 181.5,449.5C 189.978,447.031 198.645,445.531 207.5,445C 397.167,444.403 586.834,444.57 776.5,445.5 Z"/></g>
<g><path style="opacity:1" fill="#c6e4ee" d="M 441.5,437.5 C 440.469,438.249 439.302,438.915 438,439.5C 366.423,438.729 294.257,438.396 221.5,438.5C 210.358,439.145 199.025,440.645 187.5,443C 179.495,444.934 172.162,448.101 165.5,452.5C 127.509,477.156 111.009,512.156 116,557.5C 118.874,570.736 124.041,582.903 131.5,594C 132.901,594.41 134.234,594.91 135.5,595.5C 136.566,598.82 135.566,601.487 132.5,603.5C 132.657,602.127 132.49,600.793 132,599.5C 129.897,596.28 127.564,593.28 125,590.5C 123.093,584.648 120.426,579.314 117,574.5C 115.659,565.767 113.992,557.101 112,548.5C 110.977,530.113 114.144,512.446 121.5,495.5C 126.332,492.148 128.832,487.481 129,481.5C 132.531,478.629 135.364,475.129 137.5,471C 144.294,464.322 151.294,458.155 158.5,452.5C 163.823,449.339 169.49,447.005 175.5,445.5C 188.032,440.826 201.032,438.326 214.5,438C 290.166,437.5 365.833,437.333 441.5,437.5 Z"/></g>
<g><path style="opacity:1" fill="#99cfe1" d="M 943.5,449.5 C 953.577,456.653 961.577,465.653 967.5,476.5C 967.5,477.167 967.5,477.833 967.5,478.5C 966.596,479.209 966.263,480.209 966.5,481.5C 965.833,482.167 965.167,482.833 964.5,483.5C 964.657,482.127 964.49,480.793 964,479.5C 958.329,469.47 950.829,461.136 941.5,454.5C 941.557,453.391 941.89,452.391 942.5,451.5C 942.833,450.833 943.167,450.167 943.5,449.5 Z"/></g>
<g><path style="opacity:1" fill="#dff0f5" d="M 920.5,459.5 C 922.179,459.892 923.846,460.392 925.5,461C 928.853,465.176 933.187,467.51 938.5,468C 946.727,476.301 953.06,485.801 957.5,496.5C 957.167,497.833 956.833,499.167 956.5,500.5C 955.903,500.735 955.57,501.235 955.5,502C 961.629,518.148 963.629,534.648 961.5,551.5C 961.698,541.796 961.198,532.13 960,522.5C 958.116,514.723 956.116,507.057 954,499.5C 950.521,496.281 948.521,492.281 948,487.5C 944.301,482.72 940.634,478.053 937,473.5C 931.047,469.381 925.547,464.714 920.5,459.5 Z"/></g>
<g><path style="opacity:1" fill="#71bbd6" d="M 275.5,419.5 C 275.369,420.376 275.702,421.043 276.5,421.5C 330.158,421.825 383.825,421.491 437.5,420.5C 438.167,420.5 438.5,420.833 438.5,421.5C 438.5,422.5 438.5,423.5 438.5,424.5C 438.5,424.833 438.5,425.167 438.5,425.5C 365.163,426.113 291.829,426.113 218.5,425.5C 211.465,425.54 204.465,426.04 197.5,427C 169.244,431.434 145.578,444.267 126.5,465.5C 125.614,466.325 125.281,467.325 125.5,468.5C 125.5,469.5 125.5,470.5 125.5,471.5C 108.256,489.213 99.9228,510.713 100.5,536C 100.011,549.303 101.678,562.303 105.5,575C 106.937,577.208 108.27,579.374 109.5,581.5C 109.608,588.046 112.108,593.379 117,597.5C 119.903,602.101 123.07,606.434 126.5,610.5C 126.068,611.71 125.401,612.71 124.5,613.5C 120.725,606.946 116.225,600.946 111,595.5C 88.4975,549.34 92.8309,505.673 124,464.5C 151.193,435.489 184.693,421.156 224.5,421.5C 241.638,425.714 258.638,425.048 275.5,419.5 Z"/></g>
<g><path style="opacity:1" fill="#53adcd" d="M 971.5,469.5 C 991.584,502.272 997.084,536.939 988,573.5C 970.955,625.37 935.455,655.87 881.5,665C 875.167,665.333 868.833,665.667 862.5,666C 734.625,666.201 607.292,666.368 480.5,666.5C 479.662,666.158 479.328,665.492 479.5,664.5C 479.811,663.522 480.478,662.855 481.5,662.5C 610.63,663.442 740.463,663.775 871,663.5C 884.687,661.009 898.187,657.509 911.5,653C 958.844,631.901 984.511,595.401 988.5,543.5C 988.68,519.267 982.346,496.267 969.5,474.5C 969.796,472.597 970.463,470.93 971.5,469.5 Z"/></g>
<g><path style="opacity:1" fill="#afd9e8" d="M 941.5,454.5 C 950.829,461.136 958.329,469.47 964,479.5C 964.49,480.793 964.657,482.127 964.5,483.5C 964.5,484.167 964.5,484.833 964.5,485.5C 963.326,486.514 962.66,487.847 962.5,489.5C 962.167,489.5 961.833,489.5 961.5,489.5C 956.697,480.187 950.864,471.52 944,463.5C 942.556,461.845 940.722,461.178 938.5,461.5C 939.11,460.609 939.443,459.609 939.5,458.5C 939.833,457.833 940.167,457.167 940.5,456.5C 940.833,455.833 941.167,455.167 941.5,454.5 Z"/></g>
<g><path style="opacity:1" fill="#60b3d1" d="M 967.5,476.5 C 967.833,476.5 968.167,476.5 968.5,476.5C 991.497,519.935 990.997,562.601 967,604.5C 942.845,639.071 909.845,657.404 868,659.5C 738.257,659.49 608.091,659.49 477.5,659.5C 476.662,659.158 476.328,658.492 476.5,657.5C 608.5,657.667 740.5,657.5 872.5,657C 927.139,651.346 962.972,622.513 980,570.5C 987.81,538.085 983.643,507.418 967.5,478.5C 967.5,477.833 967.5,477.167 967.5,476.5 Z"/></g>
<g><path style="opacity:1" fill="#68b7d3" d="M 967.5,478.5 C 983.643,507.418 987.81,538.085 980,570.5C 962.972,622.513 927.139,651.346 872.5,657C 740.5,657.5 608.5,657.667 476.5,657.5C 492.99,655.794 509.823,654.794 527,654.5C 636.816,655.661 746.649,655.828 856.5,655C 874.639,654.977 892.306,652.143 909.5,646.5C 949.434,630.058 973.267,600.392 981,557.5C 984.908,530.633 980.075,505.3 966.5,481.5C 966.263,480.209 966.596,479.209 967.5,478.5 Z"/></g>
<g><path style="opacity:1" fill="#8bc8dd" d="M 964.5,485.5 C 965.779,488.438 967.445,491.104 969.5,493.5C 972.636,504.708 975.136,516.041 977,527.5C 977.667,535.833 977.667,544.167 977,552.5C 976.665,556.736 975.832,560.736 974.5,564.5C 975.359,551.842 975.525,539.175 975,526.5C 974.758,522.57 973.925,518.903 972.5,515.5C 969.176,506.838 965.843,498.172 962.5,489.5C 962.66,487.847 963.326,486.514 964.5,485.5 Z"/></g>
<g><path style="opacity:1" fill="#80c2da" d="M 125.5,471.5 C 123.233,475.61 120.733,479.61 118,483.5C 117.51,484.793 117.343,486.127 117.5,487.5C 109.33,497.105 104.497,508.438 103,521.5C 102.333,533.5 102.333,545.5 103,557.5C 104.099,565.939 106.266,573.939 109.5,581.5C 108.27,579.374 106.937,577.208 105.5,575C 101.678,562.303 100.011,549.303 100.5,536C 99.9228,510.713 108.256,489.213 125.5,471.5 Z"/></g>
<g><path style="opacity:1" fill="#d5ebf3" d="M 178.5,449.5 C 160.528,456.935 145.695,468.601 134,484.5C 131.182,491.017 127.849,497.35 124,503.5C 113.568,536.042 117.401,566.709 135.5,595.5C 134.234,594.91 132.901,594.41 131.5,594C 124.041,582.903 118.874,570.736 116,557.5C 111.009,512.156 127.509,477.156 165.5,452.5C 169.721,450.933 174.054,449.933 178.5,449.5 Z"/></g>
<g><path style="opacity:1" fill="#a2d2e4" d="M 961.5,489.5 C 961.833,489.5 962.167,489.5 962.5,489.5C 965.843,498.172 969.176,506.838 972.5,515.5C 974.272,534.275 973.439,552.941 970,571.5C 965.404,584.39 958.571,595.723 949.5,605.5C 951.965,599.512 955.131,593.845 959,588.5C 963.822,577.845 967.822,566.845 971,555.5C 971.843,543.128 971.51,530.795 970,518.5C 967.85,508.888 965.016,499.555 961.5,490.5C 961.5,490.167 961.5,489.833 961.5,489.5 Z"/></g>
<g><path style="opacity:1" fill="#b6dcea" d="M 158.5,452.5 C 151.294,458.155 144.294,464.322 137.5,471C 135.364,475.129 132.531,478.629 129,481.5C 128.832,487.481 126.332,492.148 121.5,495.5C 114.144,512.446 110.977,530.113 112,548.5C 113.992,557.101 115.659,565.767 117,574.5C 120.426,579.314 123.093,584.648 125,590.5C 127.564,593.28 129.897,596.28 132,599.5C 132.49,600.793 132.657,602.127 132.5,603.5C 132.5,603.833 132.5,604.167 132.5,604.5C 132.167,604.5 131.833,604.5 131.5,604.5C 127.144,596.999 122.644,589.666 118,582.5C 113.801,572.438 110.468,562.104 108,551.5C 107.15,540.456 107.483,529.456 109,518.5C 110.848,514.731 112.848,511.064 115,507.5C 115.912,502.657 117.245,497.99 119,493.5C 124.224,487.942 128.224,481.609 131,474.5C 136.5,467.667 142.667,461.5 149.5,456C 152.618,454.978 155.618,453.811 158.5,452.5 Z"/></g>
<g><path style="opacity:1" fill="#a5d4e5" d="M 170.5,443.5 C 165.785,445.527 161.785,448.527 158.5,452.5C 155.618,453.811 152.618,454.978 149.5,456C 142.667,461.5 136.5,467.667 131,474.5C 128.224,481.609 124.224,487.942 119,493.5C 117.245,497.99 115.912,502.657 115,507.5C 112.848,511.064 110.848,514.731 109,518.5C 107.483,529.456 107.15,540.456 108,551.5C 110.468,562.104 113.801,572.438 118,582.5C 122.644,589.666 127.144,596.999 131.5,604.5C 131.167,605.167 130.833,605.833 130.5,606.5C 129.833,607.167 129.167,607.833 128.5,608.5C 122.85,598.658 117.35,588.658 112,578.5C 100.519,547.352 102.352,517.018 117.5,487.5C 122.863,480.203 128.696,473.203 135,466.5C 139.467,463.035 143.633,459.202 147.5,455C 153.801,451.848 159.801,448.182 165.5,444C 167.134,443.506 168.801,443.34 170.5,443.5 Z"/></g>
<g><path style="opacity:1" fill="#70bbd5" d="M 966.5,481.5 C 980.075,505.3 984.908,530.633 981,557.5C 973.267,600.392 949.434,630.058 909.5,646.5C 916.442,641.75 923.775,637.583 931.5,634C 932.386,632.385 933.386,630.885 934.5,629.5C 937.932,626.7 940.932,623.366 943.5,619.5C 948.126,616.046 952.626,612.379 957,608.5C 963.867,598.305 969.867,587.639 975,576.5C 980.422,553.265 980.922,529.931 976.5,506.5C 975.5,506.5 974.5,506.5 973.5,506.5C 973.75,501.588 972.416,497.255 969.5,493.5C 967.445,491.104 965.779,488.438 964.5,485.5C 964.5,484.833 964.5,484.167 964.5,483.5C 965.167,482.833 965.833,482.167 966.5,481.5 Z"/></g>
<g><path style="opacity:1" fill="#7dc1d9" d="M 969.5,493.5 C 972.416,497.255 973.75,501.588 973.5,506.5C 974.5,506.5 975.5,506.5 976.5,506.5C 980.922,529.931 980.422,553.265 975,576.5C 969.867,587.639 963.867,598.305 957,608.5C 952.626,612.379 948.126,616.046 943.5,619.5C 948.902,613.036 954.069,606.369 959,599.5C 960,598.833 961,598.167 962,597.5C 966.788,586.615 970.955,575.615 974.5,564.5C 975.832,560.736 976.665,556.736 977,552.5C 977.667,544.167 977.667,535.833 977,527.5C 975.136,516.041 972.636,504.708 969.5,493.5 Z"/></g>
<g><path style="opacity:1" fill="#b5dbe9" d="M 961.5,490.5 C 965.016,499.555 967.85,508.888 970,518.5C 971.51,530.795 971.843,543.128 971,555.5C 967.822,566.845 963.822,577.845 959,588.5C 955.131,593.845 951.965,599.512 949.5,605.5C 946.972,608.104 943.972,610.271 940.5,612C 934.057,620.287 926.057,626.453 916.5,630.5C 916.733,628.938 917.4,627.605 918.5,626.5C 923.167,622.832 928.167,619.665 933.5,617C 937.699,612.466 942.199,608.299 947,604.5C 949.612,599.61 951.945,594.61 954,589.5C 955,588.833 956,588.167 957,587.5C 965.334,571.496 968.667,554.496 967,536.5C 966.358,522.613 963.525,509.279 958.5,496.5C 959.167,494.833 959.833,493.167 960.5,491.5C 960.5,490.833 960.833,490.5 961.5,490.5 Z"/></g>
<g><path style="opacity:1" fill="#94cce0" d="M 972.5,515.5 C 973.925,518.903 974.758,522.57 975,526.5C 975.525,539.175 975.359,551.842 974.5,564.5C 970.955,575.615 966.788,586.615 962,597.5C 961,598.167 960,598.833 959,599.5C 954.069,606.369 948.902,613.036 943.5,619.5C 937.396,623.759 931.396,628.259 925.5,633C 921.423,634.455 917.423,635.955 913.5,637.5C 918.996,631.07 925.663,626.07 933.5,622.5C 939.526,617.415 944.859,611.749 949.5,605.5C 958.571,595.723 965.404,584.39 970,571.5C 973.439,552.941 974.272,534.275 972.5,515.5 Z"/></g>
<g><path style="opacity:1" fill="#8dc9de" d="M 117.5,487.5 C 102.352,517.018 100.519,547.352 112,578.5C 117.35,588.658 122.85,598.658 128.5,608.5C 128.5,608.833 128.5,609.167 128.5,609.5C 127.833,609.833 127.167,610.167 126.5,610.5C 123.07,606.434 119.903,602.101 117,597.5C 112.108,593.379 109.608,588.046 109.5,581.5C 106.266,573.939 104.099,565.939 103,557.5C 102.333,545.5 102.333,533.5 103,521.5C 104.497,508.438 109.33,497.105 117.5,487.5 Z"/></g>
<g><path style="opacity:1" fill="#d9edf4" d="M 135.5,595.5 C 140.819,601.961 146.486,608.127 152.5,614C 158.58,617.744 164.58,621.577 170.5,625.5C 166.851,625.046 163.351,624.046 160,622.5C 158.97,622.836 158.47,623.503 158.5,624.5C 157.85,624.804 157.183,625.137 156.5,625.5C 147.245,619.91 139.245,612.91 132.5,604.5C 132.5,604.167 132.5,603.833 132.5,603.5C 135.566,601.487 136.566,598.82 135.5,595.5 Z"/></g>
<g><path style="opacity:1" fill="#b5dce9" d="M 130.5,606.5 C 130.595,609.358 131.762,611.691 134,613.5C 140.083,619.424 146.583,624.757 153.5,629.5C 153.5,629.833 153.5,630.167 153.5,630.5C 153.167,630.5 152.833,630.5 152.5,630.5C 150.801,630.66 149.134,630.494 147.5,630C 139.553,624.557 133.219,617.724 128.5,609.5C 128.5,609.167 128.5,608.833 128.5,608.5C 129.167,607.833 129.833,607.167 130.5,606.5 Z"/></g>
<g><path style="opacity:1" fill="#a3d3e4" d="M 128.5,609.5 C 133.219,617.724 139.553,624.557 147.5,630C 149.134,630.494 150.801,630.66 152.5,630.5C 151.833,631.5 151.167,632.5 150.5,633.5C 149.833,634.833 148.833,635.833 147.5,636.5C 139.19,629.857 131.524,622.524 124.5,614.5C 124.5,614.167 124.5,613.833 124.5,613.5C 125.401,612.71 126.068,611.71 126.5,610.5C 127.167,610.167 127.833,609.833 128.5,609.5 Z"/></g>
<g><path style="opacity:1" fill="#93ccdf" d="M 124.5,614.5 C 131.524,622.524 139.19,629.857 147.5,636.5C 147.5,636.833 147.5,637.167 147.5,637.5C 146.488,638.872 145.488,640.205 144.5,641.5C 135.67,635.423 127.67,628.423 120.5,620.5C 120.557,619.391 120.89,618.391 121.5,617.5C 122.728,616.694 123.728,615.694 124.5,614.5 Z"/></g>
<g><path style="opacity:1" fill="#89c7dc" d="M 120.5,620.5 C 127.67,628.423 135.67,635.423 144.5,641.5C 144.5,641.833 144.5,642.167 144.5,642.5C 143.833,643.5 143.167,644.5 142.5,645.5C 105.048,714.497 109.548,780.497 156,843.5C 204.532,897.862 264.365,916.362 335.5,899C 404.838,875.657 445.338,827.823 457,755.5C 460.314,724.282 455.814,694.282 443.5,665.5C 443.011,664.005 442.345,662.671 441.5,661.5C 441.5,660.833 441.5,660.167 441.5,659.5C 453.216,660.144 464.549,659.478 475.5,657.5C 475.833,657.5 476.167,657.5 476.5,657.5C 476.328,658.492 476.662,659.158 477.5,659.5C 477.796,661.403 478.463,663.07 479.5,664.5C 479.328,665.492 479.662,666.158 480.5,666.5C 499.504,729.125 492.671,788.792 460,845.5C 424.393,899.346 374.227,929.846 309.5,937C 237.466,943.113 177.632,919.28 130,865.5C 97.0867,821.75 82.0867,772.417 85,717.5C 87.9855,683.374 98.8188,652.041 117.5,623.5C 118.272,622.306 119.272,621.306 120.5,620.5 Z"/></g>
<g><path style="opacity:1" fill="#c9e5ef" d="M 957.5,496.5 C 957.833,496.5 958.167,496.5 958.5,496.5C 963.525,509.279 966.358,522.613 967,536.5C 968.667,554.496 965.334,571.496 957,587.5C 956,588.167 955,588.833 954,589.5C 951.945,594.61 949.612,599.61 947,604.5C 942.199,608.299 937.699,612.466 933.5,617C 928.167,619.665 923.167,622.832 918.5,626.5C 913.553,628.973 908.553,631.473 903.5,634C 901.866,634.494 900.199,634.66 898.5,634.5C 884.944,637.903 871.444,639.903 858,640.5C 729.784,640.398 599.951,640.065 468.5,639.5C 468.5,640.833 468.5,642.167 468.5,643.5C 456.117,643.794 443.783,643.46 431.5,642.5C 431.5,642.167 431.5,641.833 431.5,641.5C 443.5,641.5 455.5,641.5 467.5,641.5C 467.5,640.5 467.5,639.5 467.5,638.5C 599.167,638.667 730.834,638.5 862.5,638C 872.942,637.508 883.275,636.175 893.5,634C 903.321,630.252 912.988,626.252 922.5,622C 955.581,597.4 969.581,564.733 964.5,524C 962.063,516.083 959.396,508.249 956.5,500.5C 956.833,499.167 957.167,497.833 957.5,496.5 Z"/></g>
<g><path style="opacity:1" fill="#d1e9f2" d="M 170.5,625.5 C 174.142,627.748 178.142,629.081 182.5,629.5C 184.562,630.776 186.896,631.61 189.5,632C 200.479,632.999 211.479,633.666 222.5,634C 291.17,634.6 359.504,635.766 427.5,637.5C 384.615,637.264 343.115,637.264 303,637.5C 271.683,636.602 240.516,635.769 209.5,635C 196.853,634.959 184.686,632.792 173,628.5C 171.69,627.87 170.856,626.87 170.5,625.5 Z"/></g>
<g><path style="opacity:1" fill="#d1e9f1" d="M 956.5,500.5 C 959.396,508.249 962.063,516.083 964.5,524C 969.581,564.733 955.581,597.4 922.5,622C 912.988,626.252 903.321,630.252 893.5,634C 883.275,636.175 872.942,637.508 862.5,638C 730.834,638.5 599.167,638.667 467.5,638.5C 466.957,638.44 466.624,638.107 466.5,637.5C 547.667,636.252 628.834,636.252 710,637.5C 764.164,636.802 818.331,636.302 872.5,636C 876.965,635.126 881.298,634.293 885.5,633.5C 892.18,631.44 898.847,629.274 905.5,627C 910.055,623.555 915.055,620.888 920.5,619C 934.719,607.376 946.219,593.543 955,577.5C 958.342,569.105 960.509,560.438 961.5,551.5C 963.629,534.648 961.629,518.148 955.5,502C 955.57,501.235 955.903,500.735 956.5,500.5 Z"/></g>
<g><path style="opacity:1" fill="#cae6ef" d="M 170.5,625.5 C 170.856,626.87 171.69,627.87 173,628.5C 184.686,632.792 196.853,634.959 209.5,635C 240.516,635.769 271.683,636.602 303,637.5C 343.115,637.264 384.615,637.264 427.5,637.5C 428.5,637.833 429.167,638.5 429.5,639.5C 370.064,639.702 311.23,639.036 253,637.5C 251.732,637.616 250.398,637.949 249,638.5C 231.648,637.861 214.315,636.861 197,635.5C 182.941,636.306 170.107,632.64 158.5,624.5C 158.47,623.503 158.97,622.836 160,622.5C 163.351,624.046 166.851,625.046 170.5,625.5 Z"/></g>
<g><path style="opacity:1" fill="#dff0f5" d="M 182.5,629.5 C 219.441,631.979 256.441,633.479 293.5,634C 490.841,634.821 688.175,634.654 885.5,633.5C 881.298,634.293 876.965,635.126 872.5,636C 818.331,636.302 764.164,636.802 710,637.5C 628.834,636.252 547.667,636.252 466.5,637.5C 466.624,638.107 466.957,638.44 467.5,638.5C 467.5,639.5 467.5,640.5 467.5,641.5C 455.5,641.5 443.5,641.5 431.5,641.5C 430.5,641.167 429.833,640.5 429.5,639.5C 429.167,638.5 428.5,637.833 427.5,637.5C 359.504,635.766 291.17,634.6 222.5,634C 211.479,633.666 200.479,632.999 189.5,632C 186.896,631.61 184.562,630.776 182.5,629.5 Z"/></g>
<g><path style="opacity:1" fill="#5cb2d0" d="M 147.5,637.5 C 163.539,647.9 181.206,653.4 200.5,654C 221.726,654.908 242.893,655.741 264,656.5C 267.996,656.085 271.663,655.752 275,655.5C 331.437,656.614 386.271,657.281 439.5,657.5C 440.167,658.167 440.833,658.833 441.5,659.5C 441.5,660.167 441.5,660.833 441.5,661.5C 359.363,661.443 277.03,660.277 194.5,658C 176.953,657.263 161.119,651.763 147,641.5C 146.329,642.252 145.496,642.586 144.5,642.5C 144.5,642.167 144.5,641.833 144.5,641.5C 145.488,640.205 146.488,638.872 147.5,637.5 Z"/></g>
<g><path style="opacity:1" fill="#c3e2ed" d="M 898.5,634.5 C 897.4,635.558 896.066,636.392 894.5,637C 883.663,639.563 872.663,640.896 861.5,641C 730.834,641.5 600.167,641.667 469.5,641.5C 469.263,642.791 469.596,643.791 470.5,644.5C 470.5,645.167 470.833,645.5 471.5,645.5C 471.5,646.833 471.5,648.167 471.5,649.5C 459.5,649.5 447.5,649.5 435.5,649.5C 435.167,648.833 434.833,648.167 434.5,647.5C 434.167,646.5 433.5,645.833 432.5,645.5C 432.672,644.508 432.338,643.842 431.5,643.5C 431.5,643.167 431.5,642.833 431.5,642.5C 443.783,643.46 456.117,643.794 468.5,643.5C 468.5,642.167 468.5,640.833 468.5,639.5C 599.951,640.065 729.784,640.398 858,640.5C 871.444,639.903 884.944,637.903 898.5,634.5 Z"/></g>
<g><path style="opacity:1" fill="#c0e1ed" d="M 131.5,604.5 C 131.833,604.5 132.167,604.5 132.5,604.5C 139.245,612.91 147.245,619.91 156.5,625.5C 157.183,625.137 157.85,624.804 158.5,624.5C 170.107,632.64 182.941,636.306 197,635.5C 214.315,636.861 231.648,637.861 249,638.5C 250.398,637.949 251.732,637.616 253,637.5C 311.23,639.036 370.064,639.702 429.5,639.5C 429.833,640.5 430.5,641.167 431.5,641.5C 431.5,641.833 431.5,642.167 431.5,642.5C 363.838,641.63 296.172,640.963 228.5,640.5C 205.787,641.997 183.787,638.83 162.5,631C 160.631,629.456 158.797,627.956 157,626.5C 155.358,626.978 154.191,627.978 153.5,629.5C 146.583,624.757 140.083,619.424 134,613.5C 131.762,611.691 130.595,609.358 130.5,606.5C 130.833,605.833 131.167,605.167 131.5,604.5 Z"/></g>
<g><path style="opacity:1" fill="#54aecd" d="M 441.5,661.5 C 442.345,662.671 443.011,664.005 443.5,665.5C 360.809,665.797 278.142,664.631 195.5,662C 176.441,660.589 158.774,655.089 142.5,645.5C 143.167,644.5 143.833,643.5 144.5,642.5C 145.496,642.586 146.329,642.252 147,641.5C 161.119,651.763 176.953,657.263 194.5,658C 277.03,660.277 359.363,661.443 441.5,661.5 Z"/></g>
<g><path style="opacity:1" fill="#b6dcea" d="M 228.5,640.5 C 296.172,640.963 363.838,641.63 431.5,642.5C 431.5,642.833 431.5,643.167 431.5,643.5C 363.649,643.947 295.982,642.947 228.5,640.5 Z"/></g>
<g><path style="opacity:1" fill="#badeeb" d="M 918.5,626.5 C 917.4,627.605 916.733,628.938 916.5,630.5C 906.422,635.191 896.088,638.857 885.5,641.5C 880.156,641.816 874.822,642.316 869.5,643C 736.333,643.167 603.333,643.667 470.5,644.5C 469.596,643.791 469.263,642.791 469.5,641.5C 600.167,641.667 730.834,641.5 861.5,641C 872.663,640.896 883.663,639.563 894.5,637C 896.066,636.392 897.4,635.558 898.5,634.5C 900.199,634.66 901.866,634.494 903.5,634C 908.553,631.473 913.553,628.973 918.5,626.5 Z"/></g>
<g><path style="opacity:1" fill="#a1d2e4" d="M 153.5,630.5 C 153.5,630.167 153.5,629.833 153.5,629.5C 159.414,631.457 165.08,633.957 170.5,637C 178.479,638.759 186.479,640.426 194.5,642C 273.801,644.991 353.134,646.158 432.5,645.5C 433.5,645.833 434.167,646.5 434.5,647.5C 362.984,647.371 291.317,646.538 219.5,645C 201.113,645.062 183.113,642.562 165.5,637.5C 161.891,634.689 157.891,632.355 153.5,630.5 Z"/></g>
<g><path style="opacity:1" fill="#acd7e7" d="M 228.5,640.5 C 295.982,642.947 363.649,643.947 431.5,643.5C 432.338,643.842 432.672,644.508 432.5,645.5C 353.134,646.158 273.801,644.991 194.5,642C 186.479,640.426 178.479,638.759 170.5,637C 165.08,633.957 159.414,631.457 153.5,629.5C 154.191,627.978 155.358,626.978 157,626.5C 158.797,627.956 160.631,629.456 162.5,631C 183.787,638.83 205.787,641.997 228.5,640.5 Z"/></g>
<g><path style="opacity:1" fill="#aed8e7" d="M 885.5,641.5 C 876.466,643.894 867.132,645.061 857.5,645C 728.834,645.5 600.167,645.667 471.5,645.5C 470.833,645.5 470.5,645.167 470.5,644.5C 603.333,643.667 736.333,643.167 869.5,643C 874.822,642.316 880.156,641.816 885.5,641.5 Z"/></g>
<g><path style="opacity:1" fill="#4eabcc" d="M 142.5,645.5 C 158.774,655.089 176.441,660.589 195.5,662C 278.142,664.631 360.809,665.797 443.5,665.5C 455.814,694.282 460.314,724.282 457,755.5C 445.338,827.823 404.838,875.657 335.5,899C 264.365,916.362 204.532,897.862 156,843.5C 109.548,780.497 105.048,714.497 142.5,645.5 Z"/></g>
<g><path style="opacity:1" fill="#a8d5e6" d="M 949.5,605.5 C 944.859,611.749 939.526,617.415 933.5,622.5C 925.663,626.07 918.996,631.07 913.5,637.5C 897.632,642.688 881.299,645.522 864.5,646C 733.496,645.835 602.83,646.668 472.5,648.5C 472.328,649.492 472.662,650.158 473.5,650.5C 473.5,651.167 473.5,651.833 473.5,652.5C 462.012,653.495 450.345,653.828 438.5,653.5C 437.833,653.5 437.5,653.167 437.5,652.5C 436.833,651.5 436.167,650.5 435.5,649.5C 447.5,649.5 459.5,649.5 471.5,649.5C 471.5,648.167 471.5,646.833 471.5,645.5C 600.167,645.667 728.834,645.5 857.5,645C 867.132,645.061 876.466,643.894 885.5,641.5C 896.088,638.857 906.422,635.191 916.5,630.5C 926.057,626.453 934.057,620.287 940.5,612C 943.972,610.271 946.972,608.104 949.5,605.5 Z"/></g>
<g><path style="opacity:1" fill="#9ed1e3" d="M 913.5,637.5 C 911.115,639.263 908.448,640.763 905.5,642C 897.616,644.138 889.616,645.638 881.5,646.5C 872.165,646.902 862.832,647.402 853.5,648C 726.5,648.5 599.5,648.667 472.5,648.5C 602.83,646.668 733.496,645.835 864.5,646C 881.299,645.522 897.632,642.688 913.5,637.5 Z"/></g>
<g><path style="opacity:1" fill="#94cce0" d="M 165.5,637.5 C 183.113,642.562 201.113,645.062 219.5,645C 291.317,646.538 362.984,647.371 434.5,647.5C 434.833,648.167 435.167,648.833 435.5,649.5C 379.166,649.667 322.832,649.5 266.5,649C 238.871,649.03 211.538,647.697 184.5,645C 177.414,643.926 171.081,641.426 165.5,637.5 Z"/></g>
<g><path style="opacity:1" fill="#94cce0" d="M 881.5,646.5 C 881.389,647.117 881.056,647.617 880.5,648C 877.833,648.333 875.167,648.667 872.5,649C 739.333,649.167 606.333,649.667 473.5,650.5C 472.662,650.158 472.328,649.492 472.5,648.5C 599.5,648.667 726.5,648.5 853.5,648C 862.832,647.402 872.165,646.902 881.5,646.5 Z"/></g>
<g><path style="opacity:1" fill="#76bdd7" d="M 172.5,644.5 C 178.263,645.039 183.929,646.205 189.5,648C 197.471,648.998 205.471,649.665 213.5,650C 288.159,651.477 362.826,652.31 437.5,652.5C 437.5,653.167 437.833,653.5 438.5,653.5C 438.5,653.833 438.5,654.167 438.5,654.5C 363.155,654.633 287.822,653.799 212.5,652C 202.743,651.449 193.076,650.282 183.5,648.5C 179.593,647.534 175.926,646.201 172.5,644.5 Z"/></g>
<g><path style="opacity:1" fill="#84c4db" d="M 152.5,630.5 C 152.833,630.5 153.167,630.5 153.5,630.5C 157.891,632.355 161.891,634.689 165.5,637.5C 171.081,641.426 177.414,643.926 184.5,645C 211.538,647.697 238.871,649.03 266.5,649C 322.832,649.5 379.166,649.667 435.5,649.5C 436.167,650.5 436.833,651.5 437.5,652.5C 362.826,652.31 288.159,651.477 213.5,650C 205.471,649.665 197.471,648.998 189.5,648C 183.929,646.205 178.263,645.039 172.5,644.5C 170.436,644.313 168.436,643.813 166.5,643C 160.929,640.055 155.596,636.889 150.5,633.5C 151.167,632.5 151.833,631.5 152.5,630.5 Z"/></g>
<g><path style="opacity:1" fill="#89c7dd" d="M 943.5,619.5 C 940.932,623.366 937.932,626.7 934.5,629.5C 931.203,631.783 927.869,634.116 924.5,636.5C 917.354,640.077 910.02,643.077 902.5,645.5C 892.36,648.115 882.026,649.948 871.5,651C 738.999,651.167 606.666,651.667 474.5,652.5C 474.167,652.5 473.833,652.5 473.5,652.5C 473.5,651.833 473.5,651.167 473.5,650.5C 606.333,649.667 739.333,649.167 872.5,649C 875.167,648.667 877.833,648.333 880.5,648C 881.056,647.617 881.389,647.117 881.5,646.5C 889.616,645.638 897.616,644.138 905.5,642C 908.448,640.763 911.115,639.263 913.5,637.5C 917.423,635.955 921.423,634.455 925.5,633C 931.396,628.259 937.396,623.759 943.5,619.5 Z"/></g>
<g><path style="opacity:1" fill="#81c3da" d="M 902.5,645.5 C 896.589,648.392 890.256,650.225 883.5,651C 863.338,652.062 843.171,652.896 823,653.5C 706.851,652.505 590.684,652.172 474.5,652.5C 606.666,651.667 738.999,651.167 871.5,651C 882.026,649.948 892.36,648.115 902.5,645.5 Z"/></g>
<g><path style="opacity:1" fill="#6cb9d4" d="M 150.5,633.5 C 155.596,636.889 160.929,640.055 166.5,643C 168.436,643.813 170.436,644.313 172.5,644.5C 175.926,646.201 179.593,647.534 183.5,648.5C 193.076,650.282 202.743,651.449 212.5,652C 287.822,653.799 363.155,654.633 438.5,654.5C 439.11,655.391 439.443,656.391 439.5,657.5C 386.271,657.281 331.437,656.614 275,655.5C 271.663,655.752 267.996,656.085 264,656.5C 242.893,655.741 221.726,654.908 200.5,654C 181.206,653.4 163.539,647.9 147.5,637.5C 147.5,637.167 147.5,636.833 147.5,636.5C 148.833,635.833 149.833,634.833 150.5,633.5 Z"/></g>
<g><path style="opacity:1" fill="#75bdd7" d="M 934.5,629.5 C 933.386,630.885 932.386,632.385 931.5,634C 923.775,637.583 916.442,641.75 909.5,646.5C 892.306,652.143 874.639,654.977 856.5,655C 746.649,655.828 636.816,655.661 527,654.5C 509.823,654.794 492.99,655.794 476.5,657.5C 476.167,657.5 475.833,657.5 475.5,657.5C 474.962,655.883 474.629,654.216 474.5,652.5C 590.684,652.172 706.851,652.505 823,653.5C 843.171,652.896 863.338,652.062 883.5,651C 890.256,650.225 896.589,648.392 902.5,645.5C 910.02,643.077 917.354,640.077 924.5,636.5C 927.869,634.116 931.203,631.783 934.5,629.5 Z"/></g>
<g><path style="opacity:1" fill="#9acfe2" d="M 473.5,652.5 C 473.833,652.5 474.167,652.5 474.5,652.5C 474.629,654.216 474.962,655.883 475.5,657.5C 464.549,659.478 453.216,660.144 441.5,659.5C 440.833,658.833 440.167,658.167 439.5,657.5C 439.443,656.391 439.11,655.391 438.5,654.5C 438.5,654.167 438.5,653.833 438.5,653.5C 450.345,653.828 462.012,653.495 473.5,652.5 Z"/></g>
<g><path style="opacity:1" fill="#58afce" d="M 969.5,474.5 C 982.346,496.267 988.68,519.267 988.5,543.5C 984.511,595.401 958.844,631.901 911.5,653C 898.187,657.509 884.687,661.009 871,663.5C 740.463,663.775 610.63,663.442 481.5,662.5C 480.478,662.855 479.811,663.522 479.5,664.5C 478.463,663.07 477.796,661.403 477.5,659.5C 608.091,659.49 738.257,659.49 868,659.5C 909.845,657.404 942.845,639.071 967,604.5C 990.997,562.601 991.497,519.935 968.5,476.5C 968.328,475.508 968.662,474.842 969.5,474.5 Z"/></g>
<g><path style="opacity:1" fill="#89c7dc" d="M 737.5,701.5 C 805.714,702.165 854.881,732.832 885,793.5C 903.514,841.703 900.18,888.37 875,933.5C 848.149,974.953 809.982,998.453 760.5,1004C 706.113,1008.21 661.279,989.711 626,948.5C 593.536,903.122 585.869,853.788 603,800.5C 628.584,741.296 673.417,708.296 737.5,701.5 Z"/></g>
<g><path style="opacity:1" fill="#89c7dc" d="M 161.5,719.5 C 172.617,717.803 180.117,722.136 184,732.5C 186.164,786.981 213.331,821.815 265.5,837C 274.066,838.838 282.733,839.838 291.5,840C 305.48,845.986 308.147,855.32 299.5,868C 294.527,871.909 288.86,873.409 282.5,872.5C 225.314,867.786 184.814,839.453 161,787.5C 153.95,769.481 150.617,750.814 151,731.5C 152.936,726.068 156.436,722.068 161.5,719.5 Z"/></g>
<g><path style="opacity:1" fill="#4eabcc" d="M 728.5,736.5 C 769.546,732.212 804.546,744.545 833.5,773.5C 861.223,807.072 869.723,845.072 859,887.5C 839.517,940.796 801.35,969.129 744.5,972.5C 699.414,970.199 665.248,949.865 642,911.5C 618.186,862.829 622.853,817.162 656,774.5C 675.855,753.49 700.022,740.823 728.5,736.5 Z"/></g>
</svg>
