<?xml version="1.0" encoding="UTF-8"?>
<!DOCTYPE svg PUBLIC "-//W3C//DTD SVG 1.1//EN" "http://www.w3.org/Graphics/SVG/1.1/DTD/svg11.dtd">
<svg xmlns="http://www.w3.org/2000/svg" version="1.1" width="1080px" height="1080px" style="shape-rendering:geometricPrecision; text-rendering:geometricPrecision; image-rendering:optimizeQuality; fill-rule:evenodd; clip-rule:evenodd" xmlns:xlink="http://www.w3.org/1999/xlink">
<g><path style="opacity:0.996" fill="#a22613" d="M 312.5,101.5 C 335.063,99.5574 356.063,104.391 375.5,116C 390.589,125.553 404.589,136.553 417.5,149C 449,180.5 480.5,212 512,243.5C 516.858,248.22 518.525,253.886 517,260.5C 514.81,265.363 511.81,269.696 508,273.5C 494.5,287 481,300.5 467.5,314C 464.443,316.723 461.11,319.056 457.5,321C 452.232,322.068 447.232,321.401 442.5,319C 414.139,290.305 385.472,261.972 356.5,234C 346.69,225.913 336.69,225.58 326.5,233C 294.667,264.833 262.833,296.667 231,328.5C 224.572,339.187 225.572,349.187 234,358.5C 261.333,385.833 288.667,413.167 316,440.5C 322.17,447.346 322.837,454.679 318,462.5C 302.529,478.971 286.696,495.138 270.5,511C 262.345,518.722 253.678,519.388 244.5,513C 210,478.5 175.5,444 141,409.5C 126.062,393.301 114.396,374.968 106,354.5C 97.7976,329.985 99.7976,306.318 112,283.5C 117.844,274.479 124.178,265.812 131,257.5C 173.5,215 216,172.5 258.5,130C 273.887,115.474 291.887,105.974 312.5,101.5 Z"/></g>
<g><path style="opacity:0.995" fill="#a32614" d="M 561.5,304.5 C 566.08,304.113 570.414,304.947 574.5,307C 595.972,327.471 617.138,348.305 638,369.5C 644.906,377.566 645.24,385.899 639,394.5C 577.167,456.333 515.333,518.167 453.5,580C 470.014,596.681 486.681,613.181 503.5,629.5C 524.653,608.847 545.653,588.014 566.5,567C 573.538,562.341 580.538,562.341 587.5,567C 606.028,585.862 624.862,604.362 644,622.5C 646.723,625.557 649.056,628.89 651,632.5C 652.708,639.468 651.041,645.468 646,650.5C 606.167,690.333 566.333,730.167 526.5,770C 517.552,777.533 508.885,777.199 500.5,769C 436.667,705.167 372.833,641.333 309,577.5C 303,569.833 303,562.167 309,554.5C 391.167,472.333 473.333,390.167 555.5,308C 557.432,306.541 559.432,305.375 561.5,304.5 Z"/></g>
<g><path style="opacity:0.996" fill="#a32713" d="M 802.5,586.5 C 820.747,584.819 838.081,587.985 854.5,596C 864.016,601.256 873.016,607.256 881.5,614C 921.306,652.805 960.806,691.972 1000,731.5C 1006.37,738.349 1007.03,745.683 1002,753.5C 987.251,769.251 972.084,784.751 956.5,800C 947.697,810.047 938.031,811.047 927.5,803C 897.5,773 867.5,743 837.5,713C 827.224,709.712 819.724,713.212 815,723.5C 813.993,728.111 814.66,732.445 817,736.5C 838.308,763.12 858.641,790.453 878,818.5C 897.213,852.399 894.213,884.065 869,913.5C 851.167,931.333 833.333,949.167 815.5,967C 782.062,993.045 747.062,995.045 710.5,973C 701.263,967.099 692.596,960.432 684.5,953C 643,911.5 601.5,870 560,828.5C 555.54,823.074 554.54,817.074 557,810.5C 573.829,791.338 591.662,773.171 610.5,756C 613.467,754.3 616.633,753.133 620,752.5C 623.367,753.133 626.533,754.3 629.5,756C 664.5,791 699.5,826 734.5,861C 739.738,864.189 745.071,864.189 750.5,861C 754.092,858.079 756.925,854.579 759,850.5C 759.667,847.5 759.667,844.5 759,841.5C 740.91,816.988 722.576,792.654 704,768.5C 695.249,755.995 688.916,742.329 685,727.5C 680.891,703.831 686.558,682.831 702,664.5C 718.11,647.389 734.61,630.555 751.5,614C 765.713,599.562 782.713,590.395 802.5,586.5 Z"/></g>
</svg>
