<?xml version="1.0" encoding="UTF-8"?>
<!DOCTYPE svg PUBLIC "-//W3C//DTD SVG 1.1//EN" "http://www.w3.org/Graphics/SVG/1.1/DTD/svg11.dtd">
<svg xmlns="http://www.w3.org/2000/svg" version="1.1" width="1080px" height="1080px" style="shape-rendering:geometricPrecision; text-rendering:geometricPrecision; image-rendering:optimizeQuality; fill-rule:evenodd; clip-rule:evenodd" xmlns:xlink="http://www.w3.org/1999/xlink">
<g><path style="opacity:0.988" fill="#000000" d="M 264.5,7.5 C 271.009,6.83668 276.676,8.67001 281.5,13C 301.667,33.1667 321.833,53.3333 342,73.5C 349.491,81.1309 351.825,90.1309 349,100.5C 339.088,135.313 329.255,170.147 319.5,205C 321.015,208.529 323.348,211.529 326.5,214C 330.236,214.61 333.903,214.277 337.5,213C 372.116,202.35 406.949,192.516 442,183.5C 448.609,184.222 454.442,186.722 459.5,191C 480,211.5 500.5,232 521,252.5C 526.041,257.532 527.708,263.532 526,270.5C 524.056,274.11 521.723,277.443 519,280.5C 439.077,360.423 358.91,440.59 278.5,521C 270.434,527.906 262.101,528.24 253.5,522C 233,501.5 212.5,481 192,460.5C 186,452.833 186,445.167 192,437.5C 235.5,394 279,350.5 322.5,307C 301.54,312.76 280.54,318.76 259.5,325C 250.116,327.078 241.783,325.078 234.5,319C 225.265,310.435 216.765,301.268 209,291.5C 207.693,287.939 206.86,284.273 206.5,280.5C 212.372,257.01 218.538,233.676 225,210.5C 182.167,253.333 139.333,296.167 96.5,339C 87.8333,346.333 79.1667,346.333 70.5,339C 51,319.5 31.5,300 12,280.5C 6,272.833 6,265.167 12,257.5C 94.1667,175.333 176.333,93.1667 258.5,11C 260.432,9.5415 262.432,8.37483 264.5,7.5 Z"/></g>
<g><path style="opacity:0.988" fill="#000000" d="M 622.5,366.5 C 631.147,366.657 638.48,369.824 644.5,376C 678.667,410.167 712.833,444.333 747,478.5C 752.588,485.183 754.588,492.849 753,501.5C 730.436,554.63 706.77,607.297 682,659.5C 675.324,671.525 667.657,682.858 659,693.5C 623.5,729 588,764.5 552.5,800C 543.806,805.092 535.806,804.092 528.5,797C 508.667,777.167 488.833,757.333 469,737.5C 462.353,727.675 463.353,718.675 472,710.5C 488.86,693.64 505.694,676.806 522.5,660C 501,638.5 479.5,617 458,595.5C 440.806,612.694 423.64,629.86 406.5,647C 397.78,655.239 388.78,655.573 379.5,648C 360.333,628.833 341.167,609.667 322,590.5C 315.755,581.938 316.088,573.605 323,565.5C 357.5,531 392,496.5 426.5,462C 448.743,444.701 473.076,430.701 499.5,420C 540.381,401.552 581.381,383.718 622.5,366.5 Z M 606.5,490.5 C 609.649,490.211 612.649,490.711 615.5,492C 619,495.5 622.5,499 626,502.5C 627.457,505.366 627.79,508.366 627,511.5C 614.191,537.118 600.858,562.451 587,587.5C 568.167,568.667 549.333,549.833 530.5,531C 555.831,517.172 581.164,503.672 606.5,490.5 Z"/></g>
<g><path style="opacity:0.988" fill="#000000" d="M 847.5,590.5 C 854.009,589.837 859.676,591.67 864.5,596C 884.333,615.833 904.167,635.667 924,655.5C 930.465,662.681 931.132,670.348 926,678.5C 914.667,689.833 903.333,701.167 892,712.5C 889.497,715.502 887.497,718.835 886,722.5C 882.698,739.342 879.531,756.175 876.5,773C 878.212,778.729 881.545,783.396 886.5,787C 888.744,787.906 891.077,788.406 893.5,788.5C 910.27,786.205 926.937,783.372 943.5,780C 947.336,777.916 951.003,775.583 954.5,773C 965.5,762 976.5,751 987.5,740C 995.617,734.972 1003.28,735.638 1010.5,742C 1030,761.5 1049.5,781 1069,800.5C 1075.91,808.566 1076.24,816.899 1070,825.5C 1054.44,841.729 1038.27,857.229 1021.5,872C 1011.63,879.185 1000.63,883.851 988.5,886C 962.184,890.108 935.851,894.108 909.5,898C 904.913,926.44 900.413,954.94 896,983.5C 892.001,998.15 884.668,1010.82 874,1021.5C 858.167,1037.33 842.333,1053.17 826.5,1069C 817.833,1076.33 809.167,1076.33 800.5,1069C 778.94,1048.11 758.107,1026.61 738,1004.5C 736.068,999.861 736.068,995.194 738,990.5C 740,987.833 742,985.167 744,982.5C 759.64,968.194 774.64,953.194 789,937.5C 790.562,935.043 791.562,932.376 792,929.5C 794.887,913.676 797.721,897.843 800.5,882C 800.204,880.112 799.704,878.278 799,876.5C 795.833,873.333 792.667,870.167 789.5,867C 787.466,865.994 785.3,865.494 783,865.5C 766.101,867.955 749.268,870.789 732.5,874C 730.004,875.08 727.67,876.414 725.5,878C 710.167,893.333 694.833,908.667 679.5,924C 670.288,930.479 661.621,929.812 653.5,922C 634.333,902.833 615.167,883.667 596,864.5C 589.104,856.772 588.771,848.772 595,840.5C 612.5,823 630,805.5 647.5,788C 659.145,777.345 672.812,770.678 688.5,768C 714.809,763.932 741.142,760.099 767.5,756.5C 771.285,730.17 775.119,703.837 779,677.5C 781.678,661.812 788.345,648.145 799,636.5C 813.167,622.333 827.333,608.167 841.5,594C 843.432,592.541 845.432,591.375 847.5,590.5 Z"/></g>
</svg>
