<?xml version="1.0" encoding="UTF-8"?>
<!DOCTYPE svg PUBLIC "-//W3C//DTD SVG 1.1//EN" "http://www.w3.org/Graphics/SVG/1.1/DTD/svg11.dtd">
<svg xmlns="http://www.w3.org/2000/svg" version="1.1" width="1080px" height="1080px" style="shape-rendering:geometricPrecision; text-rendering:geometricPrecision; image-rendering:optimizeQuality; fill-rule:evenodd; clip-rule:evenodd" xmlns:xlink="http://www.w3.org/1999/xlink">
<g><path style="opacity:0.988" fill="#000000" d="M 285.5,27.5 C 291.646,27.0483 296.979,28.8816 301.5,33C 324.393,55.225 346.56,78.0583 368,101.5C 371.12,109.458 371.12,117.458 368,125.5C 358.5,158.667 349,191.833 339.5,225C 342.248,232.772 347.582,235.772 355.5,234C 388.382,223.928 421.382,214.262 454.5,205C 463.922,202.837 472.256,204.837 479.5,211C 500.333,231.833 521.167,252.667 542,273.5C 546.519,278.9 547.853,284.9 546,291.5C 544.667,293.5 543.333,295.5 542,297.5C 460.167,379.333 378.333,461.167 296.5,543C 288.672,548.859 281.005,548.525 273.5,542C 253.333,521.833 233.167,501.667 213,481.5C 208.716,476.981 207.049,471.648 208,465.5C 209.572,461.359 211.905,457.692 215,454.5C 257.302,412.198 299.469,370.031 341.5,328C 321.036,332.868 300.703,338.535 280.5,345C 271.391,346.846 263.058,345.179 255.5,340C 245.932,331.102 237.099,321.602 229,311.5C 227.848,307.909 227.015,304.242 226.5,300.5C 232.554,276.61 239.054,252.943 246,229.5C 202.167,273.333 158.333,317.167 114.5,361C 106.672,366.859 99.0049,366.525 91.5,360C 71.6667,340.167 51.8333,320.333 32,300.5C 27.5567,295.062 26.5567,289.062 29,282.5C 31,279.833 33,277.167 35,274.5C 114.896,194.604 195.063,114.437 275.5,34C 278.761,31.548 282.094,29.3813 285.5,27.5 Z"/></g>
<g><path style="opacity:0.986" fill="#000000" d="M 593.5,337.5 C 597.605,337.234 601.605,337.734 605.5,339C 608.167,341 610.833,343 613.5,345C 666.333,397.833 719.167,450.667 772,503.5C 778.17,510.346 778.837,517.679 774,525.5C 756.915,543.919 739.081,561.752 720.5,579C 713.927,582.551 707.594,582.218 701.5,578C 688.833,565.333 676.167,552.667 663.5,540C 662.833,539.333 662.167,539.333 661.5,540C 620.5,581 579.5,622 538.5,663C 551,675.5 563.5,688 576,700.5C 582.717,710.332 581.717,719.332 573,727.5C 557.471,743.362 541.638,758.862 525.5,774C 519.167,778.667 512.833,778.667 506.5,774C 451.388,719.888 396.554,665.388 342,610.5C 335.379,602.999 335.046,595.332 341,587.5C 357.833,570.667 374.667,553.833 391.5,537C 399.617,531.972 407.283,532.638 414.5,539C 427,551.5 439.5,564 452,576.5C 493,535.5 534,494.5 575,453.5C 575.667,452.833 575.667,452.167 575,451.5C 562,438.5 549,425.5 536,412.5C 531.155,405.244 531.488,398.244 537,391.5C 553.5,375 570,358.5 586.5,342C 588.898,340.476 591.231,338.976 593.5,337.5 Z"/></g>
<g><path style="opacity:0.987" fill="#000000" d="M 825.5,567.5 C 828.941,567.301 832.274,567.801 835.5,569C 852.273,583.771 868.44,599.271 884,615.5C 890.938,623.312 894.105,632.479 893.5,643C 889.739,694.484 886.572,745.984 884,797.5C 910.167,771.333 936.333,745.167 962.5,719C 968.003,713.721 974.337,712.388 981.5,715C 1003.61,735.107 1025.11,755.94 1046,777.5C 1053.63,787.056 1052.96,796.056 1044,804.5C 963.833,884.667 883.667,964.833 803.5,1045C 795.115,1053.2 786.448,1053.53 777.5,1046C 755.94,1025.11 735.107,1003.61 715,981.5C 712.409,974.893 713.409,968.893 718,963.5C 734,947.5 750,931.5 766,915.5C 770.472,869.454 774.805,823.454 779,777.5C 738.167,818.333 697.333,859.167 656.5,900C 648.167,907.333 639.833,907.333 631.5,900C 611.667,880.167 591.833,860.333 572,840.5C 565.404,831.001 566.404,822.335 575,814.5C 655.5,734 736,653.5 816.5,573C 819.596,571.128 822.596,569.295 825.5,567.5 Z"/></g>
</svg>
